<svg width="24" height="24" viewBox="0 0 24 24" fill="none" xmlns="http://www.w3.org/2000/svg">
<path d="M18.3027 4.28027C18.7201 4.41073 19.0049 4.79797 19.0049 5.23535V7H21.0049C21.5572 7 22.0049 7.44772 22.0049 8V10H9.00488V8C9.00488 7.44773 9.45259 7.00001 10.0049 7H17.0049V5.96973L11.0049 4.09375L5.00488 5.96973V13.374C5.00488 14.6189 5.58425 15.7886 6.56348 16.543L6.75195 16.6797L11.0049 19.5791L14.7871 17H10.0049C9.45259 17 9.00488 16.5523 9.00488 16V12H22.0049V16C22.0049 16.5523 21.5572 17 21.0049 17L17.7852 17.001C17.3986 17.5107 16.9275 17.962 16.3848 18.332L11.0049 22L5.625 18.332C3.98577 17.2143 3.00488 15.358 3.00488 13.374V5.23535C3.00488 4.79797 3.28955 4.41073 3.70703 4.28027L11.0049 2L18.3027 4.28027Z" fill="#3C3C3C"/>
</svg>
