<svg width="24" height="24" viewBox="0 0 24 24" fill="none" xmlns="http://www.w3.org/2000/svg">
<path d="M14 22H10L11 13H13L14 22Z" fill="#3C3C3C"/>
<path d="M12 2C17.5228 2 22 6.47715 22 12C22 15.3236 20.3787 18.2685 17.8838 20.0869L16.8691 18.3477C18.7728 16.8853 20 14.586 20 12C20 7.58172 16.4183 4 12 4C7.58172 4 4 7.58172 4 12C4 14.586 5.22723 16.8853 7.13086 18.3477L6.11621 20.0869C3.62129 18.2685 2 15.3236 2 12C2 6.47715 6.47715 2 12 2Z" fill="#3C3C3C"/>
<path d="M12 6C15.3137 6 18 8.68629 18 12C18 13.8481 17.1645 15.501 15.8506 16.6016L14.8203 14.8369C15.549 14.1124 16 13.1087 16 12C16 9.79086 14.2091 8 12 8C9.79086 8 8 9.79086 8 12C8 13.1087 8.45109 14.1124 9.17969 14.8369L8.14941 16.6016C6.83553 15.501 6 13.8481 6 12C6 8.68629 8.68629 6 12 6Z" fill="#3C3C3C"/>
</svg>
