<svg width="24" height="24" viewBox="0 0 24 24" fill="none" xmlns="http://www.w3.org/2000/svg">
<path d="M10.7998 10.6924H10V9.87207H10.7998V10.6924Z" fill="#3C3C3C"/>
<path d="M12.4004 10.6924H11.5996V9.87207H12.4004V10.6924Z" fill="#3C3C3C"/>
<path d="M14 10.6924H13.2002V9.87207H14V10.6924Z" fill="#3C3C3C"/>
<path fill-rule="evenodd" clip-rule="evenodd" d="M18 2C18.5523 2 19 2.44772 19 3V21C19 21.5523 18.5523 22 18 22H6C5.44772 22 5 21.5523 5 21V3C5 2.44772 5.44772 2 6 2H18ZM12 17C11.4477 17 11 17.4477 11 18C11 18.5523 11.4477 19 12 19C12.5523 19 13 18.5523 13 18C13 17.4477 12.5523 17 12 17ZM8.40039 7C8.17951 7 8.00005 7.18363 8 7.41016V15L9.78223 13.5645H15.5996C15.8204 13.5645 15.9998 13.3807 16 13.1543V7.41016C15.9999 7.18363 15.8205 7 15.5996 7H8.40039Z" fill="#3C3C3C"/>
</svg>
