<svg width="24" height="24" viewBox="0 0 24 24" fill="none" xmlns="http://www.w3.org/2000/svg">
<path d="M14 12.5C14.2761 12.5 14.5 12.7239 14.5 13V13.5H13.5V13C13.5 12.7239 13.7239 12.5 14 12.5Z" fill="#3C3C3C"/>
<path fill-rule="evenodd" clip-rule="evenodd" d="M18 7C18.5523 7 19 7.44772 19 8V22C19 22.5523 18.5523 23 18 23H10C9.44772 23 9 22.5523 9 22V8C9 7.44772 9.44772 7 10 7H18ZM14 19C13.4477 19 13 19.4477 13 20C13 20.5523 13.4477 21 14 21C14.5523 21 15 20.5523 15 20C15 19.4477 14.5523 19 14 19ZM14 11.5C13.1715 11.5 12.5 12.1716 12.5 13V13.5H12V16H16V13.5H15.5V13C15.5 12.1716 14.8285 11.5 14 11.5Z" fill="#3C3C3C"/>
<path d="M10 2C12.6123 2 14.8334 3.66984 15.6572 6H14.583C13.8114 4.23428 12.0502 3 10 3C7.23858 3 5 5.23858 5 8C5 10.0502 6.23428 11.8114 8 12.583V13.6572C5.66984 12.8334 4 10.6123 4 8C4 4.68629 6.68629 2 10 2Z" fill="#3C3C3C"/>
<path d="M10 4C11.4804 4 12.7722 4.80464 13.4639 6H12.2314C11.6822 5.3876 10.8874 5 10 5C8.34315 5 7 6.34315 7 8C7 8.88738 7.3876 9.68219 8 10.2314V11.4629C6.80487 10.7711 6 9.48021 6 8C6 5.79086 7.79086 4 10 4Z" fill="#3C3C3C"/>
</svg>
