<svg width="24" height="24" viewBox="0 0 24 24" fill="none" xmlns="http://www.w3.org/2000/svg">
<path d="M12.5 13.5H11.5V12.5H12.5V13.5Z" fill="#3C3C3C"/>
<path d="M12.5 11.5H11.5V8.5H12.5V11.5Z" fill="#3C3C3C"/>
<path fill-rule="evenodd" clip-rule="evenodd" d="M18 2C18.5523 2 19 2.44772 19 3V21C19 21.5523 18.5523 22 18 22H6C5.44772 22 5 21.5523 5 21V3C5 2.44772 5.44772 2 6 2H18ZM12 17C11.4477 17 11 17.4477 11 18C11 18.5523 11.4477 19 12 19C12.5523 19 13 18.5523 13 18C13 17.4477 12.5523 17 12 17ZM12.7324 7.26953C12.3103 6.91011 11.6897 6.9101 11.2676 7.26953L10.7598 7.70215C10.6995 7.75355 10.6239 7.78471 10.5449 7.79102L9.88086 7.84473C9.32786 7.88886 8.88886 8.32786 8.84473 8.88086L8.79102 9.54492C8.78472 9.62391 8.75355 9.69945 8.70215 9.75977L8.26953 10.2676C7.9101 10.6897 7.91009 11.3103 8.26953 11.7324L8.70215 12.2402C8.75354 12.3006 8.78471 12.3761 8.79102 12.4551L8.84473 13.1191C8.88886 13.6721 9.32786 14.1111 9.88086 14.1553L10.5449 14.209C10.6239 14.2153 10.6995 14.2465 10.7598 14.2979L11.2676 14.7305C11.6897 15.0899 12.3103 15.0899 12.7324 14.7305L13.2402 14.2979C13.3005 14.2465 13.3761 14.2153 13.4551 14.209L14.1191 14.1553C14.6721 14.1112 15.1111 13.6722 15.1553 13.1191L15.209 12.4551C15.2153 12.3761 15.2465 12.3006 15.2979 12.2402L15.7305 11.7324C16.0899 11.3103 16.0899 10.6897 15.7305 10.2676L15.2979 9.75977C15.2465 9.69945 15.2153 9.62391 15.209 9.54492L15.1553 8.88086C15.1111 8.32787 14.6721 7.88885 14.1191 7.84473L13.4551 7.79102C13.3761 7.78471 13.3005 7.75355 13.2402 7.70215L12.7324 7.26953Z" fill="#3C3C3C"/>
</svg>
