<svg width="24" height="24" viewBox="0 0 24 24" fill="none" xmlns="http://www.w3.org/2000/svg">
<path d="M9 16H8V15H9V16Z" fill="#3C3C3C"/>
<path d="M11 16H10V15H11V16Z" fill="#3C3C3C"/>
<path d="M13 16H12V15H13V16Z" fill="#3C3C3C"/>
<path d="M15 16H14V15H15V16Z" fill="#3C3C3C"/>
<path d="M9 14H8V13H9V14Z" fill="#3C3C3C"/>
<path d="M11 14H10V13H11V14Z" fill="#3C3C3C"/>
<path d="M13 14H12V13H13V14Z" fill="#3C3C3C"/>
<path d="M15 14H14V13H15V14Z" fill="#3C3C3C"/>
<path fill-rule="evenodd" clip-rule="evenodd" d="M19.707 6.70703C19.8945 6.89453 20 7.14891 20 7.41406V21C20 21.5523 19.5523 22 19 22H5C4.44772 22 4 21.5523 4 21V3C4 2.44772 4.44772 2 5 2H15L19.707 6.70703ZM7 18H17V12H7V18Z" fill="#3C3C3C"/>
</svg>
