<svg width="24" height="24" viewBox="0 0 24 24" fill="none" xmlns="http://www.w3.org/2000/svg">
<path d="M8.11603 17.6025L6.73224 20H16.9998V22H5.0174C4.93998 22.0014 4.862 21.9935 4.78497 21.9766C4.77041 21.9733 4.75536 21.9696 4.74103 21.9658C4.6586 21.9436 4.57725 21.9109 4.49982 21.8662C4.47065 21.8494 4.44263 21.8307 4.41583 21.8115C4.3014 21.729 4.20557 21.6226 4.13458 21.5C4.06366 21.3769 4.01891 21.2403 4.0047 21.0996C4.00398 21.0923 4.00331 21.0844 4.00275 21.0771C3.98747 20.8826 4.02967 20.6817 4.13458 20.5L6.38458 16.6025L8.11603 17.6025Z" fill="#3C3C3C"/>
<path d="M3.33966 5.5C5.08489 2.47718 9.88277 2.17367 14.368 4.39844L10.8846 10.4326L12.616 11.4326L16.1004 5.39844C20.2697 8.17039 22.4053 12.4771 20.66 15.5C18.7996 18.7219 13.4711 18.8547 8.74982 16.1289C4.02876 13.403 1.47962 8.72198 3.33966 5.5Z" fill="#3C3C3C"/>
<path d="M17.616 2.77246L16.116 5.37109L14.3846 4.37109L15.8846 1.77246L17.616 2.77246Z" fill="#3C3C3C"/>
</svg>
