<svg width="24" height="24" viewBox="0 0 24 24" fill="none" xmlns="http://www.w3.org/2000/svg">
<path d="M13.7676 18.7324C14.7439 19.7087 14.7439 21.2913 13.7676 22.2676C12.7913 23.2439 11.2087 23.2439 10.2324 22.2676C9.25614 21.2913 9.25614 19.7087 10.2324 18.7324L12 16.9648L13.7676 18.7324Z" fill="#3C3C3C"/>
<path d="M9 2C11.9967 2 14.609 3.64808 15.9795 6.08691C16.3112 6.03007 16.6521 6 17 6C20.3137 6 23 8.68629 23 12C23 15.3137 20.3137 18 17 18H15.8604L12.707 14.8467C12.3166 14.4565 11.6834 14.4565 11.293 14.8467L8.18164 17.959C4.14792 17.549 1 14.1419 1 10C1 5.58172 4.58172 2 9 2Z" fill="#3C3C3C"/>
</svg>
