<svg width="24" height="24" viewBox="0 0 24 24" fill="none" xmlns="http://www.w3.org/2000/svg">
<path d="M16 17.4723C17.0615 18.4223 18.4634 18.9997 20 18.9997H22V20.9997H20C18.5428 20.9997 17.1768 20.6101 16 19.9293C14.8244 20.6098 13.4576 20.9997 12 20.9997C10.5428 20.9997 9.17672 20.6101 8 19.9293C6.82436 20.6098 5.45763 20.9997 4 20.9997H2V18.9997H4C5.53706 18.9997 6.93914 18.4219 8 17.4723C9.0615 18.4223 10.4634 18.9997 12 18.9997C13.537 18.9997 14.9392 18.4219 16 17.4723Z" fill="#3C3C3C"/>
<path d="M11.3271 1.61099C11.6449 1.32223 12.1025 1.27411 12.4668 1.46646L12.5732 1.53189L12.6729 1.61099L23 10.9997H20V16.9997C18.3643 16.9997 16.9122 16.214 16 14.9997C15.0882 16.214 13.6357 16.9997 12 16.9997C10.3643 16.9997 8.91221 16.214 8 14.9997C7.08823 16.214 5.63573 16.9997 4 16.9997L3.99902 10.9997H1L11.3271 1.61099Z" fill="#3C3C3C"/>
</svg>
