<svg width="24" height="24" viewBox="0 0 24 24" fill="none" xmlns="http://www.w3.org/2000/svg">
<path d="M10 19C11.1046 19 12 19.8954 12 21C12 22.1046 11.1046 23 10 23C8.89543 23 8 22.1046 8 21C8 19.8954 8.89543 19 10 19Z" fill="#3C3C3C"/>
<path d="M15 16C16.1046 16 17 16.8954 17 18C17 19.1046 16.1046 20 15 20C13.8954 20 13 19.1046 13 18C13 16.8954 13.8954 16 15 16Z" fill="#3C3C3C"/>
<path d="M9 2C12.3949 2 15.2963 4.11465 16.458 7.09863C16.7954 7.03394 17.1437 7 17.5 7C20.5376 7 23 9.46243 23 12.5C23 15.0193 21.3061 17.1426 18.9951 17.7939C18.8879 15.6806 17.1401 14 15 14C14.622 14 14.2558 14.0524 13.9092 14.1504C13.5196 12.3494 11.9176 11 10 11C7.79086 11 6 12.7909 6 15C6 16.0793 6.42726 17.0588 7.12207 17.7783C3.60985 16.9335 1 13.7715 1 10C1 5.58172 4.58172 2 9 2Z" fill="#3C3C3C"/>
<path d="M10 13C11.1046 13 12 13.8954 12 15C12 16.1046 11.1046 17 10 17C8.89543 17 8 16.1046 8 15C8 13.8954 8.89543 13 10 13Z" fill="#3C3C3C"/>
</svg>
