<svg width="24" height="24" viewBox="0 0 24 24" fill="none" xmlns="http://www.w3.org/2000/svg">
<path d="M13 16.2676L14.9639 15.1338L15.9639 16.8662L14 18L15.9639 19.1338L14.9639 20.8662L13 19.7324V22H11V19.7324L9.03613 20.8662L8.03613 19.1338L10 18L8.03613 16.8662L9.03613 15.1338L11 16.2676V14H13V16.2676Z" fill="#3C3C3C"/>
<path d="M9 2C12.3949 2 15.2963 4.11465 16.458 7.09863C16.7954 7.03394 17.1437 7 17.5 7C20.5376 7 23 9.46243 23 12.5C23 15.369 20.8032 17.7249 18 17.9775C17.9879 14.6742 15.3062 12 12 12C8.87879 12 6.31379 14.3837 6.02637 17.4297C3.08048 16.2495 1 13.3675 1 10C1 5.58172 4.58172 2 9 2Z" fill="#3C3C3C"/>
</svg>
