<svg width="24" height="24" viewBox="0 0 24 24" fill="none" xmlns="http://www.w3.org/2000/svg">
<path d="M15.5557 3.33203L13.001 5.03516V10.2676L17.5322 7.65137L17.7295 4.58789L19.7256 4.71582L19.5361 7.64941L22.1709 8.95117L21.2842 10.7441L18.5322 9.38379L14.001 12L18.5322 14.6162L21.2852 13.2549L22.1719 15.0479L19.5371 16.3506L19.7266 19.2832L17.7305 19.4121L17.5322 16.3477L13.001 13.7314V18.9648L15.5557 20.668L14.4463 22.332L12.001 20.7021L9.55566 22.332L8.44629 20.668L11.001 18.9648V13.7314L6.46875 16.3486L6.27148 19.4121L4.27539 19.2832L4.46484 16.3506L1.83008 15.0479L2.7168 13.2559L5.46875 14.6162L10.001 12L5.46875 9.38281L2.7168 10.7441L1.83008 8.95117L4.46484 7.64844L4.27539 4.71582L6.27148 4.58691L6.46875 7.65137L11.001 10.2676V5.03516L8.44629 3.33203L9.55566 1.66797L12.001 3.29785L14.4463 1.66797L15.5557 3.33203Z" fill="#3C3C3C"/>
</svg>
