<svg width="24" height="24" viewBox="0 0 24 24" fill="none" xmlns="http://www.w3.org/2000/svg">
<path d="M13 23H11V20H13V23Z" fill="#3C3C3C"/>
<path d="M7.0498 18.3643L4.92871 20.4854L3.51465 19.0713L5.63574 16.9492L7.0498 18.3643Z" fill="#3C3C3C"/>
<path d="M20.4854 19.0713L19.0713 20.4854L16.9492 18.3643L18.3643 16.9492L20.4854 19.0713Z" fill="#3C3C3C"/>
<path d="M12 6C15.3137 6 18 8.68629 18 12C18 15.3137 15.3137 18 12 18C8.68629 18 6 15.3137 6 12C6 8.68629 8.68629 6 12 6Z" fill="#3C3C3C"/>
<path d="M4 13H1V11H4V13Z" fill="#3C3C3C"/>
<path d="M23 13H20V11H23V13Z" fill="#3C3C3C"/>
<path d="M7.0498 5.63574L5.63574 7.0498L3.51465 4.92871L4.92871 3.51465L7.0498 5.63574Z" fill="#3C3C3C"/>
<path d="M20.4854 4.92871L18.3643 7.0498L16.9492 5.63574L19.0713 3.51465L20.4854 4.92871Z" fill="#3C3C3C"/>
<path d="M13 4H11V1H13V4Z" fill="#3C3C3C"/>
</svg>
