<svg width="24" height="24" viewBox="0 0 24 24" fill="none" xmlns="http://www.w3.org/2000/svg">
<path d="M13 16.0049H16L11 22.5049V18.0049H8L13 11.5V16.0049Z" fill="#3C3C3C"/>
<path d="M9 2C12.3949 2 15.2963 4.11465 16.458 7.09863C16.7954 7.03394 17.1437 7 17.5 7C20.5376 7 23 9.46243 23 12.5C23 15.5376 20.5376 18 17.5 18H16.9883L18.2041 16.4189C18.4057 16.1568 18.5156 15.8356 18.5156 15.5049C18.5156 14.6766 17.844 14.005 17.0156 14.0049H15V10.0293C15 9.56339 14.7835 9.12376 14.4141 8.83984C13.7573 8.33498 12.8154 8.45843 12.3105 9.11523L5.94531 17.3965C3.04249 16.1963 1 13.3365 1 10C1 5.58172 4.58172 2 9 2Z" fill="#3C3C3C"/>
</svg>
