<svg width="24" height="24" viewBox="0 0 24 24" fill="none" xmlns="http://www.w3.org/2000/svg">
<path fill-rule="evenodd" clip-rule="evenodd" d="M18.7891 2C19.1461 2.00013 19.4757 2.19081 19.6543 2.5L22.3574 7.18164C22.7755 7.87613 23 8.67286 23 9.5C23 11.0602 22.206 12.435 21 13.2422V20H22V22H2V20H3V13.2422C1.79401 12.435 1 11.0602 1 9.5C1 8.67288 1.22404 7.87601 1.63281 7.19727L4.3457 2.5C4.52429 2.19081 4.85389 2.00014 5.21094 2H18.7891ZM3.35645 8.21289C3.12456 8.59811 3 9.0389 3 9.5C3 10.8807 4.11929 12 5.5 12C6.53096 12 7.44515 11.3705 7.82227 10.4297C8.15788 9.59242 9.34212 9.59242 9.67773 10.4297C10.0548 11.3705 10.969 12 12 12C13.031 12 13.9452 11.3705 14.3223 10.4297C14.6579 9.59242 15.8421 9.59242 16.1777 10.4297C16.5548 11.3705 17.469 12 18.5 12C19.8807 12 21 10.8807 21 9.5C21 9.0389 20.876 8.59824 20.6348 8.19727L18.2109 4H5.78906L3.35645 8.21289Z" fill="#3C3C3C"/>
</svg>
