<svg width="24" height="24" viewBox="0 0 24 24" fill="none" xmlns="http://www.w3.org/2000/svg">
<path d="M17.9998 22H5.99978L11.9998 13L17.9998 22Z" fill="#3C3C3C"/>
<path d="M6.69704 4.19629C3.76811 7.12523 3.76811 11.8748 6.69704 14.8037L5.28298 16.2178C1.57299 12.5078 1.57299 6.49221 5.28298 2.78223L6.69704 4.19629Z" fill="#3C3C3C"/>
<path d="M18.7176 2.78223C22.4276 6.49221 22.4276 12.5078 18.7176 16.2178L17.3035 14.8037C20.2324 11.8748 20.2324 7.12523 17.3035 4.19629L18.7176 2.78223Z" fill="#3C3C3C"/>
<path d="M9.52517 7.02539C8.15852 8.39219 8.15852 10.6077 9.52517 11.9746L8.11111 13.3887C5.96341 11.2408 5.96341 7.75917 8.11111 5.61133L9.52517 7.02539Z" fill="#3C3C3C"/>
<path d="M15.8894 5.61133C18.0369 7.75912 18.0369 11.2409 15.8894 13.3887L14.4754 11.9746C15.8417 10.6078 15.8417 8.39214 14.4754 7.02539L15.8894 5.61133Z" fill="#3C3C3C"/>
<path d="M10.9392 8.43945C11.525 7.85371 12.4745 7.85381 13.0603 8.43945C13.646 9.02523 13.646 9.97481 13.0603 10.5605C12.4745 11.1462 11.525 11.1463 10.9392 10.5605C10.3537 9.97484 10.3537 9.02522 10.9392 8.43945Z" fill="#3C3C3C"/>
</svg>
