<svg width="24" height="24" viewBox="0 0 24 24" fill="none" xmlns="http://www.w3.org/2000/svg">
<path d="M11 17.8945C11.0001 18.4353 11.2759 18.8867 11.6777 19.1553L11 20L9.33301 17.9258C9.78852 17.5555 10.3686 17.333 11 17.333V17.8945Z" fill="#3C3C3C"/>
<path d="M21.3496 20H13.6504V18.9473H21.3496V20Z" fill="#3C3C3C"/>
<path d="M22.4541 10C22.7553 10 22.9998 10.2338 23 10.5264V17.8945C22.9998 18.1854 22.7491 18.4209 22.4541 18.4209H12.5459C12.4615 18.4209 12.3819 18.4011 12.3105 18.3682C12.159 18.2984 12.0453 18.1648 12.0107 18.001L12 17.8945V10.5264C12.0002 10.2719 12.192 10.0598 12.4375 10.0107L12.5459 10H22.4541Z" fill="#3C3C3C"/>
<path d="M11 15.5557C9.94792 15.5557 8.98167 15.925 8.22266 16.542L6.55566 14.4678C7.77018 13.4803 9.31638 12.8887 11 12.8887V15.5557Z" fill="#3C3C3C"/>
<path d="M11 8.44434C12.2291 8.44434 13.4124 8.64024 14.5225 9H12.5459C11.7394 9 11.0002 9.64353 11 10.5264V11.1113C8.89544 11.1113 6.9625 11.8506 5.44434 13.085L3.77734 11.0098C5.75097 9.40513 8.26408 8.44434 11 8.44434Z" fill="#3C3C3C"/>
<path d="M11 4C14.7882 4.00001 18.2672 5.33092 21 7.55273L19.8369 9H18.4951C16.3628 7.52863 13.7817 6.667 11 6.66699C7.84329 6.66699 4.9442 7.77557 2.66699 9.62695L1 7.55273C3.7327 5.33091 7.21179 4 11 4Z" fill="#3C3C3C"/>
</svg>
