<svg width="24" height="24" viewBox="0 0 24 24" fill="none" xmlns="http://www.w3.org/2000/svg">
<path d="M7.58008 3C7.83676 3 8.05138 3.19482 8.07715 3.4502C8.10027 3.67923 8.12173 3.86316 8.1416 4.00195C8.34388 5.41461 8.75749 6.75929 9.34863 8.00293C9.44351 8.20252 9.38195 8.44183 9.20215 8.57031L7.04395 10.1113C8.35792 13.1806 10.8194 15.6421 13.8887 16.9561L15.4268 14.8018C15.5569 14.6198 15.799 14.5574 16.001 14.6533C17.2446 15.244 18.5895 15.6566 20.002 15.8584C20.1398 15.8782 20.3225 15.8999 20.5498 15.9229C20.8052 15.9486 21 16.1633 21 16.4199V19.9561C21 20.4811 20.5939 20.9171 20.0703 20.9541C19.633 20.985 19.2763 21 19 21C10.1634 21 3 13.8366 3 5C3 4.72376 3.01501 4.36696 3.0459 3.92969C3.08292 3.40607 3.51903 3 4.04395 3H7.58008Z" fill="#3C3C3C"/>
<path fill-rule="evenodd" clip-rule="evenodd" d="M17.5713 4C17.808 4 18 4.17948 18 4.40039V11.5996C18 11.8205 17.808 12 17.5713 12H12.4287C12.192 12 12 11.8205 12 11.5996V4.40039C12 4.17948 12.192 4 12.4287 4H17.5713ZM15 10C14.7633 10 14.5713 10.1795 14.5713 10.4004C14.5715 10.6211 14.7634 10.7998 15 10.7998C15.2366 10.7998 15.4285 10.6211 15.4287 10.4004C15.4287 10.1795 15.2367 10 15 10Z" fill="#3C3C3C"/>
</svg>
