<svg width="24" height="24" viewBox="0 0 24 24" fill="none" xmlns="http://www.w3.org/2000/svg">
<path d="M11 19.8945C11.0001 20.4353 11.2759 20.8867 11.6777 21.1553L11 22L9.33301 19.9258C9.78852 19.5555 10.3686 19.333 11 19.333V19.8945Z" fill="#3C3C3C"/>
<path d="M21.3496 22H13.6504V20.9473H21.3496V22Z" fill="#3C3C3C"/>
<path d="M22.4541 12C22.7553 12 22.9998 12.2338 23 12.5264V19.8945C22.9998 20.1854 22.7491 20.4209 22.4541 20.4209H12.5459C12.4183 20.4209 12.3019 20.3773 12.209 20.3066C12.2054 20.304 12.2017 20.3016 12.1982 20.2988C12.1721 20.2779 12.1486 20.2547 12.127 20.2295C12.1216 20.2234 12.1164 20.2173 12.1113 20.2109C12.0933 20.1879 12.0774 20.1635 12.0635 20.1377C12.0571 20.1261 12.0504 20.1147 12.0449 20.1025C12.0434 20.0992 12.0414 20.0961 12.04 20.0928C12.0276 20.0634 12.0175 20.0329 12.0107 20.001L12 19.8945V12.5264C12.0001 12.4916 12.0039 12.4577 12.0107 12.4248C12.0125 12.4161 12.0163 12.408 12.0186 12.3994C12.0244 12.3771 12.0303 12.3551 12.0391 12.334C12.0452 12.3191 12.053 12.3052 12.0605 12.291C12.0679 12.2771 12.0754 12.2632 12.084 12.25C12.0923 12.2373 12.101 12.2249 12.1104 12.2129C12.1214 12.1987 12.133 12.1849 12.1455 12.1719C12.1562 12.1607 12.1671 12.1499 12.1787 12.1396C12.1904 12.1293 12.2033 12.1206 12.2158 12.1113C12.2287 12.1017 12.2411 12.0915 12.2549 12.083C12.2717 12.0726 12.2897 12.0643 12.3076 12.0557C12.3191 12.0502 12.3299 12.0428 12.3418 12.0381C12.3724 12.026 12.4046 12.0173 12.4375 12.0107L12.5459 12H22.4541Z" fill="#3C3C3C"/>
<path d="M11 17.5557C9.94792 17.5557 8.98167 17.925 8.22266 18.542L6.55566 16.4678C7.77018 15.4803 9.31638 14.8887 11 14.8887V17.5557Z" fill="#3C3C3C"/>
<path d="M11 10.4443C12.23 10.4443 13.4143 10.6404 14.5254 11H12.5459C11.7394 11 11.0002 11.6435 11 12.5264V13.1113C8.89544 13.1113 6.9625 13.8506 5.44434 15.085L3.77734 13.0098C5.75097 11.4051 8.26408 10.4443 11 10.4443Z" fill="#3C3C3C"/>
<path d="M11 6C11.7905 6 12.5675 6.05802 13.3271 6.16992C13.6727 7.35102 14.2785 8.42058 15.0801 9.31152C13.7945 8.894 12.4237 8.66699 11 8.66699C7.84329 8.66699 4.9442 9.77556 2.66699 11.627L1 9.55273C3.7327 7.33091 7.21179 6 11 6Z" fill="#3C3C3C"/>
<path d="M16.0352 3C16.1492 3 16.2454 3.08669 16.2568 3.2002C16.2671 3.30192 16.2763 3.38365 16.2852 3.44531C16.3751 4.07315 16.5586 4.67091 16.8213 5.22363C16.8634 5.31224 16.8365 5.41844 16.7568 5.47559L15.7969 6.16113C16.0765 6.81413 16.474 7.40436 16.9609 7.90723C17.1278 8.07942 17.3051 8.24116 17.4922 8.3916C17.807 8.64498 18.1487 8.86615 18.5127 9.0498C18.5375 9.06232 18.5619 9.07572 18.5869 9.08789L18.8389 9.20312L19.5234 8.24512C19.5813 8.16442 19.6886 8.13711 19.7783 8.17969C20.331 8.44215 20.929 8.62517 21.5566 8.71484C21.6179 8.72362 21.6989 8.73297 21.7998 8.74316C21.9133 8.75463 22 8.85075 22 8.96484V10.5361C22 10.7694 21.8196 10.963 21.5869 10.9795C21.3926 10.9932 21.2341 11 21.1113 11C20.7046 11 20.3061 10.9631 19.918 10.8975C19.9092 10.896 19.9004 10.8951 19.8916 10.8936C19.4318 10.8141 18.9875 10.6906 18.5625 10.5273C18.5494 10.5223 18.5365 10.5168 18.5234 10.5117C18.3256 10.4344 18.1321 10.349 17.9434 10.2549C17.9117 10.2391 17.88 10.2233 17.8486 10.207C17.6712 10.1152 17.4984 10.0161 17.3301 9.91016C17.3167 9.90174 17.3034 9.89327 17.29 9.88477C16.9167 9.64636 16.5676 9.37413 16.2461 9.07227C16.2281 9.0554 16.2102 9.03853 16.1924 9.02148C15.8782 8.72036 15.5917 8.39116 15.3369 8.03711C15.322 8.01644 15.3076 7.99544 15.293 7.97461C15.1827 7.81784 15.0781 7.65694 14.9805 7.49121C14.9536 7.44562 14.9272 7.39975 14.9014 7.35352C14.8436 7.25019 14.788 7.14549 14.7354 7.03906C14.7319 7.03215 14.728 7.02548 14.7246 7.01855L14.7012 6.97168C14.6837 6.93534 14.6683 6.898 14.6514 6.86133C14.6309 6.8169 14.6104 6.77245 14.5908 6.72754C14.2117 5.85785 14 4.89801 14 3.88867C14 3.76591 14.0068 3.60736 14.0205 3.41309C14.037 3.1804 14.2306 3.00004 14.4639 3H16.0352Z" fill="#3C3C3C"/>
<path d="M18.5342 7.90723L18.5322 7.91016C18.523 7.9042 18.5141 7.89762 18.5049 7.8916C18.5146 7.89685 18.5244 7.90196 18.5342 7.90723Z" fill="#3C3C3C"/>
</svg>
