<svg width="24" height="24" viewBox="0 0 24 24" fill="none" xmlns="http://www.w3.org/2000/svg">
<path d="M7.58008 3C7.83676 3 8.05138 3.19482 8.07715 3.4502C8.10027 3.67923 8.12173 3.86316 8.1416 4.00195C8.34388 5.41461 8.75749 6.75929 9.34863 8.00293C9.44351 8.20252 9.38195 8.44183 9.20215 8.57031L7.04395 10.1113C8.35792 13.1806 10.8194 15.6421 13.8887 16.9561L15.4268 14.8018C15.5569 14.6198 15.799 14.5574 16.001 14.6533C17.2446 15.244 18.5895 15.6566 20.002 15.8584C20.1398 15.8782 20.3225 15.8999 20.5498 15.9229C20.8052 15.9486 21 16.1633 21 16.4199V19.9561C21 20.4811 20.5939 20.9171 20.0703 20.9541C19.633 20.985 19.2763 21 19 21C10.1634 21 3 13.8366 3 5C3 4.72376 3.01501 4.36696 3.0459 3.92969C3.08292 3.40607 3.51903 3 4.04395 3H7.58008Z" fill="#3C3C3C"/>
<path d="M14.0352 4C14.1492 4 14.2454 4.08669 14.2568 4.2002C14.2671 4.30192 14.2763 4.38365 14.2852 4.44531C14.3751 5.07315 14.5586 5.67091 14.8213 6.22363C14.8634 6.31224 14.8365 6.41844 14.7568 6.47559L13.7969 7.16113C14.3809 8.52511 15.4749 9.61913 16.8389 10.2031L17.5234 9.24512C17.5813 9.16442 17.6886 9.13711 17.7783 9.17969C18.331 9.44215 18.929 9.62517 19.5566 9.71484C19.6179 9.72362 19.6989 9.73297 19.7998 9.74316C19.9133 9.75463 20 9.85075 20 9.96484V11.5361C20 11.7694 19.8196 11.963 19.5869 11.9795C19.3926 11.9932 19.2341 12 19.1113 12C15.184 12 12 8.81605 12 4.88867C12 4.76591 12.0068 4.60736 12.0205 4.41309C12.037 4.1804 12.2306 4.00004 12.4639 4H14.0352Z" fill="#3C3C3C"/>
</svg>
