<svg width="24" height="24" viewBox="0 0 24 24" fill="none" xmlns="http://www.w3.org/2000/svg">
<path d="M7.58008 3C7.83676 3 8.05138 3.19482 8.07715 3.4502C8.10027 3.67923 8.12173 3.86316 8.1416 4.00195C8.34388 5.41461 8.75749 6.75929 9.34863 8.00293C9.44351 8.20252 9.38195 8.44183 9.20215 8.57031L7.04395 10.1113C8.35792 13.1806 10.8194 15.6421 13.8887 16.9561L15.4268 14.8018C15.5569 14.6198 15.799 14.5574 16.001 14.6533C17.2446 15.244 18.5895 15.6566 20.002 15.8584C20.1398 15.8782 20.3225 15.8999 20.5498 15.9229C20.8052 15.9486 21 16.1633 21 16.4199V19.9561C21 20.4811 20.5939 20.9171 20.0703 20.9541C19.633 20.985 19.2763 21 19 21C10.1634 21 3 13.8366 3 5C3 4.72376 3.01501 4.36696 3.0459 3.92969C3.08292 3.40607 3.51903 3 4.04395 3H7.58008Z" fill="#3C3C3C"/>
<path d="M12.8975 5.48242C13.9716 5.08541 15.2276 5.3177 16.0918 6.18164C16.9466 7.03646 17.1832 8.27479 16.8037 9.3418L18.54 11.0781C19.0471 11.5852 19.0471 12.408 18.54 12.915C18.0331 13.4219 17.2111 13.4217 16.7041 12.915L14.9668 11.1777C13.8999 11.5572 12.6624 11.3214 11.8076 10.4668C10.942 9.60109 10.7104 8.34207 11.1104 7.2666C11.1617 7.12856 11.2799 7.02552 11.4238 6.99414C11.5677 6.96287 11.7181 7.0072 11.8223 7.11133L12.8428 8.13281C13.0963 8.38622 13.5082 8.3863 13.7617 8.13281C14.015 7.87932 14.0151 7.46735 13.7617 7.21387L12.7412 6.19434C12.6372 6.09008 12.5935 5.93977 12.625 5.7959C12.6567 5.65199 12.7592 5.53352 12.8975 5.48242Z" fill="#3C3C3C"/>
</svg>
