<svg width="24" height="24" viewBox="0 0 24 24" fill="none" xmlns="http://www.w3.org/2000/svg">
<path d="M7.58008 3C7.83676 3 8.05138 3.19482 8.07715 3.4502C8.10027 3.67923 8.12173 3.86316 8.1416 4.00195C8.34388 5.41461 8.75749 6.75929 9.34863 8.00293C9.44351 8.20252 9.38195 8.44183 9.20215 8.57031L7.04395 10.1113C8.35792 13.1806 10.8194 15.6421 13.8887 16.9561L15.4268 14.8018C15.5569 14.6198 15.799 14.5574 16.001 14.6533C17.2446 15.244 18.5895 15.6566 20.002 15.8584C20.1398 15.8782 20.3225 15.8999 20.5498 15.9229C20.8052 15.9486 21 16.1633 21 16.4199V19.9561C21 20.4811 20.5939 20.9171 20.0703 20.9541C19.633 20.985 19.2763 21 19 21C10.1634 21 3 13.8366 3 5C3 4.72376 3.01501 4.36696 3.0459 3.92969C3.08292 3.40607 3.51903 3 4.04395 3H7.58008Z" fill="#3C3C3C"/>
<path d="M22.5 12H18.5V10H22.5V12Z" fill="#3C3C3C"/>
<path d="M20.4248 4.98926L17.5967 7.81836L16.1816 6.4043L19.0107 3.5752L20.4248 4.98926Z" fill="#3C3C3C"/>
<path d="M14 5.5H12V1.5H14V5.5Z" fill="#3C3C3C"/>
</svg>
