<svg width="24" height="24" viewBox="0 0 24 24" fill="none" xmlns="http://www.w3.org/2000/svg">
<path d="M12 18C12.714 18 13.3696 18.2495 13.8848 18.666L12 21L10.1152 18.666C10.6304 18.2496 11.286 18 12 18Z" fill="#3C3C3C"/>
<path d="M12 13C13.9042 13 15.6527 13.6655 17.0264 14.7764L15.1416 17.1104C14.283 16.416 13.1902 16 12 16C10.8098 16 9.71694 16.416 8.8584 17.1104L6.97266 14.7764C8.34635 13.6654 10.0957 13 12 13Z" fill="#3C3C3C"/>
<path d="M12 8C15.0945 8.00002 17.9367 9.08153 20.1689 10.8867L18.2832 13.2207C16.5661 11.8321 14.3804 11 12 11C9.61968 11 7.4339 11.8321 5.7168 13.2207L3.83105 10.8867C6.06331 9.08151 8.90554 8 12 8Z" fill="#3C3C3C"/>
<path d="M12 3C16.2846 3.00002 20.2197 4.49754 23.3105 6.99707L21.4258 9.33008C18.8501 7.24714 15.5705 6.00002 12 6C8.42948 6 5.1499 7.24712 2.57422 9.33008L0.689453 6.99707C3.78027 4.49752 7.71536 3 12 3Z" fill="#3C3C3C"/>
</svg>
