<svg width="24" height="24" viewBox="0 0 24 24" fill="none" xmlns="http://www.w3.org/2000/svg">
<path d="M12.1064 18.0039C11.871 18.7658 12.0313 19.6269 12.5869 20.251L12 21L10.167 18.666C10.668 18.2496 11.3056 18 12 18C12.0356 18 12.0711 18.0026 12.1064 18.0039Z" fill="#3C3C3C"/>
<path d="M17.7686 12.001C17.9344 11.9988 18.1005 12.0117 18.2646 12.0381C18.2916 12.0424 18.3188 12.0476 18.3457 12.0527C18.4016 12.0634 18.4574 12.0759 18.5127 12.0898C18.5414 12.0971 18.5701 12.1042 18.5986 12.1123C18.6762 12.1345 18.7541 12.1586 18.8301 12.1875C18.9644 12.2387 19.065 12.3571 19.0957 12.501C19.1263 12.6449 19.0827 12.7952 18.9814 12.8994L17.9902 13.9189C17.7438 14.1724 17.7438 14.5844 17.9902 14.8379C18.2367 15.0909 18.6364 15.091 18.8828 14.8379L19.876 13.8164C19.9773 13.7123 20.1237 13.6679 20.2637 13.6992C20.4035 13.7307 20.5184 13.8338 20.5684 13.9717C20.9573 15.0471 20.7324 16.3062 19.8906 17.1719C19.0593 18.0267 17.8551 18.2623 16.8174 17.8828L15.1289 19.6201C14.6358 20.1271 13.8349 20.1272 13.3418 19.6201C13.1761 19.4498 13.068 19.243 13.0137 19.0254C13.011 19.0147 13.0083 19.0039 13.0059 18.9932C12.9844 18.8971 12.9726 18.7993 12.9727 18.7012V18.6865C12.9727 18.6771 12.9743 18.6677 12.9746 18.6582C12.9758 18.6213 12.9782 18.5845 12.9824 18.5479C12.9845 18.5293 12.9864 18.5107 12.9893 18.4922C12.9933 18.4667 12.9984 18.4413 13.0039 18.416C13.0192 18.3458 13.0387 18.2763 13.0654 18.209C13.127 18.0541 13.2196 17.9089 13.3418 17.7832L15.0312 16.0469C15.0108 15.9878 14.9923 15.9282 14.9756 15.8682C14.9693 15.8458 14.9637 15.8232 14.958 15.8008C14.9286 15.6855 14.9056 15.5687 14.8896 15.4512C14.8637 15.2605 14.8559 15.0679 14.8652 14.876C14.8659 14.8633 14.8674 14.8506 14.8682 14.8379C14.8795 14.6529 14.907 14.4689 14.9512 14.2881C14.9546 14.2741 14.9573 14.26 14.9609 14.2461C15.0095 14.0588 15.0771 13.876 15.1611 13.6992C15.1625 13.6964 15.1637 13.6933 15.165 13.6904C15.3039 13.4008 15.4882 13.1278 15.7227 12.8867C16.0047 12.5967 16.331 12.3792 16.6777 12.2314C16.6854 12.2282 16.6935 12.2259 16.7012 12.2227C16.7748 12.192 16.8495 12.1639 16.9248 12.1396C16.9317 12.1374 16.9384 12.135 16.9453 12.1328C17.1133 12.0802 17.2849 12.0436 17.458 12.0225C17.4745 12.0204 17.4913 12.0183 17.5078 12.0166C17.5773 12.0094 17.6471 12.0051 17.7168 12.0029C17.7341 12.0024 17.7513 12.0012 17.7686 12.001Z" fill="#3C3C3C"/>
<path d="M12 13C12.782 13 13.537 13.1191 14.249 13.3398C13.9103 14.0961 13.812 14.9372 13.9521 15.7422L13.4727 16.2334C13.0081 16.0818 12.5134 16 12 16C10.8425 16 9.77931 16.416 8.94434 17.1104L7.11035 14.7764C8.44633 13.6654 10.148 13 12 13Z" fill="#3C3C3C"/>
<path d="M12 8C15.0094 8.00002 17.7734 9.08162 19.9443 10.8867L19.5078 11.4414C19.4042 11.3631 19.2907 11.297 19.167 11.25C17.9954 10.8048 16.6554 10.9561 15.5928 11.7061C14.4812 11.2513 13.2692 11 12 11C9.68513 11 7.55958 11.8322 5.88965 13.2207L4.05566 10.8867C6.22661 9.0816 8.99059 8 12 8Z" fill="#3C3C3C"/>
<path d="M12 3C16.1669 3.00002 19.994 4.49754 23 6.99707L21.167 9.33008C18.662 7.24714 15.4724 6.00002 12 6C8.52751 6 5.33797 7.24712 2.83301 9.33008L1 6.99707C4.00595 4.49752 7.833 3 12 3Z" fill="#3C3C3C"/>
</svg>
