<svg width="24" height="24" viewBox="0 0 24 24" fill="none" xmlns="http://www.w3.org/2000/svg">
<path d="M13 14H18C18.5523 14 19 14.4477 19 15V21C19 21.5523 18.5523 22 18 22H6C5.44778 21.9999 5 21.5522 5 21V15C5 14.4478 5.44778 14.0001 6 14H11V11H13V14Z" fill="#3C3C3C"/>
<path d="M12 6C14.6505 6 16.8992 7.71898 17.6934 10.1025L15.7959 10.7344C15.2664 9.14553 13.7669 8 12 8C10.2332 8.00004 8.73358 9.14551 8.2041 10.7344L6.30664 10.1025C7.10078 7.71901 9.34965 6.00004 12 6Z" fill="#3C3C3C"/>
<path d="M12 2C16.4175 2 20.1656 4.86432 21.4893 8.83691L19.5918 9.46973C18.5329 6.29163 15.534 4 12 4C8.46617 4.00004 5.46706 6.29166 4.4082 9.46973L2.51074 8.83691C3.83431 4.86432 7.58269 2.00004 12 2Z" fill="#3C3C3C"/>
</svg>
