<svg width="24" height="24" viewBox="0 0 24 24" fill="none" xmlns="http://www.w3.org/2000/svg">
<path d="M19 22H5V20H19V22Z" fill="#3C3C3C"/>
<path d="M12 9C12.5523 9 13 9.44772 13 10V11H11V10C11 9.44772 11.4477 9 12 9Z" fill="#3C3C3C"/>
<path fill-rule="evenodd" clip-rule="evenodd" d="M21.0078 3C21.5556 3 22 3.44474 22 4.00098V17.999C22 18.5518 21.5443 19 21.0078 19H2.99219C2.44444 19 2 18.5553 2 17.999V4.00098C2 3.44822 2.4557 3 2.99219 3H21.0078ZM12 7C10.3431 7 9 8.34315 9 10V11H8V16H16V11H15V10C15 8.34315 13.6569 7 12 7Z" fill="#3C3C3C"/>
</svg>
