<svg width="24" height="24" viewBox="0 0 24 24" fill="none" xmlns="http://www.w3.org/2000/svg">
<path d="M7.52734 13C7.70633 16.2688 8.75765 19.3053 10.4521 21.8809C5.98793 21.1869 2.50057 17.5402 2.0498 13H7.52734Z" fill="#3C3C3C"/>
<path d="M21.9512 13C21.5004 17.5401 18.013 21.1869 13.5488 21.8809C15.2433 19.3053 16.2937 16.2688 16.4727 13H21.9512Z" fill="#3C3C3C"/>
<path d="M14.4697 13C14.2981 15.7829 13.4147 18.3735 12 20.5918C10.5853 18.3735 9.70286 15.7829 9.53125 13H14.4697Z" fill="#3C3C3C"/>
<path d="M10.4521 2.11914C8.75761 4.69465 7.70633 7.73128 7.52734 11H2.0498C2.50058 6.4599 5.98792 2.81301 10.4521 2.11914Z" fill="#3C3C3C"/>
<path d="M12 3.4082C13.4147 5.62651 14.2981 8.2172 14.4697 11H9.53125C9.70286 8.2172 10.5853 5.62651 12 3.4082Z" fill="#3C3C3C"/>
<path d="M13.5488 2.11914C18.013 2.81305 21.5004 6.45993 21.9512 11H16.4727C16.2937 7.73131 15.2433 4.69463 13.5488 2.11914Z" fill="#3C3C3C"/>
</svg>
