<svg width="24" height="24" viewBox="0 0 24 24" fill="none" xmlns="http://www.w3.org/2000/svg">
<path fill-rule="evenodd" clip-rule="evenodd" d="M12 2C17.5228 2 22 6.47715 22 12C22 17.5228 17.5228 22 12 22C6.47715 22 2 17.5228 2 12C2 6.47715 6.47715 2 12 2ZM6.62891 10.4287C7.70477 10.8581 8.85743 11.1468 10 11.3301C10 12.2003 10.0852 13.094 9.68359 13.8975L8.10547 17.0527L9.89453 17.9473L11.4473 14.8418C11.552 14.6324 11.7659 14.5 12 14.5C12.2341 14.5 12.448 14.6325 12.5527 14.8418L14.1055 17.9473L15.8945 17.0527L14.3164 13.8975C13.9147 13.094 14 12.2004 14 11.3301C15.141 11.1471 16.2822 10.8538 17.3594 10.4336C17.3826 10.4189 16.6287 8.5712 16.626 8.57227C15.1725 9.13894 13.5594 9.5 12 9.5C10.4427 9.5 8.82154 9.14305 7.37109 8.57129L6.62891 10.4287ZM12 5.5C11.1716 5.5 10.5 6.17157 10.5 7C10.5 7.82843 11.1716 8.5 12 8.5C12.8284 8.5 13.5 7.82843 13.5 7C13.5 6.17157 12.8284 5.5 12 5.5Z" fill="#3C3C3C"/>
</svg>
