<svg width="24" height="24" viewBox="0 0 24 24" fill="none" xmlns="http://www.w3.org/2000/svg">
<path d="M3.16096 3.99145C5.33424 1.81827 8.66395 1.50592 11.1698 3.05395L7.75764 6.46703C6.19558 8.02911 6.19562 10.5612 7.75764 12.1233C9.27241 13.638 11.6994 13.6839 13.2694 12.261L13.4139 12.1233L17.6571 16.3664L13.4139 20.6086C12.6328 21.3896 11.3668 21.3896 10.5858 20.6086L3.16096 13.1838C0.622892 10.6454 0.622666 6.52973 3.16096 3.99145Z" fill="#3C3C3C"/>
<path d="M14.8026 2.24926C16.9063 1.77341 19.2008 2.35374 20.8387 3.99145C23.258 6.41069 23.3716 10.2629 21.1795 12.8166L19.0711 14.9524L14.1209 10.0022C13.7304 9.6119 13.0973 9.61169 12.7069 10.0022L11.9998 10.7092C11.2187 11.4902 9.95275 11.4902 9.1717 10.7092C8.39073 9.92812 8.39069 8.66212 9.1717 7.88109L14.8026 2.24926Z" fill="#3C3C3C"/>
</svg>
