<svg width="24" height="24" viewBox="0 0 24 24" fill="none" xmlns="http://www.w3.org/2000/svg">
<path d="M23 12.9998C22.9999 17.8133 20.3136 19.9998 17 19.9998H16.0488C16.1546 18.494 16.6238 17.5826 17.8477 16.4998C18.4495 15.9675 18.3991 15.6595 18.1025 15.8358C16.0608 17.0505 15.0469 18.6933 15.002 21.3153L15 21.4998H14C14 20.8189 14.0579 20.2001 14.1729 19.6346C14.0576 18.9876 14 18.1085 14 16.9998C14.0002 14.2386 16.2387 11.9998 19 11.9998C20 11.9999 21.0001 12.4998 23 11.9998V12.9998Z" fill="#3C3C3C"/>
<path d="M13.5596 12.5965C12.5848 13.7993 12 15.332 12 17.0008C12 17.3402 12.0255 17.6744 12.0723 18.0008H2.58008C2.2603 18.0008 2.00036 17.7388 2 17.4178V13.1776C2.00019 12.8565 2.2602 12.5955 2.58008 12.5955V12.5936L13.5596 12.5965Z" fill="#3C3C3C"/>
<path d="M11.6436 4.04867C11.8756 3.98443 12.1224 3.98443 12.3564 4.04867L21.5762 6.62094C21.8259 6.69132 21.9999 6.91977 22 7.18051V10.6747C21.0907 10.2427 20.0737 10.0008 19 10.0008C17.1757 10.0008 15.5145 10.6984 14.2686 11.8416L2.58008 11.8387C2.26033 11.8407 2.00041 11.5795 2 11.2586V7.1766C2.00008 6.91582 2.17412 6.68543 2.42383 6.61703V6.61508L11.6436 4.04867Z" fill="#3C3C3C"/>
</svg>
