<svg width="24" height="24" viewBox="0 0 24 24" fill="none" xmlns="http://www.w3.org/2000/svg">
<path d="M16 21C16 22.1046 15.1046 23 14 23H10C8.89543 23 8 22.1046 8 21V20H16V21Z" fill="#3C3C3C"/>
<path fill-rule="evenodd" clip-rule="evenodd" d="M12 2C16.4183 2 20 5.58172 20 10C20 11.8924 19.3426 13.6311 18.2441 15.001C17.6942 15.6866 16.3554 16.7276 16.0586 18H7.94141C7.64431 16.7274 6.30408 15.6855 5.75391 14.999C4.65647 13.6295 4 11.8914 4 10C4 5.58172 7.58172 2 12 2ZM12.373 5.8291C11.5399 7.2174 10.7069 7.49543 10.1514 8.05078C8.6171 9.58505 8.61709 12.0731 10.1514 13.6074C10.7673 14.2233 11.2875 14.6792 11.7109 14.9746C11.9614 15.3528 12.2728 15.7289 12.6514 16.1074L13.207 15.5518L13.1055 15.4482C11.6736 13.9664 11.3247 12.49 11.7842 10.6807C11.8511 10.4183 12.0493 10.5614 12.0107 11.1914C11.9323 12.4731 12.1781 13.2402 12.9561 14.1357L13.4844 13.6074C15.3255 11.7663 15.6033 9.05833 12.9287 6.38379L12.373 5.8291Z" fill="#3C3C3C"/>
</svg>
