<svg width="24" height="24" viewBox="0 0 24 24" fill="none" xmlns="http://www.w3.org/2000/svg">
<path d="M5.76172 13.5244C6.39674 13.5245 6.86381 13.642 7.16211 13.8779C7.46042 14.1107 7.60938 14.4668 7.60938 14.9453C7.60937 15.3124 7.53356 15.6072 7.38281 15.8301C7.23203 16.0497 7.00567 16.2093 6.7041 16.3076C6.40582 16.4059 6.03192 16.4551 5.58301 16.4551H4.81836V13.5244H5.76172Z" fill="#3C3C3C"/>
<path d="M5.85254 4.72266C6.449 4.72266 6.89024 4.82429 7.17578 5.02734C7.46452 5.23058 7.60938 5.57701 7.60938 6.06543C7.60932 6.5307 7.47276 6.88282 7.2002 7.12207C6.93071 7.36136 6.50883 7.48144 5.93457 7.48145H4.81836V4.72266H5.85254Z" fill="#3C3C3C"/>
<path fill-rule="evenodd" clip-rule="evenodd" d="M22 22H2V2H22V22ZM4 12.8115V20H4.81836V17.1729H5.6748C6.18784 17.1728 6.62084 17.114 6.97363 16.9961C7.32964 16.8748 7.61683 16.7103 7.83496 16.5039C8.05307 16.2942 8.21039 16.0533 8.30664 15.7812C8.40607 15.506 8.45603 15.2159 8.45605 14.9111C8.45605 14.2361 8.2462 13.718 7.82617 13.3574C7.4091 12.9936 6.74581 12.8115 5.83789 12.8115H4ZM9.92871 12.8115V20H13.8701V19.2529H10.7471V12.8115H9.92871ZM4 4V11.1885H4.81836V8.18945H6.28125L8.00391 11.1885H8.95703L7.02734 7.95801C7.27412 7.87282 7.50665 7.75189 7.72461 7.59473C7.94277 7.43738 8.11916 7.2319 8.25391 6.97949C8.38862 6.72382 8.45605 6.40559 8.45605 6.02539C8.456 5.56338 8.36278 5.18297 8.17676 4.88477C7.99069 4.58668 7.70844 4.36585 7.33008 4.22168C6.95472 4.07417 6.47787 4 5.90039 4H4ZM10.083 4V11.1885H14V10.4512H10.9004V7.79102H13.8223V7.06348H10.9004V4.7373H14V4H10.083Z" fill="#3C3C3C"/>
</svg>
