<svg width="24" height="24" viewBox="0 0 24 24" fill="none" xmlns="http://www.w3.org/2000/svg">
<path d="M12.7074 10.9795C14.2695 9.41738 16.8025 9.41738 18.3646 10.9795C19.9263 12.5415 19.9264 15.0737 18.3646 16.6357L12.7074 22.293C12.3169 22.6833 11.6838 22.6834 11.2933 22.293L5.63609 16.6357C4.07442 15.0737 4.07443 12.5415 5.63609 10.9795C7.19818 9.41738 9.73119 9.41738 11.2933 10.9795L11.9994 11.6855L12.7074 10.9795Z" fill="#3C3C3C"/>
<path d="M12.0004 1C14.2095 1 16.0004 2.79086 16.0004 5C16.0004 7.20914 14.2095 9 12.0004 9C9.79124 8.99995 8.00035 7.20911 8.00035 5C8.00035 2.79089 9.79124 1.00005 12.0004 1Z" fill="#3C3C3C"/>
</svg>
