<svg width="24" height="24" viewBox="0 0 24 24" fill="none" xmlns="http://www.w3.org/2000/svg">
<path d="M9 19.5757C9 21.0944 7.76878 22.3257 6.25 22.3257C4.73122 22.3257 3.5 21.0944 3.5 19.5757V18.3257H9V19.5757Z" fill="#3C3C3C"/>
<path d="M19.5537 14.4244L19.3369 15.6558C19.0731 17.1512 17.6468 18.1498 16.1514 17.8863C14.6558 17.6226 13.6573 16.1963 13.9209 14.7007L14.1377 13.4693L19.5537 14.4244Z" fill="#3C3C3C"/>
<path d="M7.5 6.44683C9.49987 6.44683 10.4999 9.32571 10.5 11.3257C10.5 12.3257 9.99996 13.3259 9.5 14.8257L9 16.3257H3.5C3.49987 15.3257 3 13.8254 3 11.3257C3.00021 8.82584 4.99796 6.44683 7.5 6.44683Z" fill="#3C3C3C"/>
<path d="M13.876 6.31499C14.2234 4.3454 15.7081 1.68354 17.6777 2.03081C20.1418 2.46537 21.6958 5.15574 21.2617 7.61772C20.8276 10.0795 20.075 11.4699 19.9014 12.4546L14.4844 11.4996L14.2529 9.93608C14.0209 8.37205 13.7024 7.29979 13.876 6.31499Z" fill="#3C3C3C"/>
</svg>
