<svg width="24" height="24" viewBox="0 0 24 24" fill="none" xmlns="http://www.w3.org/2000/svg">
<path d="M7.0459 5.00007L6.18262 5.57527C4.87002 6.45035 4.68638 8.30737 5.80176 9.42293L6.09473 9.71589C7.00519 10.6264 8.34193 10.9638 9.5752 10.5938L12.0605 9.84773C12.2654 9.78642 12.487 9.86224 12.6113 10.0362L17.8779 17.4151C18.2166 17.8901 18.0784 18.5534 17.5781 18.8536L13.1689 21.4991C12.635 21.8194 11.9935 21.8676 11.4307 21.6544L12.085 20.5089C12.8375 19.192 12.6559 17.5402 11.6357 16.418L8.93359 13.4454C7.65071 12.0345 5.47421 11.9104 4.03906 13.1661L2.42383 14.5802C2.39891 14.602 2.37441 14.624 2.35059 14.6466C2.12515 14.3175 2 13.9241 2 13.5157V6.00007C2.00004 5.44783 2.44774 5.00007 3 5.00007H7.0459Z" fill="#3C3C3C"/>
<path d="M5.02734 14.295C5.84744 13.5775 7.09117 13.6479 7.82422 14.4542L10.5264 17.4268C11.1094 18.0681 11.2122 19.0122 10.7822 19.7647L10.0791 20.9962C9.77622 21.5263 9.07284 21.6634 8.59277 21.2862L3.45215 17.2471C2.9598 16.8601 2.94008 16.1215 3.41113 15.7091L5.02734 14.295Z" fill="#3C3C3C"/>
<path d="M12.416 3.22273C13.075 2.78344 13.9314 2.77411 14.5996 3.19929L18.7549 5.84382C18.9151 5.94577 19.1011 6 19.291 6.00007H20C20.5523 6.00007 21 6.4478 21 7.00007V14.0001C21 14.5524 20.5523 15.0001 20 15.0001H18L13.832 9.16414C13.3347 8.46797 12.4494 8.16545 11.6299 8.41121L9.14453 9.1573C8.43981 9.3687 7.67553 9.17561 7.15527 8.65535L6.8623 8.36238C6.41647 7.91613 6.4907 7.17326 7.01562 6.82332L12.416 3.22273Z" fill="#3C3C3C"/>
</svg>
