<svg width="24" height="24" viewBox="0 0 24 24" fill="none" xmlns="http://www.w3.org/2000/svg">
<path fill-rule="evenodd" clip-rule="evenodd" d="M11 2C15.0675 2 18.4258 5.03558 18.9336 8.96484L21.1846 12.5039C21.3325 12.7369 21.302 13.0845 20.959 13.2314L19 14.0713V17C19 18.1046 18.1046 19 17 19H15.001L15 22H6V18.3057C5.99997 17.125 5.56372 16.0084 4.75586 15.001C3.65743 13.6312 3 11.8924 3 10C3 5.58172 6.58172 2 11 2ZM14.0049 7.7627C13.3215 7.07938 12.2136 7.07932 11.5303 7.7627L11 8.29297L10.4697 7.7627C9.78631 7.07932 8.67853 7.07938 7.99512 7.7627C7.3117 8.44612 7.3117 9.55392 7.99512 10.2373L11 13.2422L14.0049 10.2373C14.6883 9.55392 14.6883 8.44612 14.0049 7.7627Z" fill="#3C3C3C"/>
</svg>
