<svg width="24" height="24" viewBox="0 0 24 24" fill="none" xmlns="http://www.w3.org/2000/svg">
<path d="M1.55371 6.9834C5.35671 8.71491 8 12.5488 8 17V22H6V17C6 13.3581 3.83723 10.2213 0.725586 8.80469L1.55371 6.9834Z" fill="#3C3C3C"/>
<path d="M23.2754 8.80469C20.1638 10.2213 18 13.3581 18 17V22H16V17C16 12.5488 18.6442 8.71489 22.4473 6.9834L23.2754 8.80469Z" fill="#3C3C3C"/>
<path d="M12 2C14.7615 2 17 4.23858 17 7C17 9.76142 14.7615 12 12 12C9.2388 11.9998 7 9.76129 7 7C7 4.23871 9.2388 2.00022 12 2Z" fill="#3C3C3C"/>
</svg>
