<svg width="24" height="24" viewBox="0 0 24 24" fill="none" xmlns="http://www.w3.org/2000/svg">
<path d="M22.5 14.5C22.5 19.3137 19.8137 21.5 16.5 21.5H15.5488C15.6546 19.9938 16.1234 19.082 17.3477 17.999C17.9495 17.4666 17.8992 17.1595 17.6025 17.3359C15.5607 18.5507 14.5469 20.1934 14.502 22.8154L14.5 23H13.5C13.5 22.3187 13.5578 21.6995 13.6729 21.1338C13.5576 20.4868 13.5 19.6086 13.5 18.5C13.5 15.7386 15.7386 13.5 18.5 13.5C19.5 13.5 20.5 14 22.5 13.5V14.5Z" fill="#3C3C3C"/>
<path d="M11.6504 17.5C11.552 17.9847 11.5 18.4863 11.5 19C11.5 19.5137 11.552 20.0153 11.6504 20.5H2.5V17.5H11.6504Z" fill="#3C3C3C"/>
<path d="M15.2607 12.5C14.0356 13.2063 13.0285 14.2472 12.3662 15.5H6.5V12.5H15.2607Z" fill="#3C3C3C"/>
<path d="M21.5 10.5H10.5V7.5H21.5V10.5Z" fill="#3C3C3C"/>
<path d="M21.5 5.5H14.5V2.5H21.5V5.5Z" fill="#3C3C3C"/>
</svg>
