<svg width="24" height="24" viewBox="0 0 24 24" fill="none" xmlns="http://www.w3.org/2000/svg">
<path fill-rule="evenodd" clip-rule="evenodd" d="M12 2.00293C17.5228 2.00293 22 6.48013 22 12.0029C21.9998 17.5257 17.5227 22.0029 12 22.0029C6.47725 22.0029 2.00016 17.5257 2 12.0029C2 6.48014 6.47715 2.00294 12 2.00293ZM12.5 7.00293C10.1837 7.00294 8.27606 8.75301 8.02734 11.0029H7V13.0029H8.02734C8.27619 15.2528 10.1838 17.0029 12.5 17.0029C13.8116 17.0029 14.992 16.4413 15.8145 15.5459L14.1143 14.4121C13.6788 14.7807 13.1152 15.0029 12.5 15.0029C11.2906 15.0029 10.2815 14.144 10.0498 13.0029H15V11.0029H10.0498C10.2814 9.86187 11.2905 9.00294 12.5 9.00293C13.1152 9.00293 13.6788 9.2252 14.1143 9.59375L15.8145 8.45898C14.992 7.56378 13.8115 7.00293 12.5 7.00293Z" fill="#3C3C3C"/>
</svg>
