<svg width="24" height="24" viewBox="0 0 24 24" fill="none" xmlns="http://www.w3.org/2000/svg">
<path fill-rule="evenodd" clip-rule="evenodd" d="M12 2C17.52 2 22 6.48 22 12C22 17.52 17.52 22 12 22C6.48 22 2 17.52 2 12C2 6.48 6.48 2 12 2ZM12.1602 13C9.78877 13 7.63105 13.917 6.02344 15.416C7.49095 17.6066 9.69557 19 12.1602 19C14.6246 18.9998 16.8285 17.6065 18.2959 15.416C16.6884 13.9171 14.5314 13.0001 12.1602 13ZM12 5C10.3431 5 9 6.34315 9 8C9 9.65685 10.3431 11 12 11C13.6569 11 15 9.65685 15 8C15 6.34315 13.6569 5 12 5Z" fill="#3C3C3C"/>
</svg>
