<svg width="24" height="24" viewBox="0 0 24 24" fill="none" xmlns="http://www.w3.org/2000/svg">
<path fill-rule="evenodd" clip-rule="evenodd" d="M20.2168 2.82617C20.6743 2.92782 20.9998 3.33323 21 3.80176V13.7891C20.9999 15.7951 19.9973 17.6685 18.3281 18.7812L12 23L5.67188 18.7812C4.00273 17.6685 3.00005 15.7951 3 13.7891V3.80176C3.00019 3.33323 3.3258 2.92782 3.7832 2.82617L12 1L20.2168 2.82617ZM12 7C10.8954 7 10 7.89543 10 9C10 9.74025 10.4023 10.3866 11 10.7324V15H13L13.001 10.7314C13.5981 10.3854 14 9.73981 14 9C14 7.89543 13.1046 7 12 7Z" fill="#3C3C3C"/>
</svg>
