<svg width="24" height="24" viewBox="0 0 24 24" fill="none" xmlns="http://www.w3.org/2000/svg">
<path fill-rule="evenodd" clip-rule="evenodd" d="M20.2168 2.82617C20.6743 2.92782 20.9998 3.33323 21 3.80176V13.7891C20.9999 15.7951 19.9973 17.6685 18.3281 18.7812L12 23L5.67188 18.7812C4.00273 17.6685 3.00005 15.7951 3 13.7891V3.80176C3.00019 3.33323 3.3258 2.92782 3.7832 2.82617L12 1L20.2168 2.82617ZM12 12C9.68372 12 7.77607 13.75 7.52734 16H16.4727C16.224 13.75 14.3163 12 12 12ZM12 6C10.6193 6 9.5 7.11929 9.5 8.5C9.5 9.88071 10.6193 11 12 11C13.3807 11 14.5 9.88071 14.5 8.5C14.5 7.11929 13.3807 6 12 6Z" fill="#3C3C3C"/>
</svg>
