<svg width="24" height="24" viewBox="0 0 24 24" fill="none" xmlns="http://www.w3.org/2000/svg">
<path fill-rule="evenodd" clip-rule="evenodd" d="M20.2168 2.82617C20.6743 2.92782 20.9998 3.33323 21 3.80176V13.7891C20.9999 15.7951 19.9973 17.6685 18.3281 18.7812L12 23L5.67188 18.7812C4.00273 17.6685 3.00005 15.7951 3 13.7891V3.80176C3.00019 3.33323 3.3258 2.92782 3.7832 2.82617L12 1L20.2168 2.82617ZM10.5303 8.97754L7.24512 9.45508L9.62207 11.7725L9.06152 15.0449L12 13.5L14.9385 15.0449L14.3779 11.7725L16.7549 9.45508L13.4697 8.97754L12 6L10.5303 8.97754Z" fill="#3C3C3C"/>
</svg>
