<svg width="24" height="24" viewBox="0 0 24 24" fill="none" xmlns="http://www.w3.org/2000/svg">
<path d="M8.39163 3.01182C8.40842 3.01291 8.42562 3.01448 8.44241 3.01572C8.50748 3.02051 8.5728 3.02738 8.63772 3.03428C8.66396 3.03707 8.69061 3.03993 8.71682 3.04307C8.78843 3.05164 8.86034 3.06122 8.93167 3.07236C8.9429 3.07412 8.95462 3.07544 8.96585 3.07725C9.04111 3.08946 9.11658 3.10317 9.19143 3.11826C9.23673 3.1274 9.28206 3.13834 9.32717 3.14854C9.3704 3.1583 9.41402 3.16808 9.45706 3.17881C9.48826 3.18659 9.51971 3.19493 9.55081 3.20322C9.79081 3.26721 10.0287 3.34531 10.2608 3.43955L10.2588 3.44053C10.4538 3.51967 10.6456 3.60969 10.833 3.71006L9.37893 6.90537L12.2754 8.79307L9.59573 11.4161L11.6504 12.6583L11.5733 14.9376L13.5098 12.4132L11.4551 11.171L14.878 8.44932L11.7461 6.21494L13.7041 3.4542C13.7161 3.44924 13.7282 3.44443 13.7403 3.43955L13.9444 3.36143C14.1102 3.30107 14.2787 3.24847 14.4483 3.20322C14.4793 3.19494 14.5109 3.18659 14.542 3.17881C14.5853 3.168 14.6294 3.15836 14.6729 3.14854C14.7177 3.13842 14.7627 3.12735 14.8076 3.11826C14.8825 3.10316 14.958 3.08947 15.0332 3.07725C15.0444 3.07542 15.0562 3.07411 15.0674 3.07236C15.1387 3.0612 15.2107 3.05165 15.2823 3.04307C15.3084 3.03992 15.3351 3.03708 15.3614 3.03428C15.4263 3.02737 15.4916 3.02053 15.5567 3.01572C15.5734 3.01448 15.5907 3.01292 15.6074 3.01182C15.7734 3.00099 15.9402 2.99816 16.1065 3.00107C16.1418 3.00169 16.1776 3.0018 16.2129 3.00303C16.2662 3.00491 16.3198 3.00852 16.3731 3.01182C16.4055 3.01381 16.4384 3.01517 16.4707 3.01768C16.5368 3.02284 16.6031 3.02986 16.669 3.03721C16.6834 3.03882 16.6984 3.03942 16.7129 3.04111C16.7979 3.05123 16.8832 3.0635 16.9678 3.07725C16.9869 3.08034 17.0063 3.08373 17.0254 3.08701C17.086 3.09746 17.1468 3.10888 17.2071 3.12119C17.2468 3.12929 17.2866 3.13864 17.3262 3.14756C17.3509 3.15312 17.3758 3.15925 17.4004 3.16514C17.4863 3.18564 17.5721 3.20818 17.6573 3.23252C17.7031 3.24564 17.7494 3.25834 17.7949 3.27256C17.8072 3.27639 17.8198 3.28037 17.8321 3.28428C17.895 3.3044 17.9581 3.3255 18.0205 3.34775C18.0587 3.36137 18.0968 3.37631 18.1348 3.39072C18.1739 3.40557 18.2132 3.42093 18.252 3.43662C18.292 3.45281 18.3323 3.46934 18.3721 3.48643C18.5179 3.54912 18.6622 3.61768 18.8037 3.69248C18.8413 3.71236 18.8788 3.73326 18.916 3.754C18.953 3.77457 18.9898 3.79607 19.0264 3.81748C19.0678 3.84173 19.1094 3.86637 19.1504 3.8917C19.1828 3.91171 19.215 3.93254 19.2471 3.95322C19.2832 3.97649 19.3198 3.99942 19.3555 4.02354C19.4222 4.06861 19.4885 4.11514 19.5537 4.16318C19.5814 4.18362 19.6083 4.20568 19.6358 4.22666C19.68 4.26044 19.7241 4.295 19.7676 4.33018C19.79 4.3483 19.8128 4.36637 19.835 4.38486C19.8913 4.43175 19.947 4.48013 20.002 4.52939C20.0125 4.53887 20.0237 4.54815 20.0342 4.55772C20.1049 4.622 20.1749 4.68867 20.2432 4.75693C22.5045 7.0186 22.5828 10.6364 20.4785 12.9923L12 21.4845L3.52151 12.9923C3.45575 12.9187 3.3916 12.8437 3.3301 12.7677C1.42422 10.4116 1.56656 6.94781 3.75686 4.75693C3.82492 4.68887 3.89442 4.62182 3.96487 4.55772C3.97551 4.54801 3.98736 4.53899 3.99807 4.52939C4.05279 4.48032 4.10804 4.43157 4.16409 4.38486C4.18621 4.3664 4.20914 4.34826 4.23147 4.33018C4.2749 4.29504 4.31914 4.26041 4.36331 4.22666C4.39068 4.20572 4.41769 4.1836 4.44534 4.16318C4.51049 4.11517 4.57697 4.06858 4.64358 4.02354C4.67918 3.99945 4.71598 3.97645 4.75198 3.95322C4.78399 3.93258 4.81635 3.91168 4.84866 3.8917C4.88957 3.8664 4.9313 3.8417 4.97268 3.81748C5.00922 3.7961 5.04615 3.77455 5.08303 3.754C5.12023 3.73329 5.1578 3.71235 5.19534 3.69248C5.33676 3.61769 5.48121 3.54913 5.62698 3.48643C5.66669 3.46935 5.70709 3.45279 5.7471 3.43662C5.78587 3.42094 5.82525 3.40556 5.86428 3.39072C5.9022 3.37632 5.9404 3.36137 5.97854 3.34775C6.0409 3.3255 6.1041 3.3044 6.16702 3.28428C6.17922 3.28038 6.1919 3.27638 6.20413 3.27256C6.24963 3.25833 6.29605 3.24563 6.34182 3.23252C6.42689 3.20817 6.5128 3.18565 6.59866 3.16514C6.62324 3.15926 6.64824 3.15313 6.67288 3.14756C6.71242 3.13865 6.75233 3.1293 6.79202 3.12119C6.85226 3.10887 6.91313 3.09747 6.97366 3.08701C6.9927 3.08373 7.0122 3.08035 7.03128 3.07725C7.11587 3.06348 7.20115 3.05124 7.28616 3.04111C7.30061 3.0394 7.31564 3.03879 7.3301 3.03721C7.39597 3.02985 7.46231 3.02286 7.52835 3.01768C7.56071 3.01515 7.59361 3.01381 7.626 3.01182C7.67923 3.00851 7.73288 3.00492 7.78616 3.00303C7.8218 3.00178 7.85792 3.00169 7.89358 3.00107C8.05951 2.99816 8.22596 3.00105 8.39163 3.01182Z" fill="#3C3C3C"/>
</svg>
