<svg width="24" height="24" viewBox="0 0 24 24" fill="none" xmlns="http://www.w3.org/2000/svg">
<path fill-rule="evenodd" clip-rule="evenodd" d="M12 2C17.5228 2 22 6.47715 22 12C22 17.5228 17.5228 22 12 22C6.47715 22 2 17.5228 2 12C2 6.47715 6.47715 2 12 2ZM14.2373 13.9404C13.6875 14.5874 12.8708 15 11.9551 15C11.0557 15 10.25 14.6034 9.7002 13.9766L7.94824 14.9883C8.85977 16.2089 10.3145 17 11.9551 17C13.6119 17 15.0768 16.1916 15.9863 14.9502L14.2373 13.9404ZM8 8C7.17157 8 6.5 8.67157 6.5 9.5C6.5 10.3284 7.17157 11 8 11C8.82843 11 9.5 10.3284 9.5 9.5C9.5 8.67157 8.82843 8 8 8ZM16 8C15.1716 8 14.5 8.67157 14.5 9.5C14.5 10.3284 15.1716 11 16 11C16.8284 11 17.5 10.3284 17.5 9.5C17.5 8.67157 16.8284 8 16 8Z" fill="#3C3C3C"/>
</svg>
