<svg width="24" height="24" viewBox="0 0 24 24" fill="none" xmlns="http://www.w3.org/2000/svg">
<path d="M16 3C16.5523 3 17 3.44772 17 4V15.5859C17 15.8511 16.8945 16.1055 16.707 16.293L10.3066 22.6934C10.1308 22.8692 9.85236 22.8892 9.65332 22.7402L8.80078 22.1006C8.31608 21.7371 8.0976 21.1174 8.24707 20.5303L9.40039 16H3C1.89543 16 1 15.1046 1 14V11.8955C1.00003 11.6343 1.05096 11.3752 1.15039 11.1338L4.24512 3.61914C4.39944 3.24451 4.76475 3 5.16992 3H16Z" fill="#3C3C3C"/>
<path d="M22 3C22.5523 3 23 3.44772 23 4V14C23 14.5523 22.5523 15 22 15H19V3H22Z" fill="#3C3C3C"/>
</svg>
