<svg width="24" height="24" viewBox="0 0 24 24" fill="none" xmlns="http://www.w3.org/2000/svg">
<path d="M5 21.0001H2C1.44772 21.0001 1 20.5524 1 20.0001V10.0001C1.00002 9.44779 1.44773 9.00006 2 9.00006H5V21.0001Z" fill="#3C3C3C"/>
<path d="M13.6934 1.3067C13.8692 1.13085 14.1477 1.11083 14.3467 1.25982L15.1992 1.89947C15.6839 2.26299 15.9024 2.88265 15.7529 3.46978L14.5996 8.00006H21C22.1046 8.00006 23 8.8955 23 10.0001V12.1045C23 12.3658 22.949 12.6248 22.8496 12.8663L19.7549 20.3809C19.6006 20.7556 19.2352 21.0001 18.8301 21.0001H8C7.44772 21.0001 7 20.5524 7 20.0001V8.41412C7.00005 8.14897 7.10549 7.89458 7.29297 7.70709L13.6934 1.3067Z" fill="#3C3C3C"/>
</svg>
