<svg width="108" height="108" viewBox="0 0 108 108" fill="none" xmlns="http://www.w3.org/2000/svg">
<rect width="108" height="108" rx="24" fill="#007347"/>
<path d="M86.499 57.9825C87.6041 57.9826 88.5 58.8766 88.5 59.9796V74.503C88.5 75.606 87.6041 76.5001 86.499 76.5001H21.501C20.3959 76.5001 19.5 75.606 19.5 74.503V59.9796C19.5 58.8766 20.3959 57.9826 21.501 57.9825H86.499Z" fill="black"/>
<path d="M52.7715 28.6652C53.5719 28.4448 54.4212 28.4448 55.2285 28.6652L87.0371 37.4874C87.8996 37.7285 88.5 38.514 88.5 39.4093V53.4093C88.5 54.5112 87.603 55.4064 86.499 55.4064L21.501 55.3859C20.397 55.3858 19.5 54.4975 19.5 53.3956V39.3946C19.5002 38.4995 20.1005 37.7079 20.9629 37.4738V37.4669L52.7715 28.6652Z" fill="black"/>
</svg>
