<svg width="64" height="64" viewBox="0 0 64 64" fill="none" xmlns="http://www.w3.org/2000/svg">
<path d="M54.608 35.2692C55.3768 35.2692 56 35.8839 56 36.6422V46.627C56 47.3853 55.3768 48 54.608 48H9.39198C8.62321 48 8 47.3853 8 46.627V36.6422C8 35.8839 8.62321 35.2692 9.39198 35.2692H54.608Z" fill="black"/>
<path d="M31.1454 15.1136C31.7022 14.9621 32.293 14.9621 32.8546 15.1136L54.9823 21.1789C55.5823 21.3446 56 21.8847 56 22.5002V32.1251C56 32.8827 55.376 33.4981 54.608 33.4981L9.39198 33.484C8.62399 33.484 8 32.8733 8 32.1157V22.4901C8.00012 21.8747 8.41775 21.3305 9.01766 21.1695V21.1648L31.1454 15.1136Z" fill="black"/>
</svg>
