<svg width="108" height="108" viewBox="0 0 108 108" fill="none" xmlns="http://www.w3.org/2000/svg">
<rect width="108" height="108" rx="24" fill="#00D780"/>
<path d="M32.3999 30.9C32.3999 24.9353 37.2352 20.1 43.1999 20.1H53.9999V41.7H43.1999C37.2352 41.7 32.3999 36.8646 32.3999 30.9V30.9Z" fill="#3C3C3C"/>
<path d="M32.3999 52.5C32.3999 46.5353 37.2352 41.7 43.1999 41.7H53.9999V63.3H43.1999C37.2352 63.3 32.3999 58.4646 32.3999 52.5V52.5Z" fill="#242424"/>
<path d="M54 20.1H64.8C70.7647 20.1 75.6 24.9353 75.6 30.9V30.9C75.6 36.8646 70.7647 41.7 64.8 41.7H54V20.1Z" fill="black"/>
<rect x="54" y="41.7" width="21.6" height="21.6" rx="10.8" fill="#3C3C3C"/>
<path d="M32.3999 74.1C32.3999 68.1354 37.2352 63.3 43.1999 63.3H53.9999V74.1C53.9999 80.0647 49.1646 84.9 43.1999 84.9V84.9C37.2352 84.9 32.3999 80.0647 32.3999 74.1V74.1Z" fill="black"/>
</svg>
