<svg width="64" height="64" viewBox="0 0 64 64" fill="none" xmlns="http://www.w3.org/2000/svg">
<path d="M16.1 16C16.1 11.5817 19.6817 8 24.1 8H32.1V24H24.1C19.6817 24 16.1 20.4183 16.1 16Z" fill="#3C3C3C"/>
<path d="M16.1001 32C16.1001 27.5817 19.6818 24 24.1001 24H32.1001V40H24.1001C19.6818 40 16.1001 36.4183 16.1001 32V32Z" fill="#242424"/>
<path d="M32.1001 8.00002H40.1001C44.5183 8.00002 48.1001 11.5817 48.1001 16V16C48.1001 20.4183 44.5183 24 40.1001 24H32.1001V8.00002Z" fill="black"/>
<rect x="32.1001" y="24" width="16" height="16" rx="8" fill="#3C3C3C"/>
<path d="M16.1001 48C16.1001 43.5817 19.6818 40 24.1001 40H32.1001V48C32.1001 52.4183 28.5183 56 24.1001 56V56C19.6818 56 16.1001 52.4183 16.1001 48V48Z" fill="black"/>
</svg>
