<svg width="24" height="24" viewBox="0 0 24 24" fill="none" xmlns="http://www.w3.org/2000/svg">
<path d="M11.5996 13.5332C11.7653 13.3123 12.0789 13.2679 12.2998 13.4336C12.3377 13.4621 12.372 13.4953 12.4004 13.5332L17.4004 20.2002C17.5658 20.4211 17.5206 20.7348 17.2998 20.9004C17.2134 20.9651 17.1081 21 17 21H7C6.72386 21 6.5 20.7761 6.5 20.5C6.5 20.3919 6.53485 20.2866 6.59961 20.2002L11.5996 13.5332Z" fill="#3C3C3C"/>
<path d="M21.0078 3C21.5556 3 22 3.44474 22 4.00098V17.999C22 18.5518 21.5443 19 21.0078 19H18V17H20V5H4V17H6V19H2.99219C2.44444 19 2 18.5553 2 17.999V4.00098C2 3.44822 2.4557 3 2.99219 3H21.0078Z" fill="#3C3C3C"/>
</svg>
