<svg width="24" height="24" viewBox="0 0 24 24" fill="none" xmlns="http://www.w3.org/2000/svg">
<path d="M12 10C13.1046 10 14 10.8954 14 12C14 13.1046 13.1046 14 12 14C10.8954 14 10 13.1046 10 12C10 10.8954 10.8954 10 12 10Z" fill="#3C3C3C"/>
<path fill-rule="evenodd" clip-rule="evenodd" d="M12 2C17.5228 2 22 6.47715 22 12C22 17.5228 17.5228 22 12 22C6.47715 22 2 17.5228 2 12C2 6.47715 6.47715 2 12 2ZM12 4C7.58172 4 4 7.58172 4 12C4 16.4183 7.58172 20 12 20C13.4701 20 14.8475 19.6031 16.0312 18.9111L15.0234 17.1836C14.1357 17.7026 13.1026 18 12 18C8.68629 18 6 15.3137 6 12C6 8.68629 8.68629 6 12 6C15.3137 6 18 8.68629 18 12V13C18 13.5523 17.5523 14 17 14C16.4477 14 16 13.5523 16 13V9H14.6455C13.9404 8.37773 13.0143 8 12 8C9.79086 8 8 9.79086 8 12C8 14.2091 9.79086 16 12 16C13.0465 16 13.9991 15.5982 14.7119 14.9404C15.2622 15.5886 16.0831 16 17 16C18.6569 16 20 14.6569 20 13V12C20 7.58172 16.4183 4 12 4Z" fill="#3C3C3C"/>
</svg>
