<svg width="24" height="24" viewBox="0 0 24 24" fill="none" xmlns="http://www.w3.org/2000/svg">
<path fill-rule="evenodd" clip-rule="evenodd" d="M18.6543 7.65723L14.3115 12L18.6543 16.3428L12.998 22H10.998V15.3135L6.63379 19.6777L5.21973 18.2637L10.998 12.4854V11.5146L5.21973 5.73633L6.63379 4.32227L10.998 8.68652V2H12.998L18.6543 7.65723ZM12.998 19.1719L15.8262 16.3428L12.998 13.5146V19.1719ZM12.998 10.4854L15.8262 7.65723L12.998 4.82812V10.4854Z" fill="#3C3C3C"/>
<path d="M6.5 10.5C7.32843 10.5 8 11.1716 8 12C8 12.8284 7.32843 13.5 6.5 13.5C5.67157 13.5 5 12.8284 5 12C5 11.1716 5.67157 10.5 6.5 10.5Z" fill="#3C3C3C"/>
<path d="M19.5 10.5C20.3284 10.5 21 11.1716 21 12C21 12.8284 20.3284 13.5 19.5 13.5C18.6716 13.5 18 12.8284 18 12C18 11.1716 18.6716 10.5 19.5 10.5Z" fill="#3C3C3C"/>
</svg>
