<svg width="24" height="24" viewBox="0 0 24 24" fill="none" xmlns="http://www.w3.org/2000/svg">
<path d="M8 5H4V12C9.22013 12 13.6616 14.4616 15.3125 19H17.4092C16.6332 16.6012 15.1325 15.1143 13.1436 13.3975C15.0239 11.8968 17.4072 11 20 11V3H21.0078C21.5555 3 21.9999 3.44482 22 3.99316V20.0068C21.9999 20.5553 21.5442 21 21.0078 21H2.99219C2.44452 21 2.00013 20.5552 2 20.0068V3.99316C2.00013 3.44463 2.45577 3 2.99219 3H6V1H8V5Z" fill="#3C3C3C"/>
<path d="M16.5 7C17.3284 7 18 7.67157 18 8.5C18 9.32843 17.3284 10 16.5 10C15.6716 10 15 9.32843 15 8.5C15 7.67157 15.6716 7 16.5 7Z" fill="#3C3C3C"/>
<path d="M18 5H10V3H16V1H18V5Z" fill="#3C3C3C"/>
</svg>
