<svg width="24" height="24" viewBox="0 0 24 24" fill="none" xmlns="http://www.w3.org/2000/svg">
<path d="M15 22H9L12 16L15 22Z" fill="#3C3C3C"/>
<path d="M12 2C17.5228 2 22 6.47715 22 12C22 15.7554 19.9296 19.0278 16.8682 20.7373L15.5244 18.0488C17.6031 16.835 19 14.5808 19 12C19 8.13401 15.866 5 12 5C8.13401 5 5 8.13401 5 12C5 14.5808 6.39686 16.835 8.47559 18.0488L7.13184 20.7373C4.07045 19.0278 2 15.7554 2 12C2 6.47715 6.47715 2 12 2Z" fill="#3C3C3C"/>
<path d="M12 7C14.7614 7 17 9.23858 17 12C17 13.7976 16.051 15.3738 14.627 16.2549L13.2715 13.5439C13.7162 13.1771 14 12.6215 14 12C14 10.8954 13.1046 10 12 10C10.8954 10 10 10.8954 10 12C10 12.6215 10.2838 13.1771 10.7285 13.5439L9.37305 16.2549C7.9491 15.3738 7 13.7976 7 12C7 9.23858 9.23858 7 12 7Z" fill="#3C3C3C"/>
</svg>
