<svg width="24" height="24" viewBox="0 0 24 24" fill="none" xmlns="http://www.w3.org/2000/svg">
<path d="M8 7C9.10457 7 10 7.89543 10 9C10 10.1046 9.10457 11 8 11C6.89543 11 6 10.1046 6 9C6 7.89543 6.89543 7 8 7Z" fill="#3C3C3C"/>
<path fill-rule="evenodd" clip-rule="evenodd" d="M21.0078 3C21.5555 3 21.9999 3.44482 22 3.99316V20.0068C21.9999 20.5553 21.5442 21 21.0078 21H2.99219C2.44452 21 2.00013 20.5552 2 20.0068V3.99316C2.00013 3.44463 2.45577 3 2.99219 3H21.0078ZM4 19L13.292 9.70605C13.6824 9.31571 14.3154 9.31598 14.7061 9.70605L20 15.0107V5H4V19Z" fill="#3C3C3C"/>
</svg>
