<svg width="24" height="24" viewBox="0 0 24 24" fill="none" xmlns="http://www.w3.org/2000/svg">
<path d="M11.1836 3.66821C11.3973 3.49337 11.7118 3.52484 11.8867 3.73853C11.9598 3.82785 12 3.93953 12 4.05493V19.9446C12 20.2208 11.7761 20.4446 11.5 20.4446C11.3846 20.4446 11.2729 20.4044 11.1836 20.3313L5.88867 16.0002H2C1.44784 16.0002 1.0002 15.5524 1 15.0002V9.00025C1 8.44796 1.44772 8.00025 2 8.00025H5.88867L11.1836 3.66821Z" fill="#3C3C3C"/>
<path d="M23.9492 8.46411L20.4141 12.0002L23.9492 15.5354L22.5352 16.9495L19 13.4143L15.4648 16.9495L14.0508 15.5354L17.5859 12.0002L14.0508 8.46411L15.4648 7.05005L19 10.5852L22.5352 7.05005L23.9492 8.46411Z" fill="#3C3C3C"/>
</svg>
