<svg width="24" height="24" viewBox="0 0 24 24" fill="none" xmlns="http://www.w3.org/2000/svg">
<path fill-rule="evenodd" clip-rule="evenodd" d="M11 21H3V13H11V21ZM6 18H8V16H6V18Z" fill="#3C3C3C"/>
<path d="M16 15H18V17H17V19H15V21H13V18H15V17H16V16H13V13H16V15Z" fill="#3C3C3C"/>
<path d="M21 21H17V19H19V17H21V21Z" fill="#3C3C3C"/>
<path d="M21 15H18V13H21V15Z" fill="#3C3C3C"/>
<path fill-rule="evenodd" clip-rule="evenodd" d="M11 11H3V3H11V11ZM6 8H8V6H6V8Z" fill="#3C3C3C"/>
<path fill-rule="evenodd" clip-rule="evenodd" d="M21 11H13V3H21V11ZM16 8H18V6H16V8Z" fill="#3C3C3C"/>
</svg>
