<svg width="24" height="24" viewBox="0 0 24 24" fill="none" xmlns="http://www.w3.org/2000/svg">
<path d="M2 18C3.65685 18 5 19.3431 5 21H2V18Z" fill="#3C3C3C"/>
<path d="M2 14C5.86599 14 9 17.134 9 21H7C7 18.2386 4.76142 16 2 16V14Z" fill="#3C3C3C"/>
<path d="M2 10C8.07513 10 13 14.9249 13 21H11C11 16.0294 6.97056 12 2 12V10Z" fill="#3C3C3C"/>
<path d="M21 3C21.5523 3 22 3.44772 22 4V20C22 20.5523 21.5523 21 21 21H15C15 20.3199 14.9474 19.6519 14.8467 19H20V5H4V8.15332C3.34806 8.05265 2.68013 8 2 8V4C2 3.44772 2.44772 3 3 3H21Z" fill="#3C3C3C"/>
<path d="M18 17H14.373C13.093 13.0376 9.9624 9.90699 6 8.62695V7H18V17Z" fill="#3C3C3C"/>
</svg>
