<svg width="24" height="24" viewBox="0 0 24 24" fill="none" xmlns="http://www.w3.org/2000/svg">
<path d="M11.1836 3.66821C11.3973 3.49337 11.7118 3.52484 11.8867 3.73853C11.9598 3.82785 12 3.93953 12 4.05493V19.9446C12 20.2208 11.7761 20.4446 11.5 20.4446C11.3846 20.4446 11.2729 20.4044 11.1836 20.3313L5.88867 16.0002H2C1.44784 16.0002 1.0002 15.5524 1 15.0002V9.00025C1 8.44796 1.44772 8.00025 2 8.00025H5.88867L11.1836 3.66821Z" fill="#3C3C3C"/>
<path d="M19.2617 3.73755C21.5534 5.75344 23 8.7082 23 12.0002C22.9999 15.2921 21.5533 18.2462 19.2617 20.262L17.8447 18.844C19.7758 17.1934 20.9999 14.7398 21 12.0002C21 9.26051 19.7759 6.80624 17.8447 5.15552L19.2617 3.73755Z" fill="#3C3C3C"/>
<path d="M15.7129 7.28638C17.1056 8.38513 18 10.0885 18 12.0002C17.9999 13.9117 17.1055 15.6145 15.7129 16.7131L14.2842 15.2834C15.3211 14.5608 15.9998 13.36 16 12.0002C16 10.6403 15.3212 9.43879 14.2842 8.71607L15.7129 7.28638Z" fill="#3C3C3C"/>
</svg>
