<svg width="24" height="24" viewBox="0 0 24 24" fill="none" xmlns="http://www.w3.org/2000/svg">
<path d="M14.1836 3.66821C14.3973 3.49337 14.7118 3.52484 14.8867 3.73853C14.9598 3.82785 15 3.93953 15 4.05493V19.9446C15 20.2208 14.7761 20.4446 14.5 20.4446C14.3846 20.4446 14.2729 20.4044 14.1836 20.3313L8.88867 16.0002H5C4.44784 16.0002 4.0002 15.5524 4 15.0002V9.00025C4 8.44796 4.44772 8.00025 5 8.00025H8.88867L14.1836 3.66821Z" fill="#3C3C3C"/>
<path d="M18.5586 7.16919C20.0393 8.26179 21 10.0188 21 12.0002C20.9999 13.8422 20.1699 15.4905 18.8633 16.5911L17.4414 15.1692C18.3894 14.4378 18.9999 13.2902 19 12.0002C19 10.5698 18.2491 9.31477 17.1201 8.60767L18.5586 7.16919Z" fill="#3C3C3C"/>
</svg>
