<svg width="24" height="24" viewBox="0 0 24 24" fill="none" xmlns="http://www.w3.org/2000/svg">
<path fill-rule="evenodd" clip-rule="evenodd" d="M15 3C17.2091 3 19 4.79086 19 7C19 7.72903 18.8046 8.41238 18.4639 9.00098L23 9V11H21V21C21 21.5523 20.5523 22 20 22H4C3.44772 22 3.00001 21.5523 3 21V11H1V9L5.53613 9.00098C5.1954 8.41238 5 7.72903 5 7C5 4.79086 6.79086 3 9 3C10.1952 3 11.2681 3.52442 12.001 4.35547C12.7321 3.52442 13.8048 3.00001 15 3ZM11 21H13V11H11V21ZM9 5C7.89543 5 7 5.89543 7 7C7 8.0543 7.81581 8.9177 8.85059 8.99414L9 9H11V7C11 5.99835 10.2637 5.16838 9.30273 5.02246L9.14941 5.00586L9 5ZM15 5C13.9457 5.00001 13.0822 5.81582 13.0059 6.85059L13 7V9H15C16.0542 9 16.9177 8.18419 16.9941 7.14941L17 7C17 5.89543 16.1046 5 15 5Z" fill="#3C3C3C"/>
</svg>
