<svg width="24" height="24" viewBox="0 0 24 24" fill="none" xmlns="http://www.w3.org/2000/svg">
<path fill-rule="evenodd" clip-rule="evenodd" d="M12 7C16.4183 7 20 10.5817 20 15C20 19.4183 16.4183 23 12 23C7.58172 23 4 19.4183 4 15C4 10.5817 7.58172 7 12 7ZM10.6777 13.1797L7.7207 13.6094L9.86035 15.6953L9.35449 18.6406L12 17.25L14.6445 18.6406L14.1396 15.6953L16.2803 13.6094L13.3223 13.1797L12 10.5L10.6777 13.1797Z" fill="#3C3C3C"/>
<path d="M18 2V5L16.6367 6.1377C15.5306 5.55785 14.3024 5.17916 13.001 5.0498L13 1.99902L18 2Z" fill="#3C3C3C"/>
<path d="M11 5.0498C9.69871 5.17903 8.4703 5.55705 7.36426 6.13672L6 5V2L11 1.99902V5.0498Z" fill="#3C3C3C"/>
</svg>
