<svg width="24" height="24" viewBox="0 0 24 24" fill="none" xmlns="http://www.w3.org/2000/svg">
<path d="M9.24414 13H7.55176L8.39941 10.8848L9.24414 13Z" fill="#3C3C3C"/>
<path d="M17 14H16C15.4477 14 15 13.5523 15 13C15 12.4477 15.4477 12 16 12H17V14Z" fill="#3C3C3C"/>
<path fill-rule="evenodd" clip-rule="evenodd" d="M21 3C21.5523 3 22 3.44772 22 4V20C22 20.5523 21.5523 21 21 21H3C2.44772 21 2 20.5523 2 20V4C2 3.44772 2.44772 3 3 3H21ZM7.39941 8L5.39941 13L5.39844 13.002L4.19922 16H6.35254L6.75293 15H10.043L10.4434 16H12.5977L9.39941 8H7.39941ZM17 8V10H16C14.3431 10 13 11.3431 13 13C13 14.6569 14.3431 16 16 16H19V8H17Z" fill="#3C3C3C"/>
</svg>
