<svg width="24" height="24" viewBox="0 0 24 24" fill="none" xmlns="http://www.w3.org/2000/svg">
<path fill-rule="evenodd" clip-rule="evenodd" d="M12 2C16.6944 2 20.5 5.80558 20.5 10.5C20.5 17 15 22.5 12 22.5C9 22.5 3.5 17 3.5 10.5C3.5 5.80558 7.30558 2 12 2ZM6.5 12C6.33963 12 6.18087 12.0086 6.02441 12.0254C6.00807 12.1813 6 12.3397 6 12.5C6 14.9853 8.01472 17 10.5 17C10.6603 17 10.8189 16.9916 10.9756 16.9746C10.9919 16.8186 11 16.6603 11 16.5C11 14.0147 8.98528 12 6.5 12ZM17.5 12C15.0147 12 13 14.0147 13 16.5C13 16.6603 13.0086 16.819 13.0254 16.9756C13.1813 16.992 13.3397 17 13.5 17C15.9853 17 18 14.9853 18 12.5C18 12.3396 17.9916 12.1809 17.9746 12.0244C17.8186 12.0081 17.6603 12 17.5 12Z" fill="#3C3C3C"/>
</svg>
