<svg width="24" height="24" viewBox="0 0 24 24" fill="none" xmlns="http://www.w3.org/2000/svg">
<path fill-rule="evenodd" clip-rule="evenodd" d="M12 2C14.2091 2 16 3.79086 16 6C16 7.86384 14.7252 9.42998 13 9.87402V19.9277C16.6186 19.4742 19.4872 16.5924 19.9385 12.9561H17L20.7041 7C21.5289 8.46132 22 10.1511 22 11.9512C21.9999 17.501 17.5227 22 12 22C6.47724 22 2.00015 17.501 2 11.9512C2 10.1511 2.47105 8.46132 3.2959 7L7 12.9561H4.06152C4.51285 16.5924 7.38136 19.4742 11 19.9277V9.87402C9.27477 9.42998 8 7.86384 8 6C8 3.79086 9.79086 2 12 2ZM12 4C10.8954 4 10 4.89543 10 6C10 7.10457 10.8954 8 12 8C13.1046 8 14 7.10457 14 6C14 4.89543 13.1046 4 12 4Z" fill="#3C3C3C"/>
</svg>
