<svg width="24" height="24" viewBox="0 0 24 24" fill="none" xmlns="http://www.w3.org/2000/svg">
<path fill-rule="evenodd" clip-rule="evenodd" d="M14.4151 3.30759C16.4894 2.57157 18.7253 2.46161 20.1319 3.86814C21.5385 5.27479 21.4285 7.5106 20.6925 9.58494C20.4145 10.3683 20.03 11.1802 19.5528 12C20.03 12.8198 20.4145 13.6317 20.6925 14.415C21.4285 16.4894 21.5385 18.7252 20.1319 20.1318C18.7253 21.5384 16.4895 21.4283 14.4151 20.6924C13.6318 20.4144 12.8198 20.0299 12.0001 19.5527C11.1803 20.03 10.3684 20.4144 9.58505 20.6924C7.51072 21.4283 5.27491 21.5383 3.86825 20.1318C2.46177 18.7253 2.57176 16.4903 3.30771 14.416C3.5857 13.6326 3.96914 12.8198 4.44638 12C3.96916 11.1802 3.58569 10.3674 3.30771 9.58396C2.57174 7.50967 2.46168 5.27472 3.86825 3.86814C5.27483 2.46161 7.5098 2.57163 9.58407 3.30759C10.3674 3.58558 11.1803 3.96906 12.0001 4.44626C12.8197 3.96917 13.6319 3.58554 14.4151 3.30759ZM5.70321 13.8838C5.50089 14.2955 5.33001 14.6972 5.19247 15.0849C4.52118 16.9769 4.73646 18.1717 5.28232 18.7177C5.82826 19.2635 7.02328 19.4797 8.91513 18.8086C9.30255 18.6711 9.70381 18.4981 10.1153 18.2959C9.31279 17.6913 8.51867 17.0038 7.75692 16.2422C6.99507 15.4803 6.30788 14.6865 5.70321 13.8838ZM18.296 13.8838C17.6912 14.6865 17.0042 15.4811 16.2423 16.2431C15.4805 17.0048 14.6864 17.6913 13.8839 18.2959C14.2956 18.4982 14.6975 18.6701 15.085 18.8076C16.977 19.4788 18.172 19.2636 18.7179 18.7177C19.2637 18.1718 19.4789 16.9768 18.8077 15.0849C18.6701 14.6972 18.4983 14.2955 18.296 13.8838ZM12.0001 9.99997C10.8955 9.99997 10.0001 10.8954 10.0001 12C10.0001 13.1046 10.8955 14 12.0001 14C13.1046 14 14.0001 13.1045 14.0001 12C14.0001 10.8954 13.1046 10 12.0001 9.99997ZM8.91513 5.19236C7.02299 4.52103 5.82827 4.7363 5.28232 5.2822C4.7364 5.82814 4.52113 7.02283 5.19247 8.91501C5.32992 9.30235 5.50106 9.70382 5.70321 10.1152C6.30788 9.31257 6.99604 8.51965 7.7579 7.75779C8.51978 6.99592 9.31265 6.30777 10.1153 5.7031C9.70393 5.50096 9.30245 5.3298 8.91513 5.19236ZM18.7179 5.2822C18.172 4.73636 16.977 4.52118 15.085 5.19236C14.6976 5.32987 14.2955 5.50081 13.8839 5.7031C14.6866 6.30776 15.4803 6.99495 16.2423 7.75681C17.004 8.51856 17.6914 9.31268 18.296 10.1152C18.4981 9.70393 18.6703 9.30324 18.8077 8.91599C19.479 7.0239 19.2638 5.82819 18.7179 5.2822Z" fill="#3C3C3C"/>
</svg>
