<svg width="24" height="24" viewBox="0 0 24 24" fill="none" xmlns="http://www.w3.org/2000/svg">
<path fill-rule="evenodd" clip-rule="evenodd" d="M17.5 2C19.9853 2 22 4.01472 22 6.5C22 7.85621 21.4002 9.07243 20.4512 9.89746C20.8061 10.8645 21 11.9097 21 13C21 17.9706 16.9706 22 12 22C7.02944 22 3 17.9706 3 13C3 11.9097 3.19367 10.8646 3.54883 9.89746C2.59965 9.07255 2 7.85618 2 6.5C2 4.01472 4.01472 2 6.5 2C8.12548 2 9.54997 2.86166 10.3408 4.15332C10.8775 4.05224 11.4327 4 12 4C12.5674 4 13.1228 4.05289 13.6611 4.15332C14.4504 2.86227 15.8745 2 17.5 2ZM8 13C8 15.2091 9.79086 17 12 17C14.2091 17 16 15.2091 16 13H14C14 14.1046 13.1046 15 12 15C10.8954 15 10 14.1046 10 13H8Z" fill="#3C3C3C"/>
</svg>
