<svg width="24" height="24" viewBox="0 0 24 24" fill="none" xmlns="http://www.w3.org/2000/svg">
<path fill-rule="evenodd" clip-rule="evenodd" d="M9.5 1C10.0369 1 10.5491 1.10615 11.0166 1.29785C11.6403 1.55361 12.1855 1.96248 12.6045 2.47754C13.1687 2.17341 13.8143 2 14.5 2C16.7091 2 18.5 3.79086 18.5 6C18.5 7.01431 18.1214 7.94109 17.5 8.64551V9H19.5C20.6046 9 21.5 9.89543 21.5 11V18C21.5 19.1046 20.6046 20 19.5 20H17.5C17.5 21.1046 16.6046 22 15.5 22H5.5C4.39543 22 3.5 21.1046 3.5 20V8.23633C2.88625 7.68701 2.5 6.8885 2.5 6C2.5 4.34315 3.84315 3 5.5 3C5.67386 3 5.8446 3.01441 6.01074 3.04297C6.69585 1.82383 8.00103 1 9.5 1ZM7.5 11V18H9.5V11H7.5ZM11.5 11V18H13.5V11H11.5ZM17.5 11V18H19.5V11H17.5ZM9.5 3C8.55374 3 7.7592 3.6584 7.55273 4.54297C7.47886 4.85925 7.25506 5.12004 6.9541 5.24219C6.65321 5.36414 6.31137 5.33254 6.03809 5.15723C5.88325 5.05796 5.69998 5 5.5 5C4.94772 5 4.5 5.44772 4.5 6C4.5 6.55228 4.94772 7 5.5 7H16.2324C16.4027 6.70571 16.5 6.36443 16.5 6C16.5 4.89543 15.6046 4 14.5 4C14.1103 4 13.7471 4.11088 13.4395 4.30371C13.4792 4.52984 13.5 4.7625 13.5 5C13.5 5.2259 13.4808 5.44809 13.4443 5.66504L11.4727 5.33496C11.4908 5.22681 11.5 5.11469 11.5 5C11.5 3.89543 10.6046 3 9.5 3Z" fill="#3C3C3C"/>
</svg>
