<svg width="24" height="24" viewBox="0 0 24 24" fill="none" xmlns="http://www.w3.org/2000/svg">
<path d="M14.5001 21C14.5001 22.3807 13.3808 23.4999 12.0001 23.5C10.6195 23.5 9.50015 22.3807 9.50015 21H14.5001Z" fill="#3C3C3C"/>
<path d="M12.0001 2C16.4184 2.00005 20.0002 5.58175 20.0002 10V18.667L20.4005 19.2002C20.5659 19.4211 20.5207 19.7348 20.3 19.9004C20.2135 19.9651 20.1082 20 20.0002 20H4.00015C3.72403 20 3.50015 19.7761 3.50015 19.5C3.50015 19.3919 3.53499 19.2866 3.59976 19.2002L4.00015 18.667V10C4.00015 5.58174 7.58189 2.00003 12.0001 2Z" fill="#3C3C3C"/>
<path d="M3.548 2.95996C3.90131 2.53567 4.53837 2.53841 4.92886 2.92871C5.31926 3.31911 5.31471 3.94873 4.96988 4.37988C3.93307 5.67546 3.24647 7.26456 3.05484 9.00195C2.99417 9.55078 2.55234 10 2.00015 10C1.4481 9.99972 0.995859 9.5508 1.04605 9.00098C1.14668 7.89884 1.41314 6.81593 1.83804 5.79004C2.26295 4.76434 2.84005 3.81023 3.548 2.95996Z" fill="#3C3C3C"/>
<path d="M19.0714 2.92871C19.4619 2.53828 20.0989 2.53572 20.4523 2.95996C21.1607 3.8103 21.7382 4.76408 22.1632 5.79004C22.5882 6.81595 22.8539 7.89881 22.9543 9.00098C23.0043 9.55095 22.5524 9.99995 22.0002 10C21.4479 9.99997 21.0061 9.55084 20.9455 9.00195C20.7538 7.26457 20.0672 5.67547 19.0304 4.37988C18.6858 3.94874 18.6812 3.31903 19.0714 2.92871Z" fill="#3C3C3C"/>
</svg>
