<svg width="24" height="24" viewBox="0 0 24 24" fill="none" xmlns="http://www.w3.org/2000/svg">
<path d="M14.5 21C14.5 22.3807 13.3807 23.5 12 23.5C10.6193 23.4999 9.5 22.3806 9.5 21H14.5Z" fill="#3C3C3C"/>
<path d="M22.6064 21.1924L21.1924 22.6064L18.5859 20H4C3.72393 19.9999 3.5 19.7761 3.5 19.5C3.50003 19.3918 3.5357 19.2868 3.60059 19.2002L4 18.667V10C4.00002 8.67027 4.32438 7.41587 4.89844 6.3125L1.39355 2.80762L2.80762 1.39355L22.6064 21.1924Z" fill="#3C3C3C"/>
<path d="M12 2C16.4182 2 19.9999 5.58182 20 10V15.7861L7.55957 3.34473C8.82995 2.49543 10.3571 2.00004 12 2Z" fill="#3C3C3C"/>
</svg>
