<svg width="24" height="24" viewBox="0 0 24 24" fill="none" xmlns="http://www.w3.org/2000/svg">
<path fill-rule="evenodd" clip-rule="evenodd" d="M15.4902 3.32945C17.6236 2.75828 19.8167 4.0254 20.3886 6.15855L22.8476 15.3343C23.4905 17.7345 22.0659 20.2026 19.6659 20.8461C17.2655 21.4892 14.7976 20.0637 14.1542 17.6634C14.0689 17.3446 14.0207 17.0233 14.0058 16.7064C13.3703 16.8961 12.6972 16.9994 12.0009 16.9994C11.3044 16.9994 10.6308 16.8962 9.99505 16.7064C9.98017 17.0233 9.9329 17.3447 9.84759 17.6634C9.20421 20.0636 6.73625 21.4891 4.33587 20.8461C1.93561 20.2027 0.511286 17.7347 1.15423 15.3343L3.61321 6.15855C4.18524 4.0253 6.37818 2.75808 8.51165 3.32945C10.2431 3.79352 11.4031 5.32647 11.4736 7.02769C11.6468 7.00948 11.823 6.99937 12.0009 6.99937C12.1785 6.99938 12.3543 7.00955 12.5273 7.02769C12.5977 5.32637 13.7586 3.79344 15.4902 3.32945ZM5.50091 13.9994C4.12034 13.9994 3.00107 15.1188 3.00091 16.4994C3.00091 17.88 4.12024 18.9993 5.50091 18.9994C6.88141 18.9992 8.00091 17.88 8.00091 16.4994C8.00076 15.119 6.88131 13.9997 5.50091 13.9994ZM18.5009 13.9994C17.1203 13.9994 16.0011 15.1188 16.0009 16.4994C16.0009 17.8801 17.1202 18.9993 18.5009 18.9994C19.8814 18.9992 21.0009 17.88 21.0009 16.4994C21.0008 15.119 19.8813 13.9997 18.5009 13.9994Z" fill="#3C3C3C"/>
</svg>
