<svg width="24" height="24" viewBox="0 0 24 24" fill="none" xmlns="http://www.w3.org/2000/svg">
<path d="M8.5 2C9.47934 2 10.3647 2.4025 11 3.05078V20.6455C10.2671 21.4759 9.19469 22 8 22C5.79086 22 4 20.2091 4 18C4 17.8888 4.00471 17.7781 4.01367 17.6689C2.82374 17.11 2 15.9018 2 14.5C2 13.5207 2.4025 12.6353 3.05078 12C2.4025 11.3647 2 10.4793 2 9.5C2 7.72295 3.32447 6.25553 5.04004 6.03027C5.01375 5.85744 5 5.68016 5 5.5C5 3.567 6.567 2 8.5 2Z" fill="#3C3C3C"/>
<path d="M15.5 2C17.433 2 19 3.567 19 5.5C19 5.68016 18.9863 5.85744 18.96 6.03027C20.6755 6.25553 22 7.72295 22 9.5C22 10.4793 21.5975 11.3647 20.9492 12C21.5975 12.6353 22 13.5207 22 14.5C22 15.9018 21.1762 17.11 19.9863 17.6689C19.9952 17.7781 20 17.8888 20 18C20 20.2091 18.2091 22 16 22C14.8053 22 13.7329 21.4759 13 20.6455V3.05078C13.6353 2.4025 14.5207 2 15.5 2Z" fill="#3C3C3C"/>
</svg>
