<svg width="24" height="24" viewBox="0 0 24 24" fill="none" xmlns="http://www.w3.org/2000/svg">
<path d="M5.5625 7C5.76197 7.0001 5.92908 7.15116 5.94922 7.34961C5.96721 7.52787 5.98356 7.67129 5.99902 7.7793C6.15635 8.87806 6.4777 9.9243 6.9375 10.8916C7.0112 11.0468 6.96309 11.2321 6.82324 11.332L5.14453 12.5312C6.16651 14.9185 8.08152 16.8335 10.4688 17.8555L11.665 16.1797C11.7662 16.0381 11.9552 15.9889 12.1123 16.0635C13.0795 16.5228 14.1251 16.844 15.2236 17.001C15.3309 17.0164 15.4734 17.0329 15.6504 17.0508C15.8488 17.0709 15.9999 17.238 16 17.4375V20.1885C15.9998 20.5965 15.6843 20.935 15.2773 20.9639C14.9371 20.9879 14.6592 21 14.4443 21C7.57151 20.9999 2.00006 15.4285 2 8.55566C2 8.34077 2.0121 8.06283 2.03613 7.72266C2.06506 7.31566 2.40351 7.00019 2.81152 7H5.5625Z" fill="#3C3C3C"/>
<path fill-rule="evenodd" clip-rule="evenodd" d="M21.4004 3C21.7316 3.0002 22 3.24896 22 3.55566V12.4443C22 12.751 21.7316 12.9998 21.4004 13H10.5996C10.2684 12.9998 10 12.751 10 12.4443V3.55566C10 3.24896 10.2684 3.0002 10.5996 3H21.4004ZM11.4121 5.64551L16.0439 9.28711L20.5928 5.64258L19.8076 4.80176L16.0361 7.82422L12.1885 4.79883L11.4121 5.64551Z" fill="#3C3C3C"/>
</svg>
