<svg width="24" height="24" viewBox="0 0 24 24" fill="none" xmlns="http://www.w3.org/2000/svg">
<path d="M5.50391 20.0029C6.33233 20.0029 7.0039 20.6744 7.00391 21.5029C7.00391 22.3313 6.33234 23.0029 5.50391 23.0029C4.67568 23.0027 4.00391 22.3312 4.00391 21.5029C4.00391 20.6746 4.67569 20.0032 5.50391 20.0029Z" fill="#3C3C3C"/>
<path d="M17.5049 20.0029C18.3331 20.0032 19.0049 20.6746 19.0049 21.5029C19.0049 22.3312 18.3331 23.0027 17.5049 23.0029C16.6764 23.0029 16.0049 22.3313 16.0049 21.5029C16.0049 20.6744 16.6764 20.0029 17.5049 20.0029Z" fill="#3C3C3C"/>
<path d="M5.41895 5.00293H20.6602C21.2125 5.00293 21.6602 5.45065 21.6602 6.00293C21.6602 6.10018 21.646 6.19689 21.6182 6.29004L19.2178 14.29C19.0909 14.7129 18.7022 15.0027 18.2607 15.0029H6.00391V17.0029H17.0049V19.0029H5.00391C4.45182 19.0027 4.00391 18.555 4.00391 18.0029V6.41699L0.761719 3.1748L2.17578 1.75977L5.41895 5.00293Z" fill="#3C3C3C"/>
</svg>
