<svg width="24" height="24" viewBox="0 0 24 24" fill="none" xmlns="http://www.w3.org/2000/svg">
<path d="M20 10C21.6569 10 23 11.3431 23 13C23 14.3062 22.1652 15.4173 21 15.8291V21H19V20H5V21H3V15.8291C1.83484 15.4173 1 14.3062 1 13C1 11.3431 2.34315 10 4 10C5.65685 10 7 11.3431 7 13V16H9V15H15V16H17V13C17 11.3431 18.3431 10 20 10Z" fill="#3C3C3C"/>
<path d="M16 3C18.2091 3 20 4.79086 20 7V8C17.2386 8 15 10.2386 15 13H9C9 10.2386 6.76142 8 4 8V7C4 4.79086 5.79086 3 8 3H16Z" fill="#3C3C3C"/>
</svg>
