<svg width="24" height="24" viewBox="0 0 24 24" fill="none" xmlns="http://www.w3.org/2000/svg">
<path d="M19 20H20V22H3V20H4V17H19V20Z" fill="#3C3C3C"/>
<path fill-rule="evenodd" clip-rule="evenodd" d="M15.5 2.5L20.5479 8.46582C20.8193 8.78666 20.8608 9.2435 20.6523 9.6084L19.8271 11.0537C19.6289 11.4005 19.2427 11.5959 18.8457 11.5508L14.3604 11.041C14.1503 11.0172 13.9525 11.1441 13.8857 11.3447C13.8102 11.5716 13.9276 11.8167 14.1475 11.9111C16.3432 12.8524 17.4096 14.185 17.8076 16H5C5.00008 8.91347 9.33622 2.83971 15.5 0.287109V2.5ZM14 6C13.4477 6 13 6.44772 13 7C13 7.55228 13.4477 8 14 8C14.5523 8 15 7.55228 15 7C15 6.44772 14.5523 6 14 6Z" fill="#3C3C3C"/>
</svg>
