<svg width="24" height="24" viewBox="0 0 24 24" fill="none" xmlns="http://www.w3.org/2000/svg">
<path fill-rule="evenodd" clip-rule="evenodd" d="M12 2C17.5228 2 22 6.4772 22 12C22 17.5229 17.5228 22 12 22C6.47717 22 2.00003 17.5229 2 12C2 6.47721 6.47715 2.00001 12 2ZM12.5 7C10.1837 7.00001 8.27606 8.75008 8.02734 11H7V13H8.02734C8.27608 15.25 10.1837 17 12.5 17C13.8117 17 14.992 16.4384 15.8145 15.543L14.1143 14.4092C13.6788 14.7778 13.1152 15 12.5 15C11.2905 15 10.2814 14.1412 10.0498 13H15V11H10.0498C10.2814 9.85894 11.2905 9.00001 12.5 9C13.1152 9 13.6788 9.22227 14.1143 9.59082L15.8145 8.45703C14.992 7.56159 13.8117 7 12.5 7Z" fill="#3C3C3C"/>
</svg>
