<svg width="24" height="24" viewBox="0 0 24 24" fill="none" xmlns="http://www.w3.org/2000/svg">
<path fill-rule="evenodd" clip-rule="evenodd" d="M12.6113 2.01755C12.9913 2.04086 13.1779 2.48523 13.0273 2.83493C12.477 4.11279 12.7239 5.65242 13.7676 6.69626C14.3306 7.25923 15.0381 7.58962 15.7705 7.68845C16.0483 7.72596 16.274 7.95173 16.3115 8.22946C16.4104 8.96162 16.7401 9.66851 17.3027 10.2314C18.3466 11.2751 19.8853 11.5211 21.1631 10.9707C21.5128 10.82 21.9582 11.0075 21.9814 11.3877C22.1495 14.1468 21.1786 16.962 19.0703 19.0703C15.1651 22.9754 8.83389 22.9755 4.9287 19.0703C1.02382 15.1651 1.02371 8.83382 4.9287 4.92868C7.03678 2.82062 9.85254 1.84987 12.6113 2.01755ZM9.87792 14.1211C9.29211 13.5356 8.3425 13.5354 7.75683 14.1211C7.17161 14.7068 7.17153 15.6565 7.75683 16.2422C8.34246 16.8278 9.2921 16.8275 9.87792 16.2422C10.4637 15.6564 10.4637 14.7069 9.87792 14.1211ZM15.8887 13.7675C15.3028 13.1821 14.3533 13.182 13.7676 13.7675C13.182 14.3533 13.1821 15.3029 13.7676 15.8886C14.3533 16.4743 15.3029 16.4743 15.8887 15.8886C16.4742 15.3028 16.4743 14.3532 15.8887 13.7675ZM10.2314 8.11032C9.64568 7.525 8.69599 7.52476 8.11035 8.11032C7.52487 8.69597 7.52507 9.64562 8.11035 10.2314C8.69609 10.8172 9.64568 10.8171 10.2314 10.2314C10.8172 9.6456 10.8172 8.69609 10.2314 8.11032Z" fill="#3C3C3C"/>
</svg>
