<svg width="24" height="24" viewBox="0 0 24 24" fill="none" xmlns="http://www.w3.org/2000/svg">
<path fill-rule="evenodd" clip-rule="evenodd" d="M11.1912 2.13892C11.5122 1.68957 12.1364 1.58565 12.5858 1.90649C12.6756 1.97063 12.755 2.04912 12.8192 2.13892L17.0047 7.99927L21.2039 5.20044C21.6635 4.89409 22.2843 5.01825 22.5907 5.47778C22.7223 5.67534 22.7794 5.91291 22.7518 6.14868L21.1092 20.1165C21.0499 20.6199 20.623 20.9991 20.116 20.9993H3.89436C3.38734 20.9993 2.96052 20.62 2.9012 20.1165L1.25765 6.14868C1.19323 5.60026 1.58617 5.10383 2.1346 5.03931C2.37036 5.01166 2.60799 5.06877 2.8055 5.20044L7.00472 7.99927L11.1912 2.13892ZM12.0047 10.9993C10.9003 10.9994 10.0048 11.8949 10.0047 12.9993C10.0047 14.1038 10.9003 14.9991 12.0047 14.9993C13.1092 14.9993 14.0047 14.1039 14.0047 12.9993C14.0046 11.8948 13.1091 10.9993 12.0047 10.9993Z" fill="#3C3C3C"/>
</svg>
