<svg width="24" height="24" viewBox="0 0 24 24" fill="none" xmlns="http://www.w3.org/2000/svg">
<path d="M8.96289 16.6979C8.96304 16.1459 9.35096 15.9219 9.8291 16.1979C10.3072 16.474 10.6951 17.1456 10.6953 17.6979C10.6953 18.2502 10.3074 18.4741 9.8291 18.1979C9.35089 17.9217 8.96291 17.2501 8.96289 16.6979Z" fill="#3C3C3C"/>
<path d="M5.5 14.6998C5.49998 14.1475 5.88792 13.9237 6.36621 14.1998C6.84439 14.4761 7.2324 15.1477 7.23242 15.6998C7.23226 16.2518 6.84429 16.4758 6.36621 16.1998C5.88804 15.9238 5.5002 15.252 5.5 14.6998Z" fill="#3C3C3C"/>
<path d="M8.96289 12.6998C8.96292 12.1477 9.35004 11.924 9.82812 12.1998C10.3064 12.476 10.6943 13.1476 10.6943 13.6998C10.6943 14.2521 10.3064 14.476 9.82812 14.1998C9.35003 13.9235 8.96291 13.252 8.96289 12.6998Z" fill="#3C3C3C"/>
<path d="M5.5 10.7008C5.49998 10.1485 5.88792 9.92463 6.36621 10.2008C6.84439 10.4771 7.2324 11.1486 7.23242 11.7008C7.23227 12.2528 6.84431 12.4768 6.36621 12.2008C5.88804 11.9246 5.50019 11.253 5.5 10.7008Z" fill="#3C3C3C"/>
<path fill-rule="evenodd" clip-rule="evenodd" d="M10.998 1.58067C11.6179 1.22181 12.3821 1.22181 13.002 1.58067L20.502 5.92247C21.1195 6.27999 21.4999 6.93938 21.5 7.65293V16.3473C21.4999 17.0609 21.1195 17.7202 20.502 18.0777L13.002 22.4195C12.3821 22.7784 11.6179 22.7784 10.998 22.4195L3.49805 18.0777C2.88048 17.7202 2.50009 17.0609 2.5 16.3473V7.65293C2.50011 6.93938 2.8805 6.27999 3.49805 5.92247L10.998 1.58067ZM5.25098 8.09239C4.91771 7.89945 4.50018 8.13998 4.5 8.525V15.1939C4.50001 15.9076 4.88047 16.5668 5.49805 16.9244L11.249 20.2545C11.5823 20.4475 12 20.2071 12 19.8219V13.1529C11.9999 12.4394 11.6195 11.78 11.002 11.4225L5.25098 8.09239ZM18.0752 13.9703C18.0752 13.2799 17.59 13.0001 16.9922 13.3453C16.3945 13.6906 15.9102 14.5301 15.9102 15.2203C15.9102 15.9106 16.3945 16.1903 16.9922 15.8453C17.59 15.5001 18.0751 14.6606 18.0752 13.9703ZM9.96777 5.51719C9.4895 5.24134 8.7145 5.24125 8.23633 5.51719C7.75803 5.79331 7.75803 6.24106 8.23633 6.51719C8.71453 6.79322 9.48947 6.79312 9.96777 6.51719C10.4461 6.24106 10.4461 5.79331 9.96777 5.51719ZM15.7686 5.51719C15.2903 5.24109 14.5144 5.24115 14.0361 5.51719C13.5578 5.79332 13.5578 6.24107 14.0361 6.51719C14.5144 6.79328 15.2903 6.79331 15.7686 6.51719C16.2464 6.24111 16.2464 5.79327 15.7686 5.51719Z" fill="#3C3C3C"/>
</svg>
