<svg width="24" height="24" viewBox="0 0 24 24" fill="none" xmlns="http://www.w3.org/2000/svg">
<path d="M18.5 2C20.9853 2 23 4.01472 23 6.5C23 8.68311 21.4454 10.5029 19.3828 10.9131C19.7802 11.862 20 12.9055 20 14C20 18.4183 16.4183 22 12 22C7.58172 22 4 18.4183 4 14C4 12.9055 4.22028 11.8623 4.61816 10.9121C2.5551 10.5032 1 8.68314 1 6.5C1 4.01472 3.01472 2 5.5 2C7.90271 2 9.86538 3.88307 9.99316 6.25391C10.6346 6.0879 11.3071 6 12 6C12.6929 6 13.3656 6.08832 14.0068 6.25391C14.1347 3.8834 16.0972 2 18.5 2Z" fill="#3C3C3C"/>
</svg>
