<svg width="24" height="24" viewBox="0 0 24 24" fill="none" xmlns="http://www.w3.org/2000/svg">
<path d="M6 1C6 5.66842 8.72909 8.13482 12 10.7266C12.5462 10.2939 13.0773 9.86432 13.583 9.42773C10.7945 7.22844 8.87004 5.5522 8.23145 3H17.8154C17.9358 2.37948 18 1.71561 18 1H20C20 6.98683 16.1493 10.012 12.71 12.7139L12.6182 12.7861C9.08047 15.5658 6 18.0404 6 23H4C4 17.5338 7.21055 14.5365 10.3867 12C7.21055 9.46355 4 6.46624 4 1H6Z" fill="#3C3C3C"/>
<path d="M15.1807 13.3086C17.7654 15.5981 19.9999 18.4399 20 23H18C18 22.2845 17.9358 21.6204 17.8154 21H8.23145C8.89051 18.3662 10.9189 16.6651 13.8535 14.3594C14.2972 14.0108 14.7415 13.6629 15.1807 13.3086Z" fill="#3C3C3C"/>
</svg>
