<svg width="24" height="24" viewBox="0 0 24 24" fill="none" xmlns="http://www.w3.org/2000/svg">
<path d="M21 12.9619C21 17.9325 16.9706 21.9619 12 21.9619C11.6856 21.9619 11.3708 21.9473 11.0566 21.9375L10.8164 21.3213C10.2889 19.9687 10 18.4978 10 16.9619C10 11.0785 14.2331 6.1853 19.8193 5.15918L21 4.94238V12.9619Z" fill="#3C3C3C"/>
<path d="M4.18066 5.15918C6.72625 5.62676 8.98917 6.89699 10.6992 8.69629C9.00213 11.0126 8 13.8703 8 16.9619C8.00001 18.4897 8.24489 19.9606 8.69727 21.3369C5.36081 20.02 3 16.7664 3 12.9619V4.94238L4.18066 5.15918Z" fill="#3C3C3C"/>
<path d="M12.4551 2.27051C13.6045 2.85814 14.6463 3.62594 15.5439 4.53613C14.2259 5.22238 13.0306 6.11237 12 7.16406C10.9693 6.11232 9.77419 5.22239 8.45605 4.53613C9.35365 3.62601 10.3954 2.85811 11.5449 2.27051L12 2.03809L12.4551 2.27051Z" fill="#3C3C3C"/>
</svg>
