<svg width="24" height="24" viewBox="0 0 24 24" fill="none" xmlns="http://www.w3.org/2000/svg">
<path fill-rule="evenodd" clip-rule="evenodd" d="M12 2C16.9706 2 21 6.02944 21 11V18.5C21 20.433 19.433 22 17.5 22C16.3001 22 15.241 21.3958 14.6104 20.4756C14.0973 21.3853 13.1205 22 12 22C10.8796 22 9.90286 21.3857 9.3877 20.4756C8.75911 21.3964 7.69985 22 6.5 22C4.63156 22 3.10476 20.5359 3.00488 18.6924L3 18.5V11C3 6.02944 7.02944 2 12 2ZM12 12C10.8954 12 10 13.1193 10 14.5C10 15.8807 10.8954 17 12 17C13.1046 17 14 15.8807 14 14.5C14 13.1193 13.1046 12 12 12ZM9.5 8C8.67157 8 8 8.67157 8 9.5C8 10.3284 8.67157 11 9.5 11C10.3284 11 11 10.3284 11 9.5C11 8.67157 10.3284 8 9.5 8ZM14.5 8C13.6716 8 13 8.67157 13 9.5C13 10.3284 13.6716 11 14.5 11C15.3284 11 16 10.3284 16 9.5C16 8.67157 15.3284 8 14.5 8Z" fill="#3C3C3C"/>
</svg>
