<svg width="24" height="24" viewBox="0 0 24 24" fill="none" xmlns="http://www.w3.org/2000/svg">
<path d="M18 7C20.7614 7 23 9.23858 23 12C23 14.7614 20.7614 17 18 17C15.2386 17 13 14.7614 13 12C13 11.1836 13.1969 10.4114 13.5449 9.72949C13.1774 9.2834 12.6209 9 12 9C11.3791 9 10.8226 9.2834 10.4551 9.72949C10.8031 10.4114 11 11.1836 11 12C11 14.7614 8.76142 17 6 17C3.23858 17 1 14.7614 1 12C1 9.23858 3.23858 7 6 7C7.21392 7 8.32696 7.43294 9.19238 8.15137C9.91399 7.44004 10.9051 7 12 7C13.0949 7 14.0859 7.44005 14.8076 8.15137C15.673 7.43294 16.7861 7 18 7Z" fill="#3C3C3C"/>
</svg>
