<svg width="24" height="24" viewBox="0 0 24 24" fill="none" xmlns="http://www.w3.org/2000/svg">
<path d="M16.3037 1.31543C19.3135 3.03904 21.3418 6.28302 21.3418 10C21.3417 15.1853 17.395 19.4485 12.3418 19.9502V21H17.3418V23H5.3418V21H10.3418V19.9502C7.04842 19.6232 4.22529 17.6984 2.6582 14.9619L4.39453 13.9697C5.77342 16.3776 8.36827 18 11.3418 18C15.76 18 19.3417 14.4182 19.3418 10C19.3418 7.02642 17.7194 4.43162 15.3115 3.05273L16.3037 1.31543Z" fill="#3C3C3C"/>
<path d="M11.3418 3C15.2078 3 18.3418 6.13401 18.3418 10C18.3417 13.8659 15.2077 17 11.3418 17C7.47591 17 4.34189 13.8659 4.3418 10C4.3418 6.13403 7.47585 3.00003 11.3418 3Z" fill="#3C3C3C"/>
</svg>
