<svg width="24" height="24" viewBox="0 0 24 24" fill="none" xmlns="http://www.w3.org/2000/svg">
<path fill-rule="evenodd" clip-rule="evenodd" d="M17.5 6.5C20.5376 6.5 23 8.96243 23 12C23 15.0376 20.5376 17.5 17.5 17.5C15.7035 17.5 14.3947 16.8087 13.3867 15.8008C12.8515 15.2655 12.4001 14.6381 12 13.998C11.5999 14.6381 11.1485 15.2655 10.6133 15.8008C9.60529 16.8087 8.2965 17.5 6.5 17.5C3.46243 17.5 1 15.0376 1 12C1 8.96243 3.46243 6.5 6.5 6.5C8.29649 6.5 9.60529 7.19129 10.6133 8.19922C11.1485 8.73448 11.5999 9.36182 12 10.002C12.4001 9.36182 12.8515 8.73448 13.3867 8.19922C14.3947 7.19129 15.7035 6.5 17.5 6.5ZM6.5 8.5C4.567 8.5 3 10.067 3 12C3 13.933 4.567 15.5 6.5 15.5C7.70349 15.5 8.51967 15.0663 9.19922 14.3867C9.82148 13.7645 10.3212 12.9468 10.8545 12C10.3212 11.0532 9.82148 10.2355 9.19922 9.61328C8.51967 8.93372 7.7035 8.5 6.5 8.5ZM17.5 8.5C16.2965 8.5 15.4803 8.93372 14.8008 9.61328C14.1785 10.2355 13.6788 11.0532 13.1455 12C13.6788 12.9468 14.1785 13.7645 14.8008 14.3867C15.4803 15.0663 16.2965 15.5 17.5 15.5C19.433 15.5 21 13.933 21 12C21 10.067 19.433 8.5 17.5 8.5Z" fill="#3C3C3C"/>
</svg>
