<svg width="24" height="24" viewBox="0 0 24 24" fill="none" xmlns="http://www.w3.org/2000/svg">
<path fill-rule="evenodd" clip-rule="evenodd" d="M11.4502 2.16795C11.7861 1.94402 12.2237 1.94402 12.5596 2.16795L21.0049 7.79783V21.7978C21.0049 22.3501 20.5572 22.7978 20.0049 22.7978H4.00488C3.4526 22.7978 3.00488 22.3501 3.00488 21.7978V7.79783L11.4502 2.16795ZM8.00488 18.7978H16.0049V16.7978H8.00488V18.7978ZM8.00488 15.7978H16.0049V13.7978H8.00488V15.7978ZM12.0049 7.79783C10.9004 7.79784 10.005 8.69339 10.0049 9.79783C10.0049 10.9024 10.9003 11.7978 12.0049 11.7978C13.1095 11.7978 14.0049 10.9024 14.0049 9.79783C14.0047 8.69338 13.1094 7.79783 12.0049 7.79783Z" fill="#3C3C3C"/>
</svg>
