<svg width="24" height="24" viewBox="0 0 24 24" fill="none" xmlns="http://www.w3.org/2000/svg">
<path d="M10.4639 1.53648C11.4204 0.984214 12.644 1.31141 13.1963 2.26793L16.4463 7.89683C16.7224 8.37509 16.5583 8.98688 16.0801 9.26304L14.7803 10.0121L15.7812 11.7455L14.0488 12.7455L13.0488 11.0121L11.75 11.763C11.2717 12.0391 10.6599 11.8751 10.3838 11.3968L8.5459 8.21519C6.49373 8.83802 5 10.7447 5 13.0003C5.00003 13.6256 5.11461 14.224 5.32422 14.7757C6.09895 14.284 7.01643 14.0003 8 14.0003C9.68408 14.0003 11.1741 14.8327 12.0801 16.1087L19.7686 11.6703L20.7686 13.4027L12.8896 17.9515C12.9618 18.2897 13 18.6407 13 19.0003C13 19.3428 12.965 19.6772 12.8994 20.0003H21V22.0003L4.00098 22.0013C3.37278 21.1656 3.00005 20.1265 3 19.0003C3 17.9932 3.29822 17.0556 3.81055 16.2709C3.29313 15.2954 3.00004 14.1819 3 13.0003C3 10.0052 4.88109 7.44899 7.52637 6.44957L7.13379 5.76793C6.58168 4.81139 6.90973 3.58875 7.86621 3.03648L10.4639 1.53648Z" fill="#3C3C3C"/>
</svg>
