<svg width="24" height="24" viewBox="0 0 24 24" fill="none" xmlns="http://www.w3.org/2000/svg">
<path d="M20.0401 15.0004C21.0816 15.0004 22.0199 15.4492 22.6729 16.1654L21.3224 17.0726C20.9766 16.7779 20.5285 16.6 20.0401 16.6C19.0799 16.6002 18.2787 17.2878 18.0948 18.2005H22.0255V19.8002H18.0948C18.2788 20.7128 19.0799 21.4005 20.0401 21.4007C20.5286 21.4007 20.9766 21.2229 21.3224 20.9281L22.6729 21.8353C22.0199 22.5516 21.0816 23.0003 20.0401 23.0004C18.201 23.0001 16.687 21.5999 16.4894 19.8002H15.6729V18.2005H16.4894C16.6869 16.4007 18.2009 15.0006 20.0401 15.0004Z" fill="#3C3C3C"/>
<path d="M11.5284 20.0502L13.5313 18.847C13.5301 18.8977 13.5284 18.9493 13.5284 19.0004C13.5285 19.684 13.6439 20.3413 13.8546 20.9535L12.0431 22.0414C11.7266 22.2313 11.3303 22.231 11.0138 22.0414L2.24326 16.7787C2.0066 16.6367 1.92963 16.3299 2.07139 16.0931C2.11361 16.0227 2.17288 15.9635 2.24326 15.9213L3.44541 15.1996L11.5284 20.0502Z" fill="#3C3C3C"/>
<path d="M20.8136 11.2211C21.0497 11.3634 21.1273 11.671 20.9854 11.9076C20.9432 11.9778 20.8837 12.0363 20.8136 12.0785L19.2657 13.0062C17.1762 13.0962 15.3641 14.255 14.3614 15.9496L11.5284 17.6498L2.24326 12.0785C2.00656 11.9364 1.92951 11.6297 2.07139 11.3929C2.11361 11.3225 2.17288 11.2633 2.24326 11.2211L3.44541 10.5004L11.5284 15.35L19.6114 10.5004L20.8136 11.2211Z" fill="#3C3C3C"/>
<path d="M11.0138 1.30895C11.3304 1.11906 11.7264 1.11898 12.0431 1.30895L20.8136 6.57164C21.0496 6.71388 21.1271 7.02069 20.9854 7.25719C20.9432 7.32742 20.8837 7.38689 20.8136 7.42906L11.5284 13.0004L2.24326 7.42906C2.00654 7.28703 1.92947 6.9793 2.07139 6.74254C2.1136 6.67226 2.17296 6.61382 2.24326 6.57164L11.0138 1.30895Z" fill="#3C3C3C"/>
</svg>
