<svg width="24" height="24" viewBox="0 0 24 24" fill="none" xmlns="http://www.w3.org/2000/svg">
<path d="M6.00586 10.0742C7.25133 10.2526 8.39132 10.7582 9.33496 11.502L11.5049 11.5029C13.9902 11.5029 16.0049 13.5176 16.0049 16.0029H9.00391L9.00488 17.0029L17.0049 17.002V16.0029C17.0049 14.9205 16.687 13.8996 16.1191 13.002L19.0049 13.0029C20.9972 13.0029 22.7178 14.1684 23.5215 15.8545C21.1567 18.9751 17.3268 21.0029 13.0049 21.0029C10.2437 21.0029 7.90474 20.4121 6.00488 19.3779L6.00586 10.0742Z" fill="#3C3C3C"/>
<path d="M4.00488 9.00293C4.55717 9.00293 5.00488 9.45065 5.00488 10.0029V19.0029C5.00488 19.5552 4.55717 20.0029 4.00488 20.0029H2.00488C1.45261 20.0029 1.00489 19.5552 1.00488 19.0029V10.0029C1.00488 9.45065 1.4526 9.00293 2.00488 9.00293H4.00488Z" fill="#3C3C3C"/>
<path d="M18.0049 5.00293C19.6617 5.00293 21.0049 6.34607 21.0049 8.00293C21.0049 9.65978 19.6617 11.0029 18.0049 11.0029C16.348 11.0029 15.0049 9.65977 15.0049 8.00293C15.0049 6.34608 16.348 5.00294 18.0049 5.00293Z" fill="#3C3C3C"/>
<path d="M11.0049 2.00293C12.6617 2.00293 14.0049 3.34607 14.0049 5.00293C14.0049 6.65978 12.6617 8.00293 11.0049 8.00293C9.34802 8.00292 8.00488 6.65977 8.00488 5.00293C8.00488 3.34608 9.34802 2.00294 11.0049 2.00293Z" fill="#3C3C3C"/>
</svg>
