<svg width="24" height="24" viewBox="0 0 24 24" fill="none" xmlns="http://www.w3.org/2000/svg">
<path d="M6.00586 10.0735C7.25141 10.2519 8.39128 10.7583 9.33496 11.5022H11.5049C13.99 11.5022 16.0046 13.5172 16.0049 16.0022H9.00391L9.00488 17.0022H17.0049V16.0022C17.0048 14.9201 16.6868 13.8997 16.1191 13.0022H19.0049C20.9972 13.0022 22.7178 14.1676 23.5215 15.8538C21.1567 18.9744 17.3268 21.0022 13.0049 21.0022C10.2438 21.0022 7.9047 20.4123 6.00488 19.3782L6.00586 10.0735Z" fill="#3C3C3C"/>
<path d="M4.00488 9.00224C4.5177 9.00224 4.94025 9.38871 4.99805 9.88602L5.00488 10.0022V19.0022C5.00488 19.5545 4.55717 20.0022 4.00488 20.0022H2.00488C1.4526 20.0022 1.00488 19.5545 1.00488 19.0022V10.0022C1.00514 9.45014 1.45276 9.00224 2.00488 9.00224H4.00488Z" fill="#3C3C3C"/>
<path d="M14.3584 3.57841C15.3347 2.60211 16.9173 2.60215 17.8936 3.57841C18.8699 4.55472 18.8699 6.13725 17.8936 7.11356L14.0049 11.0022L10.1162 7.11356C9.13989 6.13725 9.13989 4.55472 10.1162 3.57841C11.0925 2.60213 12.6751 2.60211 13.6514 3.57841L14.0049 3.93192L14.3584 3.57841Z" fill="#3C3C3C"/>
</svg>
