<svg width="24" height="24" viewBox="0 0 24 24" fill="none" xmlns="http://www.w3.org/2000/svg">
<path d="M6 6C6.78875 6 7.46837 6.45781 7.79395 7.12109C8.18354 7.04159 8.58691 7 9 7H9.12598C9.57002 8.72523 11.1362 10 13 10C14.6325 10 16.0345 9.02114 16.6562 7.61914C18.3505 8.45762 19.5916 10.073 19.915 12H21C21.5523 12 22 11.5523 22 11C22 10.4477 21.5523 10 21 10V9C22.1046 9 23 9.89543 23 11C23 12.1046 22.1046 13 21 13H20C20 15.2205 18.7929 17.1578 17 18.1953V21H14V19H9V21H6V18.1953C5.44818 17.876 4.9519 17.472 4.5293 17H2V11H3.34277C3.63522 10.1728 4.1033 9.42901 4.70312 8.81348L4 6H6Z" fill="#3C3C3C"/>
<path fill-rule="evenodd" clip-rule="evenodd" d="M13 3C14.6569 3 16 4.34315 16 6C16 7.65685 14.6569 9 13 9C11.3431 9 10 7.65685 10 6C10 4.34315 11.3431 3 13 3ZM13.1143 4.5C12.4195 4.50011 11.8471 5.02529 11.7725 5.7002H11.4648V6.2998H11.7725C11.8471 6.97473 12.4195 7.49989 13.1143 7.5C13.5078 7.5 13.8616 7.33114 14.1084 7.0625L13.5986 6.72266C13.468 6.83311 13.2987 6.90039 13.1143 6.90039C12.7515 6.90029 12.4494 6.64207 12.3799 6.2998H13.8643V5.7002H12.3799C12.4494 5.35796 12.7515 5.09971 13.1143 5.09961C13.2987 5.09961 13.468 5.16691 13.5986 5.27734L14.1084 4.9375C13.8616 4.66887 13.5078 4.5 13.1143 4.5Z" fill="#3C3C3C"/>
</svg>
