<svg width="24" height="24" viewBox="0 0 24 24" fill="none" xmlns="http://www.w3.org/2000/svg">
<path d="M20.998 5C20.998 8.86597 17.864 12 13.998 12H12.998V13H17.998V20C17.998 21.1046 17.1026 22 15.998 22H7.99805C6.89348 22 5.99805 21.1046 5.99805 20V13H10.998V10C10.998 6.13401 14.1321 3 17.998 3H20.998V5Z" fill="#3C3C3C"/>
<path d="M5.49805 2C8.02667 2 10.2635 3.25171 11.6221 5.16895C10.6031 6.51119 9.99805 8.18482 9.99805 10V11H9.49805C5.35591 11 1.99805 7.64214 1.99805 3.5V2H5.49805Z" fill="#3C3C3C"/>
</svg>
