<svg width="24" height="24" viewBox="0 0 24 24" fill="none" xmlns="http://www.w3.org/2000/svg">
<path d="M11 1C12.6569 1 14 2.34315 14 4C14 4.35064 13.9396 4.68722 13.8291 5H18C18.5523 5 19 5.44772 19 6V10.1709C19.3128 10.0604 19.6494 10 20 10C21.6569 10 23 11.3431 23 13C23 14.6569 21.6569 16 20 16C19.6494 16 19.3128 15.9396 19 15.8291V20C19 20.5523 18.5523 21 18 21H4C3.44772 21 3 20.5523 3 20V6C3 5.44772 3.44772 5 4 5H8.1709C8.06034 4.68722 8 4.35064 8 4C8 2.34315 9.34315 1 11 1Z" fill="#3C3C3C"/>
</svg>
