<svg width="24" height="24" viewBox="0 0 24 24" fill="none" xmlns="http://www.w3.org/2000/svg">
<path fill-rule="evenodd" clip-rule="evenodd" d="M12.0001 1.81836C16.0975 3.56397 19.0001 7.91208 19.0001 13C19.0001 14.0103 18.8864 14.9914 18.671 15.9287L20.6905 17.7246C20.8702 17.8843 20.9109 18.1493 20.7872 18.3555L18.3301 22.4512C18.188 22.6878 17.8804 22.7641 17.6436 22.6221C17.6088 22.6011 17.5767 22.5757 17.5479 22.5469L15.293 20.293C15.1055 20.1055 14.8512 20 14.586 20H9.41511C9.14995 20 8.8956 20.1055 8.70808 20.293L6.45319 22.5469C6.25792 22.7422 5.94142 22.7422 5.74616 22.5469C5.71738 22.5181 5.69193 22.4861 5.67097 22.4512L3.21394 18.3555C3.09023 18.1493 3.13091 17.8843 3.31062 17.7246L5.33015 15.9287C5.11465 14.9914 5.00008 14.0103 5.00007 13C5.00007 7.91229 7.90303 3.56411 12.0001 1.81836ZM12.0001 9C10.8958 9.00024 10.0001 9.89562 10.0001 11C10.0001 12.1044 10.8958 12.9998 12.0001 13C13.1046 13 14 12.1046 14.0001 11C14.0001 9.89547 13.1047 9 12.0001 9Z" fill="#3C3C3C"/>
</svg>
