<svg width="24" height="24" viewBox="0 0 24 24" fill="none" xmlns="http://www.w3.org/2000/svg">
<path d="M12.0049 8C13.1095 8 14.0049 8.89543 14.0049 10C14.0048 11.1045 13.1094 12 12.0049 12C10.9004 12 10.005 11.1045 10.0049 10C10.0049 8.89544 10.9003 8.00001 12.0049 8Z" fill="#3C3C3C"/>
<path fill-rule="evenodd" clip-rule="evenodd" d="M21.0049 3C21.5572 3 22.0049 3.44771 22.0049 4V19C22.0048 19.5522 21.5571 20 21.0049 20H20.0049V22H18.0049V20H6.00488V22H4.00488V20H3.00488C2.45268 20 2.00501 19.5522 2.00488 19V4C2.00488 3.44771 2.4526 3 3.00488 3H21.0049ZM12.0049 6C9.79573 6.00001 8.00488 7.79087 8.00488 10C8.00499 11.8637 9.27972 13.4299 11.0049 13.874V17H13.0049V13.874C14.73 13.4299 16.0048 11.8637 16.0049 10C16.0049 7.79086 14.214 6 12.0049 6Z" fill="#3C3C3C"/>
</svg>
