<svg width="24" height="24" viewBox="0 0 24 24" fill="none" xmlns="http://www.w3.org/2000/svg">
<path d="M21 8C21.5523 8 22 8.44772 22 9V10C22 14.1006 19.5318 17.6249 16 19.168V20C16 20.5523 15.5523 21 15 21H9C8.44772 21 8 20.5523 8 20V19.168C4.46819 17.6249 2 14.1006 2 10V9C2 8.44771 2.44772 8 3 8H21Z" fill="#3C3C3C"/>
<path d="M7 0.5C7.55228 0.5 8 0.947715 8 1.5V2.5C8 3.41609 7.49432 3.92136 7.22754 4.1875L7.20703 4.20703C6.99498 4.41907 6.99599 4.43804 6.99902 4.48145C6.99941 4.48703 7 4.49314 7 4.5V5.5C7 6.05228 6.55228 6.5 6 6.5C5.44772 6.5 5 6.05228 5 5.5V4.5C5 3.58391 5.50568 3.07864 5.77246 2.8125L5.79297 2.79297C6.00502 2.58093 6.00401 2.56196 6.00098 2.51855C6.00059 2.51297 6 2.50686 6 2.5V1.5C6 0.947715 6.44772 0.5 7 0.5Z" fill="#3C3C3C"/>
<path d="M12.5 0.5C13.0523 0.5 13.5 0.947715 13.5 1.5V2.5C13.5 3.41609 12.9943 3.92136 12.7275 4.1875L12.707 4.20703C12.495 4.41907 12.496 4.43804 12.499 4.48145C12.4994 4.48703 12.5 4.49314 12.5 4.5V5.5C12.5 6.05228 12.0523 6.5 11.5 6.5C10.9477 6.5 10.5 6.05228 10.5 5.5V4.5C10.5 3.58391 11.0057 3.07864 11.2725 2.8125L11.293 2.79297C11.505 2.58093 11.504 2.56196 11.501 2.51855C11.5006 2.51297 11.5 2.50686 11.5 2.5V1.5C11.5 0.947715 11.9477 0.5 12.5 0.5Z" fill="#3C3C3C"/>
<path d="M18 0.5C18.5523 0.5 19 0.947715 19 1.5V2.5C19 3.41609 18.4943 3.92136 18.2275 4.1875L18.207 4.20703C17.995 4.41907 17.996 4.43804 17.999 4.48145C17.9994 4.48703 18 4.49314 18 4.5V5.5C18 6.05228 17.5523 6.5 17 6.5C16.4477 6.5 16 6.05228 16 5.5V4.5C16 3.58391 16.5057 3.07864 16.7725 2.8125L16.793 2.79297C17.005 2.58093 17.004 2.56196 17.001 2.51855C17.0006 2.51297 17 2.50686 17 2.5V1.5C17 0.947715 17.4477 0.5 18 0.5Z" fill="#3C3C3C"/>
</svg>
