<svg width="24" height="24" viewBox="0 0 24 24" fill="none" xmlns="http://www.w3.org/2000/svg">
<path d="M18.75 14C18.75 15.7949 20.2051 17.25 22 17.25V18.75C20.2051 18.75 18.75 20.2051 18.75 22H17.25C17.25 20.2051 15.7949 18.75 14 18.75V17.25C15.7949 17.25 17.25 15.7949 17.25 14H18.75Z" fill="#3C3C3C"/>
<path d="M9 5C9 8.31371 11.6863 11 15 11V13C11.6863 13 9 15.6863 9 19H7C7 15.6863 4.31371 13 1 13V11C4.31371 11 7 8.31371 7 5H9Z" fill="#3C3C3C"/>
<path d="M17.5625 2C17.5625 3.34619 18.6538 4.4375 20 4.4375V5.5625C18.6538 5.5625 17.5625 6.65381 17.5625 8H16.4375C16.4375 6.65381 15.3462 5.5625 14 5.5625V4.4375C15.3462 4.4375 16.4375 3.34619 16.4375 2H17.5625Z" fill="#3C3C3C"/>
</svg>
