<svg width="24" height="24" viewBox="0 0 24 24" fill="none" xmlns="http://www.w3.org/2000/svg">
<path d="M21.2851 15.9208C21.5218 16.0629 21.599 16.3705 21.457 16.6073C21.4147 16.6776 21.3553 16.7361 21.2851 16.7782L12.5146 22.0409C12.1979 22.231 11.802 22.231 11.4853 22.0409L2.71479 16.7782C2.47806 16.6362 2.40099 16.3295 2.54291 16.0927C2.58513 16.0223 2.64441 15.963 2.71479 15.9208L3.91693 15.1991L11.9999 20.0497L20.0829 15.1991L21.2851 15.9208Z" fill="#3C3C3C"/>
<path d="M21.2851 11.2206C21.5218 11.3627 21.599 11.6703 21.457 11.9071C21.4147 11.9775 21.3554 12.0359 21.2851 12.078L11.9999 17.6493L2.71479 12.078C2.47801 11.936 2.40087 11.6293 2.54291 11.3925C2.58513 11.3221 2.64441 11.2628 2.71479 11.2206L3.91693 10.4999L11.9999 15.3495L20.0829 10.4999L21.2851 11.2206Z" fill="#3C3C3C"/>
<path d="M11.4853 1.30852C11.802 1.11852 12.1979 1.11852 12.5146 1.30852L21.2851 6.57121C21.5217 6.71324 21.5988 7.01999 21.457 7.25676C21.4147 7.32714 21.3554 7.38641 21.2851 7.42863L11.9999 12.9999L2.71479 7.42863C2.478 7.28656 2.40083 6.9789 2.54291 6.74211C2.58512 6.67183 2.64448 6.61339 2.71479 6.57121L11.4853 1.30852Z" fill="#3C3C3C"/>
</svg>
