<svg width="24" height="24" viewBox="0 0 24 24" fill="none" xmlns="http://www.w3.org/2000/svg">
<path d="M10.1699 2.17084C12.4324 1.7484 14.8505 2.09885 17 3.33979C19.1497 4.58087 20.6623 6.50014 21.4277 8.67084C18.6562 9.18847 16.1189 10.8667 14.5986 13.4999C13.0784 16.133 12.8947 19.1691 13.832 21.8281C11.5692 22.2508 9.14988 21.9013 7.00001 20.6601C4.85034 19.4188 3.33853 17.4989 2.57325 15.3281C5.34463 14.8103 7.88216 13.133 9.40236 10.4999C10.9226 7.86669 11.1074 4.82994 10.1699 2.17084Z" fill="#3C3C3C"/>
<path d="M21.9014 10.6162C22.2008 12.7478 21.8207 14.9913 20.6611 16.9999C19.5015 19.0085 17.7485 20.459 15.7529 21.2656C14.9615 19.1142 15.0945 16.6404 16.3301 14.4999C17.566 12.3593 19.6423 11.0064 21.9014 10.6162Z" fill="#3C3C3C"/>
<path d="M8.24806 2.73237C9.04012 4.88416 8.90604 7.35895 7.66993 9.49994C6.43392 11.6406 4.35792 12.9928 2.09864 13.3828C1.7995 11.2514 2.1804 9.00827 3.33986 6.99994C4.49953 4.99132 6.25235 3.53893 8.24806 2.73237Z" fill="#3C3C3C"/>
</svg>
