<svg width="24" height="24" viewBox="0 0 24 24" fill="none" xmlns="http://www.w3.org/2000/svg">
<path d="M5.32883 3.27148C6.56189 2.83311 7.99128 3.10782 8.97825 4.09472C9.96543 5.0819 10.2403 6.51184 9.80149 7.74511L20.6462 18.5898L18.5251 20.7119L7.67844 9.86718C6.44544 10.3054 5.0159 10.0308 4.02903 9.04394C3.04189 8.05673 2.76794 6.62681 3.20676 5.39355L5.44309 7.62988C6.02884 8.21562 6.9784 8.21554 7.56419 7.62988C8.14998 7.04409 8.14998 6.09456 7.56419 5.50878L5.32883 3.27148Z" fill="#3C3C3C"/>
<path d="M10.7468 15.0547L5.79661 20.0039C5.21082 20.5897 4.26129 20.5897 3.67551 20.0039C3.12445 19.4526 3.0917 18.5795 3.57786 17.9902L3.67551 17.8828L8.62473 12.9336L10.7468 15.0547Z" fill="#3C3C3C"/>
<path d="M20.2927 4.80175L18.5251 7.98339L16.7566 8.33691L14.6355 10.458L13.2214 9.04394L15.3425 6.92285L15.696 5.15527L18.8786 3.38769L20.2927 4.80175Z" fill="#3C3C3C"/>
</svg>
