<svg width="24" height="24" viewBox="0 0 24 24" fill="none" xmlns="http://www.w3.org/2000/svg">
<path d="M9.02832 2.50002C10.0985 2.50462 11.1098 2.76863 12 3.23244C13.5816 4.05673 14.7826 5.51227 15.2666 7.26564C15.4136 7.79794 15.9639 8.11065 16.4961 7.96388C17.0284 7.81698 17.3411 7.26665 17.1943 6.73439C16.7346 5.06855 15.7808 3.60668 14.5 2.51857C14.6651 2.50599 14.8319 2.50002 15 2.50002C17.0071 2.50002 18.6796 3.22764 19.8311 4.60939C20.9624 5.96695 21.5 7.84561 21.5 10C21.5 13.097 20.9861 15.8651 20.1055 17.8975C19.2654 19.8361 17.8974 21.5 16 21.5C14.8998 21.5 14.2133 20.8477 13.8057 20.1397C13.4435 19.5107 13.2267 18.7171 13.0527 18.0781C12.8458 17.3183 12.6876 16.7505 12.4619 16.3584C12.2758 16.0353 12.1497 16 12 16C11.8503 16 11.7242 16.0353 11.5381 16.3584C11.3124 16.7505 11.1542 17.3183 10.9473 18.0781C10.7733 18.7171 10.5565 19.5107 10.1943 20.1397C9.78668 20.8477 9.10018 21.5 8 21.5C6.1026 21.5 4.73458 19.8361 3.89453 17.8975C3.01392 15.8651 2.5 13.097 2.5 10C2.5 7.84561 3.03764 5.96695 4.16895 4.60939C5.32045 3.22764 6.99295 2.50002 9 2.50002C9.00944 2.50002 9.01889 2.49998 9.02832 2.50002Z" fill="#3C3C3C"/>
</svg>
