<svg width="24" height="24" viewBox="0 0 24 24" fill="none" xmlns="http://www.w3.org/2000/svg">
<path d="M7 12.5C9.48528 12.5 11.5 14.5147 11.5 17C11.5 19.4853 9.48528 21.5 7 21.5C4.51472 21.5 2.5 19.4853 2.5 17C2.5 14.5147 4.51472 12.5 7 12.5Z" fill="#3C3C3C"/>
<path d="M21 13V16C21 18.7614 18.7614 21 16 21H13V19H16C17.6569 19 19 17.6569 19 16V13H21Z" fill="#3C3C3C"/>
<path d="M17 2.5C19.4853 2.5 21.5 4.51472 21.5 7C21.5 9.48528 19.4853 11.5 17 11.5C14.5147 11.5 12.5 9.48528 12.5 7C12.5 4.51472 14.5147 2.5 17 2.5Z" fill="#3C3C3C"/>
<path d="M11 5H8C6.34315 5 5 6.34315 5 8V11H3V8C3 5.23858 5.23858 3 8 3H11V5Z" fill="#3C3C3C"/>
</svg>
