<svg width="24" height="24" viewBox="0 0 24 24" fill="none" xmlns="http://www.w3.org/2000/svg">
<path d="M8.99805 3C8.99805 4.65685 10.3412 6 11.998 6C13.6549 5.99997 14.998 4.65683 14.998 3H20.998C21.5503 3.00003 21.998 3.44774 21.998 4V11C21.998 11.5523 21.5503 12 20.998 12H18.9971L18.998 20C18.998 20.5523 18.5503 21 17.998 21H5.99805C5.44576 21 4.99805 20.5523 4.99805 20L4.99707 11.999L2.99805 12C2.44576 12 1.99805 11.5523 1.99805 11V4C1.99805 3.44772 2.44576 3 2.99805 3H8.99805Z" fill="#3C3C3C"/>
</svg>
