<svg width="24" height="24" viewBox="0 0 24 24" fill="none" xmlns="http://www.w3.org/2000/svg">
<path d="M17.5 10.5C17.7761 10.5 18 10.7239 18 11C18 11.2761 17.7761 11.5 17.5 11.5H16V10.5H17.5Z" fill="#3C3C3C"/>
<path fill-rule="evenodd" clip-rule="evenodd" d="M21 3C21.5523 3 22 3.44772 22 4V20C22 20.5523 21.5523 21 21 21H3C2.44772 21 2 20.5523 2 20V4C2 3.44772 2.44772 3 3 3H21ZM11 15.5H13V8.5H11V15.5ZM14 15.5H16V13.5H17.5C18.8807 13.5 20 12.3807 20 11C20 9.61929 18.8807 8.5 17.5 8.5H14V15.5ZM6.10449 15.4639H8.10449L10.7148 8.5H8.60156L7.10449 12.6123L5.60742 8.5H3.49316L6.10449 15.4639Z" fill="#3C3C3C"/>
</svg>
