<svg width="24" height="24" viewBox="0 0 24 24" fill="none" xmlns="http://www.w3.org/2000/svg">
<path fill-rule="evenodd" clip-rule="evenodd" d="M17.4512 3.38086L16.7344 5.24805L15.8008 4.88965L15.0537 6.83398C15.8326 7.29547 16.4987 7.92869 16.999 8.68066L18.9014 7.83203L18.4951 6.91895L20.3223 6.10547L21.9492 9.75977L20.1221 10.5732L19.7148 9.65918L17.8125 10.5068C17.9347 10.9841 18 11.4846 18 12C18 12.4061 17.9597 12.803 17.8828 13.1865L19.8271 13.9326L20.1855 13L22.0527 13.7168L20.6191 17.4502L18.752 16.7344L19.1094 15.8008L17.166 15.0537C16.7045 15.8326 16.0712 16.4987 15.3193 16.999L16.167 18.9014L17.0811 18.4951L17.8945 20.3223L14.2402 21.9482L13.4268 20.1221L14.3408 19.7148L13.4932 17.8125C13.0159 17.9347 12.5154 18 12 18C11.5934 18 11.1964 17.9588 10.8125 17.8818L10.0664 19.8271L11 20.1855L10.2832 22.0527L6.54883 20.6191L7.26562 18.752L8.19824 19.1094L8.94629 17.165C8.16742 16.7035 7.50134 16.0713 7.00098 15.3193L5.09863 16.167L5.50488 17.0811L3.67773 17.8945L2.05078 14.2402L3.87793 13.4268L4.28418 14.3408L6.1875 13.4932C6.06528 13.0159 6.00002 12.5153 6 12C6 11.5938 6.04028 11.197 6.11719 10.8135L4.17188 10.0664L3.81445 11L1.94727 10.2832L3.38086 6.54883L5.24805 7.26562L4.88867 8.19824L6.83398 8.94531C7.29546 8.16649 7.92872 7.50132 8.68066 7.00098L7.83301 5.09863L6.91895 5.50488L6.10547 3.67773L9.75977 2.05078L10.5732 3.87793L9.66016 4.28516L10.5068 6.1875C10.9841 6.06527 11.4846 6 12 6C12.4062 6 12.803 6.04026 13.1865 6.11719L13.9326 4.17188L13 3.81445L13.7168 1.94727L17.4512 3.38086ZM11.5 12.8662C11.0218 12.5901 10.4099 12.7533 10.1338 13.2314C9.85766 13.7097 10.0218 14.3214 10.5 14.5977C10.9783 14.8738 11.5901 14.7097 11.8662 14.2314C12.1421 13.7532 11.9781 13.1424 11.5 12.8662ZM14 11C13.4477 11 13 11.4477 13 12C13.0001 12.5522 13.4478 13 14 13C14.5522 13 14.9999 12.5522 15 12C15 11.4477 14.5523 11 14 11ZM11.8662 9.76758C11.5901 9.28938 10.9783 9.12534 10.5 9.40137C10.0218 9.67748 9.8578 10.2893 10.1338 10.7676C10.4099 11.2459 11.0217 11.4099 11.5 11.1338C11.9783 10.8576 12.1424 10.2458 11.8662 9.76758Z" fill="#3C3C3C"/>
</svg>
