<svg width="24" height="24" viewBox="0 0 24 24" fill="none" xmlns="http://www.w3.org/2000/svg">
<path fill-rule="evenodd" clip-rule="evenodd" d="M12 2C17.5228 2 22 6.47715 22 12C22 17.5228 17.5228 22 12 22C6.47715 22 2 17.5228 2 12C2 6.47715 6.47715 2 12 2ZM16.0039 12.8779C15.6585 12.3535 15.4094 11.9748 14.4619 12.125C12.6719 12.4092 12.4732 12.7223 12.3877 13.2373L12.3633 13.3945L12.3389 13.5596C12.2412 14.2427 12.245 14.5015 12.5586 14.8311C13.8238 16.1585 14.5819 17.1152 14.8115 17.6748C14.9237 17.9488 15.2119 18.7753 15.0137 19.5928C16.2373 19.1067 17.3153 18.3328 18.165 17.3555C18.2752 16.9818 18.3554 16.5166 18.3555 15.9521V15.8477C18.3555 14.9253 18.3549 14.5044 17.7031 14.1318C17.4283 13.9757 17.223 13.8812 17.0586 13.8066C16.6914 13.6397 16.4482 13.5295 16.1201 13.0498C16.081 12.9927 16.0421 12.936 16.0039 12.8779ZM12 3.83301C9.68275 3.83301 7.59089 4.79844 6.10449 6.34863C6.28143 6.47153 6.4351 6.6448 6.54102 6.88281C6.74495 7.34047 6.74512 7.81116 6.74512 8.22754C6.74471 8.55595 6.74426 8.86698 6.84961 9.09277C6.99408 9.40102 7.61606 9.53239 8.16504 9.64746C8.36122 9.68877 8.56403 9.7313 8.74805 9.78223C9.25395 9.92283 9.64521 10.3766 9.95898 10.7412C10.0891 10.893 10.2815 11.1163 10.3779 11.1719C10.4282 11.1358 10.59 10.961 10.6699 10.6738C10.7307 10.4551 10.7135 10.2597 10.624 10.1543C10.065 9.49448 10.0948 8.2232 10.2676 7.75488C10.5397 7.01609 11.3902 7.07094 12.0117 7.11133C12.2435 7.12625 12.4629 7.14059 12.626 7.12012C13.2483 7.04182 13.4398 6.09553 13.5752 5.91016C13.8673 5.50999 14.7603 4.90674 15.3154 4.53418C14.3022 4.08358 13.1803 3.83301 12 3.83301Z" fill="#3C3C3C"/>
</svg>
