<svg width="24" height="24" viewBox="0 0 24 24" fill="none" xmlns="http://www.w3.org/2000/svg">
<path fill-rule="evenodd" clip-rule="evenodd" d="M13.7139 4C14.1871 4 14.5711 4.38035 14.5713 4.84961V5.7002H17.1426C17.6159 5.7002 17.9999 6.08046 18 6.5498V20.1504C17.9998 20.6197 17.6158 21 17.1426 21H6.85742C6.38417 21 6.00021 20.6197 6 20.1504V6.5498C6.00011 6.08046 6.3841 5.7002 6.85742 5.7002H9.42871V4.84961C9.42892 4.38035 9.81288 4 10.2861 4H13.7139ZM11.1426 12.5H8.57129V14.2002H11.1426V16.75H12.8574V14.2002H15.4287V12.5H12.8574V9.9502H11.1426V12.5Z" fill="#3C3C3C"/>
</svg>
