<svg width="24" height="23" viewBox="0 0 24 23" fill="none" xmlns="http://www.w3.org/2000/svg">
<path d="M15.5 19.1904C15.5 20.1898 14.7165 21 13.75 21H10.25C9.2835 21 8.5 20.1898 8.5 19.1904V18.2861H15.5V19.1904Z" fill="#3C3C3C"/>
<path fill-rule="evenodd" clip-rule="evenodd" d="M12 2C15.866 2 19 5.24079 19 9.23828C19 10.9503 18.4249 12.5234 17.4639 13.7627C16.9827 14.383 15.8115 15.3253 15.5518 16.4766H8.44824C8.18828 15.3252 7.01656 14.3819 6.53516 13.7607C5.5749 12.5217 5.00004 10.9495 5 9.23828C5 5.24079 8.134 2 12 2ZM8.9375 11.0518H11.125V14.6709L15.0625 9.24219H12.875V5.61914L8.9375 11.0518Z" fill="#3C3C3C"/>
</svg>
