<svg width="24" height="24" viewBox="0 0 24 24" fill="none" xmlns="http://www.w3.org/2000/svg">
<path d="M11.2002 11.167H16.7998L9.59961 22V14.5H4L11.2002 3.66699V11.167Z" fill="#3C3C3C"/>
<path d="M16.3633 10.333H15.6367V9.19727H16.3633V10.333Z" fill="#3C3C3C"/>
<path d="M14.2002 8.57715L13.4287 9.38086L12.9141 8.84473L13.6855 8.04199L14.2002 8.57715Z" fill="#3C3C3C"/>
<path d="M19.0859 8.84473L18.5713 9.38086L17.7998 8.57715L18.3145 8.04199L19.0859 8.84473Z" fill="#3C3C3C"/>
<path d="M16 3.89355C17.205 3.89355 18.1816 4.9118 18.1816 6.16699C18.1815 7.42203 17.2049 8.43945 16 8.43945C14.7951 8.43945 13.8185 7.42203 13.8184 6.16699C13.8184 4.9118 14.795 3.89355 16 3.89355Z" fill="#3C3C3C"/>
<path d="M13.0908 6.5459H12V5.78809H13.0908V6.5459Z" fill="#3C3C3C"/>
<path d="M20 6.5459H18.9092V5.78809H20V6.5459Z" fill="#3C3C3C"/>
<path d="M14.2002 3.75586L13.6855 4.29199L12.9141 3.48828L13.4287 2.95215L14.2002 3.75586Z" fill="#3C3C3C"/>
<path d="M19.0859 3.48828L18.3145 4.29199L17.7998 3.75586L18.5713 2.95215L19.0859 3.48828Z" fill="#3C3C3C"/>
<path d="M16.3633 3.13672H15.6367V2H16.3633V3.13672Z" fill="#3C3C3C"/>
</svg>
