<svg width="24" height="24" viewBox="0 0 24 24" fill="none" xmlns="http://www.w3.org/2000/svg">
<path fill-rule="evenodd" clip-rule="evenodd" d="M12 3C16.9706 3 21 7.02944 21 12C21 16.9705 16.9706 21 12 21C7.02948 21 3 16.9705 3 12C3 7.02944 7.02948 3 12 3ZM9.64648 6.15527C9.5954 6.17586 9.54456 6.19687 9.49414 6.21875C9.47206 6.22833 9.44969 6.23724 9.42773 6.24707L9.42871 6.24805C7.23137 7.23178 5.7002 9.43665 5.7002 12C5.7002 13.6672 6.34794 15.1827 7.40527 16.3096L7.54492 16.4551L8.81836 15.1816C8.00401 14.3673 7.5 13.2426 7.5 12C7.5 10.3347 8.40542 8.88186 9.75 8.10352V6.11426C9.71532 6.12757 9.68089 6.14141 9.64648 6.15527ZM14.25 8.10254C15.5949 8.88072 16.5 10.3345 16.5 12C16.5 13.2426 15.996 14.3673 15.1816 15.1816L16.4551 16.4551L16.5947 16.3096C17.6521 15.1827 18.2998 13.6672 18.2998 12C18.2998 9.43633 16.7681 7.2316 14.5703 6.24805L14.5723 6.24707C14.55 6.23712 14.5272 6.22845 14.5049 6.21875C14.4545 6.19687 14.4036 6.17586 14.3525 6.15527C14.3184 6.14153 14.2844 6.12747 14.25 6.11426V8.10254ZM11.0996 10.4414C11.0535 10.4681 11.008 10.4963 10.9639 10.5273C10.8809 10.5859 10.8018 10.6524 10.7275 10.7266C10.3762 11.0779 10.2003 11.5385 10.2002 11.999C10.2002 12.3445 10.2994 12.6898 10.4971 12.9893C10.563 13.0893 10.6395 13.1844 10.7275 13.2725C11.3641 13.9089 12.3573 13.9665 13.0615 13.4502C13.1349 13.3964 13.2071 13.3388 13.2734 13.2725C13.3852 13.1607 13.4775 13.0366 13.5537 12.9062C13.8831 12.3426 13.8799 11.6404 13.5449 11.0791C13.5006 11.0048 13.4524 10.9319 13.3965 10.8633L13.2734 10.7266C13.1598 10.613 13.0341 10.5183 12.9014 10.4414L12.9004 5.7002H11.1006L11.0996 10.4414Z" fill="#3C3C3C"/>
</svg>
