<svg width="24" height="24" viewBox="0 0 24 24" fill="none" xmlns="http://www.w3.org/2000/svg">
<path fill-rule="evenodd" clip-rule="evenodd" d="M12 3C16.9706 3 21 7.02944 21 12C21 16.9705 16.9706 21 12 21C7.02948 21 3 16.9705 3 12C3 7.02944 7.02948 3 12 3ZM13.7393 11.5342C13.4819 10.574 12.4944 10.0044 11.5342 10.2617C10.5741 10.519 10.0047 11.5057 10.2617 12.4658C10.3034 12.6213 10.3638 12.7673 10.4404 12.9004L8.07031 17.0068L9.62988 17.9062L12.001 13.8008C12.1545 13.8006 12.3105 13.7809 12.4658 13.7393C13.4261 13.482 13.9966 12.4944 13.7393 11.5342ZM11.665 5.70801C11.6393 5.70936 11.6136 5.71221 11.5879 5.71387C11.5012 5.71947 11.4148 5.72628 11.3291 5.73535C11.3053 5.73787 11.2816 5.74136 11.2578 5.74414C11.1773 5.75359 11.0971 5.76391 11.0176 5.77637C10.9648 5.78461 10.9126 5.79514 10.8604 5.80469C10.8065 5.81453 10.7526 5.82375 10.6992 5.83496C10.6511 5.84506 10.6034 5.85697 10.5557 5.86816C10.4978 5.88174 10.44 5.895 10.3828 5.91016C10.3366 5.92238 10.2909 5.93598 10.2451 5.94922C10.1885 5.9656 10.1321 5.98209 10.0762 6C10.0355 6.01301 9.99536 6.02721 9.95508 6.04102C9.89156 6.06281 9.8282 6.08465 9.76562 6.1084C9.72568 6.12355 9.68604 6.13934 9.64648 6.15527C9.5954 6.17586 9.54456 6.19687 9.49414 6.21875C9.47206 6.22833 9.44969 6.23724 9.42773 6.24707L9.42871 6.24805C7.23137 7.23178 5.7002 9.43665 5.7002 12C5.7002 13.5051 6.22975 14.8852 7.11035 15.9688L8.10254 14.249C7.71971 13.5873 7.5 12.8195 7.5 12C7.5 9.91193 8.92202 8.15539 10.8506 7.64746C11.2175 7.55086 11.6028 7.5 12 7.5C14.4853 7.5 16.5 9.51472 16.5 12C16.5 13.2426 15.996 14.3673 15.1816 15.1816L16.4551 16.4551L16.5947 16.3096C17.6521 15.1827 18.2998 13.6672 18.2998 12C18.2998 9.43633 16.7681 7.2316 14.5703 6.24805L14.5723 6.24707C14.55 6.23712 14.5272 6.22845 14.5049 6.21875C14.4545 6.19687 14.4036 6.17586 14.3525 6.15527C14.313 6.13934 14.2734 6.12355 14.2334 6.1084C14.1708 6.08466 14.1075 6.0628 14.0439 6.04102C14.0037 6.02721 13.9635 6.01301 13.9229 6C13.8669 5.98209 13.8105 5.96559 13.7539 5.94922C13.7081 5.93598 13.6624 5.92237 13.6162 5.91016C13.559 5.89501 13.5012 5.88173 13.4434 5.86816C13.3956 5.85698 13.348 5.84505 13.2998 5.83496C13.2464 5.82376 13.1926 5.81453 13.1387 5.80469C13.0864 5.79515 13.0342 5.7846 12.9814 5.77637C12.9019 5.76392 12.8217 5.75358 12.7412 5.74414C12.7175 5.74136 12.6938 5.73787 12.6699 5.73535C12.5842 5.72629 12.4979 5.71945 12.4111 5.71387C12.3854 5.71221 12.3598 5.70935 12.334 5.70801C12.2234 5.70223 12.112 5.7002 12 5.7002C11.8877 5.7002 11.7759 5.7022 11.665 5.70801Z" fill="#3C3C3C"/>
</svg>
