<svg width="24" height="24" viewBox="0 0 24 24" fill="none" xmlns="http://www.w3.org/2000/svg">
<path fill-rule="evenodd" clip-rule="evenodd" d="M12 2.99902C16.9706 2.99902 21 7.03041 21 12.001C20.9995 16.971 16.9702 21.001 12 21.001C7.02981 21.001 3.00053 16.971 3 12.001C3 7.03041 7.02948 2.99902 12 2.99902ZM11.665 5.70898C11.6393 5.71033 11.6136 5.71319 11.5879 5.71484C11.5012 5.72044 11.4148 5.72725 11.3291 5.73633C11.3053 5.73885 11.2815 5.74234 11.2578 5.74512C11.1773 5.75456 11.0971 5.76489 11.0176 5.77734C10.9649 5.78559 10.9126 5.79613 10.8604 5.80566C10.8065 5.8155 10.7525 5.82474 10.6992 5.83594C10.6511 5.84603 10.6033 5.85796 10.5557 5.86914C10.4979 5.8827 10.44 5.896 10.3828 5.91113C10.3367 5.92334 10.2908 5.93698 10.2451 5.9502C10.1886 5.96655 10.132 5.98309 10.0762 6.00098C10.0356 6.01396 9.99526 6.02821 9.95508 6.04199C9.89166 6.06375 9.82811 6.08567 9.76562 6.10938C9.72579 6.12449 9.68593 6.14036 9.64648 6.15625C9.59551 6.1768 9.54444 6.19789 9.49414 6.21973C9.47217 6.22925 9.44957 6.23827 9.42773 6.24805L9.42871 6.24902C7.23156 7.23283 5.7002 9.43777 5.7002 12.001C5.70045 13.6678 6.34814 15.1839 7.40527 16.3105L7.54492 16.4561L8.81836 15.1826C8.00423 14.3685 7.50026 13.2432 7.5 12.001C7.5 9.91299 8.92215 8.15645 10.8506 7.64844C11.2175 7.55183 11.6028 7.50098 12 7.50098C13.242 7.50098 14.3664 8.00376 15.1807 8.81738L17.0996 8.30371C16.4544 7.41574 15.5834 6.70248 14.5703 6.24902L14.5723 6.24805C14.5502 6.23815 14.5271 6.22936 14.5049 6.21973C14.4546 6.1979 14.4035 6.17679 14.3525 6.15625C14.3131 6.14036 14.2732 6.12448 14.2334 6.10938C14.1709 6.08568 14.1074 6.06374 14.0439 6.04199C14.0038 6.02822 13.9634 6.01396 13.9229 6.00098C13.867 5.9831 13.8104 5.96655 13.7539 5.9502C13.7082 5.93698 13.6623 5.92333 13.6162 5.91113C13.5591 5.89601 13.5011 5.88269 13.4434 5.86914C13.3957 5.85797 13.3479 5.84602 13.2998 5.83594C13.2465 5.82475 13.1925 5.81549 13.1387 5.80566C13.0864 5.79614 13.0341 5.78558 12.9814 5.77734C12.9019 5.7649 12.8217 5.75455 12.7412 5.74512C12.7175 5.74234 12.6937 5.73884 12.6699 5.73633C12.5842 5.72727 12.4979 5.72043 12.4111 5.71484C12.3854 5.71319 12.3598 5.71033 12.334 5.70898C12.2234 5.70321 12.112 5.70117 12 5.70117C11.8877 5.70117 11.7759 5.70318 11.665 5.70898ZM16.3467 13.1641C16.1396 13.9387 15.7321 14.6322 15.1816 15.1826L16.4551 16.4561L16.5947 16.3105C17.5128 15.3321 18.121 14.0597 18.2656 12.6504L16.3467 13.1641ZM13.2734 10.7266C13.1648 10.6181 13.0397 10.5218 12.9004 10.4414C12.0395 9.94441 10.9385 10.2397 10.4414 11.1006C9.94485 11.9614 10.2398 13.0626 11.1006 13.5596C11.9613 14.0562 13.0625 13.7609 13.5596 12.9004C13.6399 12.7612 13.6994 12.6149 13.7393 12.4668L18.3184 11.2393L18.0879 10.3789C18.0822 10.3575 18.0762 10.3358 18.0703 10.3145L17.8525 9.5L13.2734 10.7266Z" fill="#3C3C3C"/>
</svg>
