<svg width="24" height="24" viewBox="0 0 24 24" fill="none" xmlns="http://www.w3.org/2000/svg">
<path fill-rule="evenodd" clip-rule="evenodd" d="M12 2.99902C16.9706 2.99902 21 7.03041 21 12.001C20.9995 16.971 16.9702 21.001 12 21.001C7.02981 21.001 3.00053 16.971 3 12.001C3 7.03041 7.02948 2.99902 12 2.99902ZM5.73438 12.6514C5.87915 14.0603 6.48745 15.3324 7.40527 16.3105L7.54492 16.4561L8.81836 15.1826C8.26807 14.6323 7.85946 13.9394 7.65234 13.165L5.73438 12.6514ZM11.665 5.70898C11.6393 5.71033 11.6136 5.71319 11.5879 5.71484C11.5012 5.72044 11.4148 5.72725 11.3291 5.73633C11.3053 5.73885 11.2815 5.74234 11.2578 5.74512C11.1773 5.75456 11.0971 5.76489 11.0176 5.77734C10.9649 5.78559 10.9126 5.79613 10.8604 5.80566C10.8065 5.8155 10.7525 5.82474 10.6992 5.83594C10.6511 5.84603 10.6033 5.85796 10.5557 5.86914C10.4979 5.8827 10.44 5.896 10.3828 5.91113C10.3367 5.92334 10.2908 5.93698 10.2451 5.9502C10.1886 5.96655 10.132 5.98309 10.0762 6.00098C10.0356 6.01396 9.99526 6.02821 9.95508 6.04199C9.89166 6.06375 9.82811 6.08567 9.76562 6.10938C9.72579 6.12449 9.68593 6.14036 9.64648 6.15625C9.59551 6.1768 9.54444 6.19789 9.49414 6.21973C9.47217 6.22925 9.44957 6.23827 9.42773 6.24805L9.42871 6.24902C8.41534 6.70278 7.54354 7.4161 6.89844 8.30469L8.82129 8.81934C9.37507 8.26578 10.0703 7.85398 10.8506 7.64844C11.2175 7.55183 11.6028 7.50098 12 7.50098C14.4853 7.50098 16.5 9.5157 16.5 12.001C16.4997 13.2432 15.9958 14.3685 15.1816 15.1826L16.4551 16.4561L16.5947 16.3105C17.6519 15.1839 18.2996 13.6678 18.2998 12.001C18.2998 9.43745 16.7679 7.23265 14.5703 6.24902L14.5723 6.24805C14.5502 6.23815 14.5271 6.22936 14.5049 6.21973C14.4546 6.1979 14.4035 6.17679 14.3525 6.15625C14.3131 6.14036 14.2732 6.12448 14.2334 6.10938C14.1709 6.08568 14.1074 6.06374 14.0439 6.04199C14.0038 6.02822 13.9634 6.01396 13.9229 6.00098C13.867 5.9831 13.8104 5.96655 13.7539 5.9502C13.7082 5.93698 13.6623 5.92333 13.6162 5.91113C13.5591 5.89601 13.5011 5.88269 13.4434 5.86914C13.3957 5.85797 13.3479 5.84602 13.2998 5.83594C13.2465 5.82475 13.1925 5.81549 13.1387 5.80566C13.0864 5.79614 13.0341 5.78558 12.9814 5.77734C12.9019 5.7649 12.8217 5.75455 12.7412 5.74512C12.7175 5.74234 12.6937 5.73884 12.6699 5.73633C12.5842 5.72727 12.4979 5.72043 12.4111 5.71484C12.3854 5.71319 12.3598 5.71033 12.334 5.70898C12.2234 5.70321 12.112 5.70117 12 5.70117C11.8877 5.70117 11.7759 5.70318 11.665 5.70898ZM5.93555 10.292C5.92585 10.3266 5.91634 10.3617 5.90723 10.3965L5.68164 11.2393L10.2607 12.4668C10.3006 12.6149 10.3601 12.7612 10.4404 12.9004C10.9375 13.7609 12.0387 14.0561 12.8994 13.5596C13.7602 13.0626 14.0552 11.9615 13.5586 11.1006C13.0615 10.2396 11.9606 9.94436 11.0996 10.4414C10.9605 10.5218 10.8361 10.6183 10.7275 10.7266L6.20898 9.51562L6.14746 9.5L5.93555 10.292Z" fill="#3C3C3C"/>
</svg>
