<svg width="24" height="24" viewBox="0 0 24 24" fill="none" xmlns="http://www.w3.org/2000/svg">
<path fill-rule="evenodd" clip-rule="evenodd" d="M19 14.2002C18.9999 16.0778 17.4329 17.5996 15.5 17.5996H12.875V19.2998H18.125V21H12.875C11.9085 21 11.125 20.2387 11.125 19.2998V17.5996H8.5C6.56707 17.5996 5.00011 16.0778 5 14.2002V10.7998H19V14.2002ZM12 12.9248C11.5167 12.9248 11.125 13.3059 11.125 13.7754C11.1252 14.2447 11.5169 14.625 12 14.625C12.4831 14.625 12.8748 14.2447 12.875 13.7754C12.875 13.3059 12.4833 12.9248 12 12.9248Z" fill="#3C3C3C"/>
<path d="M10.25 7.40039H13.75V4H15.5V7.40039H18.125C18.6083 7.40039 19 7.78056 19 8.25V9.9502H5V8.25C5 7.78056 5.39176 7.40039 5.875 7.40039H8.5V4H10.25V7.40039Z" fill="#3C3C3C"/>
</svg>
