<svg width="24" height="24" viewBox="0 0 24 24" fill="none" xmlns="http://www.w3.org/2000/svg">
<path d="M6.13379 14H5.06641V10H6.13379V14Z" fill="#3C3C3C"/>
<path d="M10.4004 14H9.33301V10H10.4004V14Z" fill="#3C3C3C"/>
<path d="M14.666 14H13.5996V10H14.666V14Z" fill="#3C3C3C"/>
<path d="M18.9326 14H17.8662V10H18.9326V14Z" fill="#3C3C3C"/>
<path fill-rule="evenodd" clip-rule="evenodd" d="M6 6H21C21.5523 6 22 6.44772 22 7V17C22 17.5523 21.5523 18 21 18H20V21H18V18H3C2.44772 18 2 17.5523 2 17V7C2 6.44772 2.44772 6 3 6H4V3H6V6ZM4 15H7.2002V9H4V15ZM8.2666 15H11.4668V9H8.2666V15ZM12.5332 15H15.7334V9H12.5332V15ZM16.7998 15H20V9H16.7998V15Z" fill="#3C3C3C"/>
</svg>
