<svg width="24" height="24" viewBox="0 0 24 24" fill="none" xmlns="http://www.w3.org/2000/svg">
<path d="M7 14H5V12H7V14Z" fill="#3C3C3C"/>
<path d="M13 14H11V12H13V14Z" fill="#3C3C3C"/>
<path d="M19 14H17V12H19V14Z" fill="#3C3C3C"/>
<path d="M7 8H5V6H7V8Z" fill="#3C3C3C"/>
<path d="M13 8H11V6H13V8Z" fill="#3C3C3C"/>
<path d="M19 8H17V6H19V8Z" fill="#3C3C3C"/>
<path fill-rule="evenodd" clip-rule="evenodd" d="M21 3C21.5523 3 22 3.44772 22 4V16C22 16.5523 21.5523 17 21 17H15L14.5 19H18V22H6V19H9.5L9 17H3C2.44772 17 2 16.5523 2 16V4C2 3.44772 2.44772 3 3 3H21ZM4 15H8V11H4V15ZM10 15H14V11H10V15ZM16 15H20V11H16V15ZM4 9H8V5H4V9ZM10 9H14V5H10V9ZM16 9H20V5H16V9Z" fill="#3C3C3C"/>
</svg>
