<svg width="24" height="24" viewBox="0 0 24 24" fill="none" xmlns="http://www.w3.org/2000/svg">
<path d="M12.9092 22H11.0908V19.2725H12.9092V22Z" fill="#3C3C3C"/>
<path d="M7.5 17.7852L5.57129 19.7139L4.28613 18.4287L6.21484 16.5L7.5 17.7852Z" fill="#3C3C3C"/>
<path d="M19.7139 18.4287L18.4287 19.7139L16.5 17.7852L17.7852 16.5L19.7139 18.4287Z" fill="#3C3C3C"/>
<path d="M12 6.5459C15.0125 6.5459 17.4541 8.98754 17.4541 12C17.4541 15.0125 15.0125 17.4541 12 17.4541C8.98754 17.4541 6.5459 15.0125 6.5459 12C6.5459 8.98754 8.98754 6.5459 12 6.5459Z" fill="#3C3C3C"/>
<path d="M4.72754 12.9092H2V11.0908H4.72754V12.9092Z" fill="#3C3C3C"/>
<path d="M22 12.9092H19.2725V11.0908H22V12.9092Z" fill="#3C3C3C"/>
<path d="M7.5 6.21484L6.21484 7.5L4.28613 5.57129L5.57129 4.28613L7.5 6.21484Z" fill="#3C3C3C"/>
<path d="M19.7139 5.57129L17.7852 7.5L16.5 6.21484L18.4287 4.28613L19.7139 5.57129Z" fill="#3C3C3C"/>
<path d="M12.9092 4.72754H11.0908V2H12.9092V4.72754Z" fill="#3C3C3C"/>
</svg>
