<svg width="24" height="24" viewBox="0 0 24 24" fill="none" xmlns="http://www.w3.org/2000/svg">
<path fill-rule="evenodd" clip-rule="evenodd" d="M12 2C17.5229 2 22 6.47715 22 12C22 17.5228 17.5229 22 12 22C6.4772 22 2 17.5228 2 12C2 6.47715 6.4772 2 12 2ZM11.0996 10.4414C11.0535 10.4681 11.008 10.4963 10.9639 10.5273C10.8809 10.5859 10.8018 10.6524 10.7275 10.7266C10.3762 11.0779 10.2003 11.5385 10.2002 11.999C10.2002 12.3445 10.2994 12.6898 10.4971 12.9893C10.563 13.0893 10.6395 13.1844 10.7275 13.2725C11.3641 13.9089 12.3573 13.9665 13.0615 13.4502C13.1349 13.3964 13.2071 13.3388 13.2734 13.2725C13.3852 13.1607 13.4775 13.0366 13.5537 12.9062C13.8831 12.3426 13.8799 11.6404 13.5449 11.0791C13.5006 11.0048 13.4524 10.9319 13.3965 10.8633L13.2734 10.7266C13.1598 10.613 13.0341 10.5183 12.9014 10.4414L12.5 6.7002H11.5996L11.0996 10.4414ZM3 12.5H5V11.5H3V12.5ZM19 12.5H21V11.5H19V12.5ZM5.28223 5.98926L6.69629 7.40332L7.40332 6.69629L5.98926 5.28223L5.28223 5.98926ZM16.5967 6.69629L17.3037 7.40332L18.7178 5.98926L18.0107 5.28223L16.5967 6.69629ZM11.5 5H12.5V3H11.5V5Z" fill="#3C3C3C"/>
</svg>
