<svg width="24" height="24" viewBox="0 0 24 24" fill="none" xmlns="http://www.w3.org/2000/svg">
<path d="M14 22H10L11 13H13L14 22Z" fill="#3C3C3C"/>
<path fill-rule="evenodd" clip-rule="evenodd" d="M12.8877 8.20898C13.5465 8.53615 14 9.21452 14 10C14 10.042 13.9957 10.0836 13.9932 10.125L19.1787 13.5674L18.6787 14.4326L13.1074 11.6641C12.7902 11.8756 12.4099 12 12 12C11.5898 12 11.209 11.8759 10.8916 11.6641L5.32227 14.4326L4.82129 13.5674L10.0059 10.124C10.0033 10.083 10 10.0417 10 10C10 9.2153 10.4526 8.5375 11.1104 8.20996L11.5 2H12.5L12.8877 8.20898ZM12 9C11.4477 9 11 9.44772 11 10C11 10.5523 11.4477 11 12 11C12.5523 11 13 10.5523 13 10C13 9.44772 12.5523 9 12 9Z" fill="#3C3C3C"/>
</svg>
