<svg width="24" height="24" viewBox="0 0 24 24" fill="none" xmlns="http://www.w3.org/2000/svg">
<path d="M6.55371 7.2002C5.36922 8.42861 4.63673 10.1255 4.63672 12C4.63672 13.8745 5.36921 15.5714 6.55371 16.7998L5.39648 18C3.91589 16.4645 3 14.3432 3 12C3.00001 9.65679 3.91589 7.5355 5.39648 6L6.55371 7.2002Z" fill="#3C3C3C"/>
<path d="M18.6035 6C20.0842 7.5355 21 9.65679 21 12C21 14.3432 20.0842 16.4645 18.6035 18L17.4463 16.7998C18.6308 15.5714 19.3633 13.8745 19.3633 12C19.3633 10.126 18.6312 8.42951 17.4473 7.20117L18.6035 6Z" fill="#3C3C3C"/>
<path d="M12.8184 11.1514H15.2725L11.1816 17.9395V12.8486H8.72754L12.8184 6.06055V11.1514Z" fill="#3C3C3C"/>
<path d="M8.86719 9.59961C8.27496 10.2138 7.90919 11.0627 7.90918 12C7.90918 12.9372 8.27495 13.7861 8.86719 14.4004L7.71094 15.5996C6.82256 14.6783 6.27246 13.4058 6.27246 12C6.27247 10.5941 6.82257 9.32169 7.71094 8.40039L8.86719 9.59961Z" fill="#3C3C3C"/>
<path d="M16.29 8.40039C17.1779 9.32163 17.7275 10.5945 17.7275 12C17.7275 13.4058 17.1774 14.6783 16.2891 15.5996L15.1328 14.4004C15.7251 13.7861 16.0908 12.9372 16.0908 12C16.0908 11.0632 15.7246 10.2147 15.1328 9.60059L16.29 8.40039Z" fill="#3C3C3C"/>
</svg>
