<svg width="24" height="24" viewBox="0 0 24 24" fill="none" xmlns="http://www.w3.org/2000/svg">
<path d="M23.5352 16.8789L21.4141 19L23.5352 21.1211L22.1211 22.5352L20 20.4141L17.8789 22.5352L16.4648 21.1211L18.5859 19L16.4648 16.8789L17.8789 15.4648L20 17.5859L22.1211 15.4648L23.5352 16.8789Z" fill="#3C3C3C"/>
<path fill-rule="evenodd" clip-rule="evenodd" d="M21 3C21.5523 3 22 3.44772 22 4V13.3418C21.3744 13.1207 20.7013 13 20 13C16.6863 13 14 15.6863 14 19C14 19.7013 14.1207 20.3744 14.3418 21H3C2.44772 21 2 20.5523 2 20V4C2 3.44772 2.44772 3 3 3H21ZM4.35254 7.7627L12.0732 14.3174L19.6543 7.75586L18.3457 6.24414L12.0605 11.6826L5.64746 6.2373L4.35254 7.7627Z" fill="#3C3C3C"/>
</svg>
