<svg width="24" height="24" viewBox="0 0 24 24" fill="none" xmlns="http://www.w3.org/2000/svg">
<path d="M20 18H23L19 22L15 18H18V14H20V18Z" fill="#3C3C3C"/>
<path fill-rule="evenodd" clip-rule="evenodd" d="M21 3C21.5523 3 22 3.44772 22 4V12.8027C21.1175 12.2922 20.0929 12 19 12C15.6863 12 13 14.6863 13 18C13 19.0929 13.2922 20.1175 13.8027 21H3C2.44772 21 2 20.5523 2 20V4C2 3.44772 2.44772 3 3 3H21ZM4.35254 7.7627L12.0732 14.3174L19.6543 7.75586L18.3457 6.24414L12.0605 11.6826L5.64746 6.2373L4.35254 7.7627Z" fill="#3C3C3C"/>
</svg>
