<svg width="24" height="24" viewBox="0 0 24 24" fill="none" xmlns="http://www.w3.org/2000/svg">
<path fill-rule="evenodd" clip-rule="evenodd" d="M21 16.1709C21.351 16.295 21.672 16.4825 21.9492 16.7197L22.9639 16.1338L23.9639 17.8662L22.9502 18.4512C22.983 18.6291 23 18.8127 23 19C23 19.1873 22.983 19.3709 22.9502 19.5488L23.9639 20.1338L22.9639 21.8662L21.9492 21.2803C21.672 21.5175 21.351 21.705 21 21.8291V23H19V21.8291C18.649 21.705 18.328 21.5175 18.0508 21.2803L17.0361 21.8662L16.0361 20.1338L17.0498 19.5488C17.017 19.3709 17 19.1873 17 19C17 18.8127 17.017 18.6291 17.0498 18.4512L16.0361 17.8662L17.0361 16.1338L18.0508 16.7197C18.328 16.4825 18.649 16.295 19 16.1709V15H21V16.1709ZM20 18C19.4477 18 19 18.4477 19 19C19 19.5523 19.4477 20 20 20C20.5523 20 21 19.5523 21 19C21 18.4477 20.5523 18 20 18Z" fill="#3C3C3C"/>
<path fill-rule="evenodd" clip-rule="evenodd" d="M21 3C21.5523 3 22 3.44772 22 4V13.3418C21.3744 13.1207 20.7013 13 20 13C16.6863 13 14 15.6863 14 19C14 19.7013 14.1207 20.3744 14.3418 21H3C2.44772 21 2 20.5523 2 20V4C2 3.44772 2.44772 3 3 3H21ZM4.35254 7.7627L12.0732 14.3174L19.6543 7.75586L18.3457 6.24414L12.0605 11.6826L5.64746 6.2373L4.35254 7.7627Z" fill="#3C3C3C"/>
</svg>
