<svg width="24" height="24" viewBox="0 0 24 24" fill="none" xmlns="http://www.w3.org/2000/svg">
<path fill-rule="evenodd" clip-rule="evenodd" d="M18 13C20.7614 13 23 15.2386 23 18C23 20.7614 20.7614 23 18 23C15.2386 23 13 20.7614 13 18C13 15.2386 15.2386 13 18 13ZM16.707 20.708C17.0985 20.8953 17.5371 21 18 21C19.6569 21 21 19.6569 21 18C21 17.5371 20.8953 17.0985 20.708 16.707L16.707 20.708ZM18 15C16.3431 15 15 16.3431 15 18C15 18.4629 15.1047 18.9015 15.292 19.293L19.293 15.292C18.9015 15.1047 18.4629 15 18 15Z" fill="#3C3C3C"/>
<path d="M21 3C21.5523 3 22 3.44772 22 4V12.2549C20.8662 11.464 19.4872 11 18 11C17.0298 11 16.1056 11.197 15.2656 11.5537L19.6543 7.75586L18.3457 6.24414L12.0605 11.6826L5.64746 6.2373L4.35254 7.7627L12.0557 14.3018C11.3868 15.3748 11 16.6424 11 18C11 19.0736 11.2419 20.0907 11.6738 21H3C2.44772 21 2 20.5523 2 20V4C2 3.44772 2.44772 3 3 3H21Z" fill="#3C3C3C"/>
</svg>
