<svg width="24" height="24" viewBox="0 0 24 24" fill="none" xmlns="http://www.w3.org/2000/svg">
<path fill-rule="evenodd" clip-rule="evenodd" d="M19 13C20.6569 13 22 14.3431 22 16V17H23V22H15V17H16V16C16 14.3431 17.3431 13 19 13ZM19 15C18.4477 15 18 15.4477 18 16V17H20V16C20 15.4477 19.5523 15 19 15Z" fill="#3C3C3C"/>
<path fill-rule="evenodd" clip-rule="evenodd" d="M21 3C21.5523 3 22 3.44772 22 4V12C21.1643 11.3723 20.1256 11 19 11C16.581 11 14.5629 12.7178 14.0996 15H13V21H3C2.44772 21 2 20.5523 2 20V4C2 3.44772 2.44772 3 3 3H21ZM4.35254 7.7627L12.0732 14.3174L19.6543 7.75586L18.3457 6.24414L12.0605 11.6826L5.64746 6.2373L4.35254 7.7627Z" fill="#3C3C3C"/>
</svg>
