<svg width="24" height="24" viewBox="0 0 24 24" fill="none" xmlns="http://www.w3.org/2000/svg">
<path d="M16.0996 3C16.034 3.32309 16 3.65756 16 4C16 5.23672 16.4495 6.36836 17.1934 7.24121L12.0605 11.6826L5.64746 6.2373L4.35254 7.7627L12.0732 14.3174L18.8027 8.49316C19.4658 8.818 20.2118 9 21 9C21.3425 9 21.6769 8.96597 22 8.90039V20C22 20.5523 21.5523 21 21 21H3C2.44772 21 2 20.5523 2 20V4C2 3.44772 2.44772 3 3 3H16.0996Z" fill="#3C3C3C"/>
<path d="M21 1C22.6569 1 24 2.34315 24 4C24 5.65685 22.6569 7 21 7C19.3431 7 18 5.65685 18 4C18 2.34315 19.3431 1 21 1Z" fill="#3C3C3C"/>
</svg>
