<svg width="24" height="24" viewBox="0 0 24 24" fill="none" xmlns="http://www.w3.org/2000/svg">
<path d="M18.1943 15.6592C19.073 14.7805 20.4983 14.7805 21.377 15.6592C22.2552 16.5378 22.2552 17.9622 21.377 18.8408L18.0176 22.1992L14.6592 18.8408C13.7805 17.9621 13.7805 16.5379 14.6592 15.6592C15.5379 14.7805 16.9621 14.7805 17.8408 15.6592L18.0166 15.8359L18.1943 15.6592Z" fill="#3C3C3C"/>
<path d="M12 22H4C4 17.6651 7.44802 14.1356 11.751 14.0039L12 14V22Z" fill="#3C3C3C"/>
<path d="M12 1C15.315 1 18 3.685 18 7C18 10.315 15.315 13 12 13C8.685 13 6 10.315 6 7C6 3.685 8.685 1 12 1Z" fill="#3C3C3C"/>
</svg>
