<svg width="24" height="24" viewBox="0 0 24 24" fill="none" xmlns="http://www.w3.org/2000/svg">
<path fill-rule="evenodd" clip-rule="evenodd" d="M18 13C20.7614 13 23 15.2386 23 18C23 20.7614 20.7614 23 18 23C15.2386 23 13 20.7614 13 18C13 15.2386 15.2386 13 18 13ZM16.2617 15.5547C16.1275 15.6504 15.9994 15.7584 15.8789 15.8789C15.7584 15.9994 15.6504 16.1275 15.5547 16.2617L19.7383 20.4453C19.8725 20.3496 20.0006 20.2416 20.1211 20.1211C20.2416 20.0006 20.3496 19.8725 20.4453 19.7383L16.2617 15.5547Z" fill="#3C3C3C"/>
<path d="M12.252 14.0039C11.4628 15.137 11 16.5145 11 18C11 19.4872 11.464 20.8662 12.2549 22H4C4 17.5817 7.58172 14 12 14C12.0843 14 12.1683 14.0013 12.252 14.0039Z" fill="#3C3C3C"/>
<path d="M12 1C15.3137 1 18 3.68629 18 7C18 10.3137 15.3137 13 12 13C8.68629 13 6 10.3137 6 7C6 3.68629 8.68629 1 12 1Z" fill="#3C3C3C"/>
</svg>
