<svg width="24" height="24" viewBox="0 0 24 24" fill="none" xmlns="http://www.w3.org/2000/svg">
<path fill-rule="evenodd" clip-rule="evenodd" d="M19 14.6445C19.5323 14.803 20.0112 15.0853 20.4043 15.457L21.3975 14.8838L22.3975 16.6162L21.4053 17.1885C21.4671 17.449 21.5 17.7207 21.5 18C21.5 18.2793 21.4671 18.5511 21.4053 18.8115L22.3975 19.3838L21.3975 21.1162L20.4053 20.543C20.0122 20.9149 19.5324 21.1971 19 21.3555V22.5H17V21.3555C16.4677 21.1971 15.9888 20.9148 15.5957 20.543L14.6025 21.1162L13.6025 19.3838L14.5947 18.8115C14.5328 18.5511 14.5 18.2794 14.5 18C14.5 17.7207 14.5329 17.4489 14.5947 17.1885L13.6025 16.6162L14.6025 14.8838L15.5947 15.457C15.9878 15.0852 16.4676 14.803 17 14.6445V13.5H19V14.6445ZM18 17C17.4477 17 17 17.4477 17 18C17 18.5523 17.4477 19 18 19C18.5523 19 19 18.5523 19 18C19 17.4477 18.5523 17 18 17Z" fill="#3C3C3C"/>
<path d="M12 22H4C4 17.5817 7.58172 14 12 14V22Z" fill="#3C3C3C"/>
<path d="M12 1C15.315 1 18 3.685 18 7C18 10.315 15.315 13 12 13C8.685 13 6 10.315 6 7C6 3.685 8.685 1 12 1Z" fill="#3C3C3C"/>
</svg>
