<svg width="24" height="24" viewBox="0 0 24 24" fill="none" xmlns="http://www.w3.org/2000/svg">
<path d="M12 14C12.6906 14 13.3608 14.0875 14 14.252V22H4C4 17.5817 7.58172 14 12 14Z" fill="#3C3C3C"/>
<path d="M22.5352 15.8789L20.4141 18L22.5352 20.1211L21.1211 21.5352L19 19.4141L16.8789 21.5352L15.4648 20.1211L17.5859 18L15.4648 15.8789L16.8789 14.4648L19 16.5859L21.1211 14.4648L22.5352 15.8789Z" fill="#3C3C3C"/>
<path d="M12 1C15.315 1 18 3.685 18 7C18 10.315 15.315 13 12 13C8.685 13 6 10.315 6 7C6 3.685 8.685 1 12 1Z" fill="#3C3C3C"/>
</svg>
