<svg width="24" height="24" viewBox="0 0 24 24" fill="none" xmlns="http://www.w3.org/2000/svg">
<path fill-rule="evenodd" clip-rule="evenodd" d="M15.1719 15.1719C16.734 13.6098 19.266 13.6098 20.8281 15.1719C22.3902 16.734 22.3902 19.266 20.8281 20.8281L18 23.6572L15.1719 20.8281C13.6098 19.266 13.6098 16.734 15.1719 15.1719ZM18 17C17.4477 17 17 17.4477 17 18C17 18.5523 17.4477 19 18 19C18.5523 19 19 18.5523 19 18C19 17.4477 18.5523 17 18 17Z" fill="#3C3C3C"/>
<path d="M12 22H4C4 17.5817 7.58172 14 12 14V22Z" fill="#3C3C3C"/>
<path d="M12 1C15.315 1 18 3.685 18 7C18 10.315 15.315 13 12 13C8.685 13 6 10.315 6 7C6 3.685 8.685 1 12 1Z" fill="#3C3C3C"/>
</svg>
