<svg width="24" height="24" viewBox="0 0 24 24" fill="none" xmlns="http://www.w3.org/2000/svg">
<path fill-rule="evenodd" clip-rule="evenodd" d="M22.6064 21.1924L21.1924 22.6064L17.8828 19.2969C16.1815 20.3756 14.1635 21 12 21C6.60795 20.9999 2.12213 17.1201 1.18164 12C1.61835 9.6227 2.81941 7.51286 4.52051 5.93457L1.39355 2.80762L2.80762 1.39355L22.6064 21.1924ZM7.8291 9.24316C7.30564 10.0335 7.00004 10.981 7 12C7 14.7613 9.23868 16.9998 12 17C13.019 17 13.9673 16.6954 14.7578 16.1719L13.2939 14.708C12.9022 14.8954 12.4631 15 12 15C10.3432 14.9998 9 13.6567 9 12C9.00003 11.5369 9.10563 11.0986 9.29297 10.707L7.8291 9.24316Z" fill="#3C3C3C"/>
<path d="M12 3C17.3921 3 21.8788 6.87978 22.8193 12C22.5071 13.6996 21.8036 15.2631 20.8066 16.5928L16.9473 12.7324C16.9823 12.4934 17 12.2487 17 12C16.9999 9.23862 14.7613 7 12 7C11.7512 7.00001 11.5066 7.01863 11.2676 7.05371L7.97461 3.75977C9.22126 3.26931 10.5792 3.00004 12 3Z" fill="#3C3C3C"/>
</svg>
