<svg width="24" height="24" viewBox="0 0 24 24" fill="none" xmlns="http://www.w3.org/2000/svg">
<path d="M12 12.4988C12.8289 12.4988 13.5009 13.1699 13.501 13.9979C13.501 14.8259 12.8289 15.4969 12 15.4969C11.171 15.4969 10.499 14.8259 10.499 13.9979C10.4991 13.1699 11.171 12.4988 12 12.4988Z" fill="#3C3C3C"/>
<path fill-rule="evenodd" clip-rule="evenodd" d="M11.3271 2.61211C11.7085 2.26536 12.2915 2.26536 12.6729 2.61211L23 11.9998H20V20.9998C20 21.5521 19.5523 21.9998 19 21.9998H5C4.44772 21.9998 4 21.5521 4 20.9998V11.9998H1L11.3271 2.61211ZM10.999 10.6443C10.4667 10.8026 9.98696 11.0845 9.59375 11.4559L8.60156 10.8826L7.60059 12.616L8.5918 13.1883C8.53016 13.4481 8.49806 13.7192 8.49805 13.9979C8.49805 14.2768 8.53007 14.5483 8.5918 14.8084L7.60059 15.3807L8.60156 17.1131L9.59473 16.5408C9.98782 16.9119 10.467 17.1932 10.999 17.3514V18.4959H13.001V17.3514C13.5333 17.1931 14.0121 16.9112 14.4053 16.5398L15.3984 17.1131L16.3994 15.3807L15.4082 14.8084C15.4699 14.5484 15.502 14.2767 15.502 13.9979C15.5019 13.7192 15.4699 13.4481 15.4082 13.1883L16.3994 12.616L15.3984 10.8826L14.4053 11.4559C14.0122 11.0845 13.5332 10.8026 13.001 10.6443V9.49981H10.999V10.6443Z" fill="#3C3C3C"/>
</svg>
