<svg width="24" height="24" viewBox="0 0 24 24" fill="none" xmlns="http://www.w3.org/2000/svg">
<path fill-rule="evenodd" clip-rule="evenodd" d="M14.8594 4C16.873 4.00004 17.953 4.27888 18.9307 4.80176C19.9082 5.32463 20.6754 6.09176 21.1982 7.06934C21.7211 8.04704 22 9.12704 22 11.1406V12.8594C22 14.873 21.7211 15.953 21.1982 16.9307C20.6754 17.9083 19.9082 18.6754 18.9307 19.1982C17.953 19.7211 16.873 20 14.8594 20H9.14062C7.12703 20 6.04696 19.7211 5.06934 19.1982C4.09176 18.6754 3.32461 17.9082 2.80176 16.9307C2.2789 15.953 2.00004 14.873 2 12.8594V11.1406C2.00004 9.12704 2.2789 8.04704 2.80176 7.06934C3.32461 6.09177 4.09175 5.32463 5.06934 4.80176C6.04696 4.27888 7.12703 4.00004 9.14062 4H14.8594ZM5.99902 12.001L10.2422 16.2432L11.6562 14.8291L8.82812 12.001L11.6562 9.17188L10.2422 7.75781L5.99902 12.001ZM13 11V13H18V11H13Z" fill="#3C3C3C"/>
</svg>
