<svg width="24" height="24" viewBox="0 0 24 24" fill="none" xmlns="http://www.w3.org/2000/svg">
<path fill-rule="evenodd" clip-rule="evenodd" d="M20.0039 2C20.5521 2.00017 20.997 2.44454 20.9971 2.99219L21 21.0078C21 21.5442 20.5553 21.9999 20.0068 22H3.99316C3.44482 21.9999 3 21.5555 3 21.0078V2.99219C3 2.45572 3.44465 2.00003 3.99316 2H20.0039ZM10 6C8.34315 6 7 7.34315 7 9V13C7 15.7614 9.23858 18 12 18C14.7614 18 17 15.7614 17 13V8H15V13C15 14.6569 13.6569 16 12 16C10.3431 16 9 14.6569 9 13V9C9 8.44772 9.44772 8 10 8C10.5523 8 11 8.44772 11 9V13C11 13.5523 11.4477 14 12 14C12.5523 14 13 13.5523 13 13V9C13 7.34315 11.6569 6 10 6Z" fill="#3C3C3C"/>
</svg>
