<svg width="24" height="24" viewBox="0 0 24 24" fill="none" xmlns="http://www.w3.org/2000/svg">
<path fill-rule="evenodd" clip-rule="evenodd" d="M18 14C20.2091 14 22 15.7909 22 18C22 18.7418 21.7982 19.4367 21.4463 20.0322L22.9492 21.5352L21.5352 22.9492L20.0322 21.4463C19.4367 21.7982 18.7418 22 18 22C15.7909 22 14 20.2091 14 18C14 15.7909 15.7909 14 18 14ZM18 16C16.8954 16 16 16.8954 16 18C16 19.1046 16.8954 20 18 20C19.1046 20 20 19.1046 20 18C20 16.8954 19.1046 16 18 16Z" fill="#3C3C3C"/>
<path d="M12 22H4C4 17.5817 7.58172 14 12 14V22Z" fill="#3C3C3C"/>
<path d="M12 1C15.315 1 18 3.685 18 7C18 10.315 15.315 13 12 13C8.685 13 6 10.315 6 7C6 3.685 8.685 1 12 1Z" fill="#3C3C3C"/>
</svg>
