<svg width="24" height="24" viewBox="0 0 24 24" fill="none" xmlns="http://www.w3.org/2000/svg">
<path fill-rule="evenodd" clip-rule="evenodd" d="M18 13C20.7614 13 23 15.2386 23 18C23 20.7615 20.7614 23 18 23C15.2386 23 13 20.7614 13 18C13 15.2386 15.2386 13 18 13ZM18.25 15.5C17.0919 15.5 16.138 16.375 16.0137 17.5H15.5V18.5H16.0137C16.138 19.625 17.0919 20.5 18.25 20.5C18.9058 20.5 19.496 20.2192 19.9072 19.7715L19.0566 19.2051C18.8389 19.3892 18.5574 19.5 18.25 19.5C17.6453 19.5 17.1412 19.0706 17.0254 18.5H19.5V17.5H17.0254C17.1412 16.9295 17.6453 16.5 18.25 16.5C18.5574 16.5 18.839 16.6109 19.0566 16.7949L19.9072 16.2285C19.496 15.7808 18.9058 15.5 18.25 15.5Z" fill="#3C3C3C"/>
<path d="M12.252 14.0039C11.4628 15.137 11 16.5145 11 18C11 19.4872 11.464 20.8662 12.2549 22H4C4 17.5817 7.58172 14 12 14C12.0843 14 12.1683 14.0013 12.252 14.0039Z" fill="#3C3C3C"/>
<path d="M12 1C15.3137 1 18 3.68629 18 7C18 10.3137 15.3137 13 12 13C8.68629 13 6 10.3137 6 7C6 3.68629 8.68629 1 12 1Z" fill="#3C3C3C"/>
</svg>
