<svg width="24" height="24" viewBox="0 0 24 24" fill="none" xmlns="http://www.w3.org/2000/svg">
<path d="M12 4C7.5817 4 4 7.58172 4 12C4 12.1729 4.00677 12.3445 4.01758 12.5146C4.03459 12.7825 4.06469 13.0466 4.10742 13.3066C4.42451 15.2354 5.43185 16.9299 6.86719 18.1318L9 16V22H3L5.44629 19.5537C5.41271 19.5246 5.38084 19.4935 5.34766 19.4639C5.28728 19.41 5.22799 19.3551 5.16895 19.2998C5.11766 19.2518 5.06589 19.2043 5.01562 19.1553C4.91084 19.053 4.80823 18.9485 4.70801 18.8418C4.67552 18.8072 4.64431 18.7714 4.6123 18.7363C4.54703 18.6648 4.48215 18.5929 4.41895 18.5195C4.36514 18.457 4.31204 18.3939 4.25977 18.3301C4.21706 18.2779 4.17546 18.2249 4.13379 18.1719C4.05123 18.0668 3.97095 17.96 3.89258 17.8516C3.84458 17.7852 3.79639 17.7189 3.75 17.6514C3.70281 17.5826 3.65781 17.5124 3.6123 17.4424C3.57288 17.3818 3.53325 17.3213 3.49512 17.2598C3.45452 17.1943 3.41509 17.128 3.37598 17.0615C3.32758 16.9793 3.28046 16.8962 3.23438 16.8125C3.20644 16.7617 3.17747 16.7115 3.15039 16.6602C3.08056 16.5279 3.01418 16.3935 2.9502 16.2578C2.92921 16.2133 2.90999 16.1679 2.88965 16.123C2.84275 16.0196 2.79637 15.9158 2.75293 15.8105C2.73457 15.766 2.71598 15.7216 2.69824 15.6768C2.64789 15.5495 2.60088 15.4207 2.55566 15.291C2.54882 15.2714 2.5409 15.2521 2.53418 15.2324L2.52344 15.2002C2.47471 15.0559 2.42993 14.9099 2.3877 14.7627C2.37301 14.7115 2.35959 14.6599 2.3457 14.6084C2.31918 14.51 2.29408 14.4111 2.27051 14.3115C2.25445 14.2437 2.2383 14.1758 2.22363 14.1074C2.20099 14.0019 2.18041 13.8958 2.16113 13.7891C2.13081 13.6212 2.10386 13.452 2.08203 13.2812C2.07858 13.2542 2.07453 13.2273 2.07129 13.2002C2.04606 12.9893 2.02751 12.7763 2.01562 12.5615L2.00879 12.418C2.00825 12.405 2.0083 12.3919 2.00781 12.3789C2.00313 12.2532 2 12.1269 2 12C2 8.37561 3.92793 5.20113 6.81445 3.44727C7.08942 3.28019 7.37352 3.12679 7.66504 2.98633C8.9765 2.35445 10.4468 2 12 2V4Z" fill="#3C3C3C"/>
<path d="M18.5537 4.44629C18.5793 4.4685 18.6036 4.49218 18.6289 4.51465C18.7043 4.58145 18.7782 4.64974 18.8516 4.71875C18.8913 4.75617 18.9316 4.793 18.9707 4.83105C19.0819 4.93923 19.1907 5.04987 19.2969 5.16309C19.3125 5.17973 19.3273 5.19711 19.3428 5.21387C19.4281 5.30612 19.5119 5.39969 19.5938 5.49512C19.6375 5.54616 19.6809 5.59749 19.7236 5.64941C19.7821 5.72041 19.839 5.79262 19.8955 5.86523C19.933 5.91338 19.9712 5.96092 20.0078 6.00977C20.0927 6.12306 20.1748 6.23853 20.2549 6.35547C20.293 6.4111 20.3292 6.46798 20.3662 6.52441C20.4157 6.5999 20.4642 6.67604 20.5117 6.75293C20.5487 6.81281 20.5853 6.87289 20.6211 6.93359C20.6703 7.01708 20.7179 7.1015 20.7646 7.18652C20.7926 7.23731 20.8215 7.28755 20.8486 7.33887C20.9198 7.47374 20.9876 7.61059 21.0527 7.74902C21.0687 7.78302 21.084 7.81736 21.0996 7.85156C21.1501 7.96216 21.1986 8.07381 21.2451 8.18652C21.2638 8.2317 21.2828 8.27675 21.3008 8.32227C21.3539 8.45656 21.4037 8.59242 21.4512 8.72949C21.4546 8.73932 21.4585 8.74895 21.4619 8.75879C21.5163 8.91744 21.5658 9.07809 21.6123 9.24023C21.624 9.28113 21.6353 9.32217 21.6465 9.36328C21.6783 9.47996 21.7077 9.59749 21.7354 9.71582C21.748 9.77013 21.7616 9.82427 21.7734 9.87891C21.797 9.98792 21.8179 10.0977 21.8379 10.208C21.8684 10.3765 21.8951 10.5464 21.917 10.7178C21.9197 10.7389 21.9232 10.76 21.9258 10.7812C21.9562 11.0315 21.9767 11.2845 21.9883 11.54C21.9895 11.5667 21.9902 11.5934 21.9912 11.6201C21.9959 11.7462 22 11.8728 22 12C22 15.6244 20.0721 18.7989 17.1855 20.5527C16.9106 20.7198 16.6265 20.8732 16.335 21.0137C15.0235 21.6455 13.5532 22 12 22V20C16.4183 20 20 16.4183 20 12C20 10.0211 19.2803 8.21105 18.0898 6.81445C18.0484 6.76583 18.0055 6.71851 17.9629 6.6709C17.8331 6.52578 17.6985 6.38529 17.5586 6.25C17.4869 6.18069 17.4141 6.11252 17.3398 6.0459C17.2937 6.00446 17.2473 5.96323 17.2002 5.92285C17.1779 5.90377 17.1553 5.88505 17.1328 5.86621L15 8V2H21L18.5537 4.44629Z" fill="#3C3C3C"/>
</svg>
