<svg width="24" height="24" viewBox="0 0 24 24" fill="none" xmlns="http://www.w3.org/2000/svg">
<path d="M22 12C22 13.5532 21.6456 15.0235 21.0137 16.335C20.8732 16.6265 20.7198 16.9106 20.5527 17.1855C18.7989 20.0721 15.6244 22 12 22C11.8731 22 11.7468 21.9969 11.6211 21.9922C11.6081 21.9917 11.595 21.9917 11.582 21.9912L11.4385 21.9844C11.2237 21.9725 11.0107 21.9539 10.7998 21.9287C10.7727 21.9255 10.7458 21.9214 10.7188 21.918C10.548 21.8961 10.3788 21.8692 10.2109 21.8389C10.1042 21.8196 9.99808 21.799 9.89258 21.7764C9.82421 21.7617 9.75632 21.7455 9.68848 21.7295C9.58891 21.7059 9.48999 21.6808 9.3916 21.6543C9.34007 21.6404 9.2885 21.627 9.2373 21.6123C9.09012 21.5701 8.94412 21.5253 8.7998 21.4766L8.76758 21.4658C8.74789 21.4591 8.72862 21.4512 8.70898 21.4443C8.57925 21.3991 8.45048 21.3521 8.32324 21.3018C8.27841 21.284 8.23397 21.2654 8.18945 21.2471C8.08418 21.2036 7.98038 21.1572 7.87695 21.1104C7.83207 21.09 7.78672 21.0708 7.74219 21.0498C7.60646 20.9858 7.47214 20.9194 7.33984 20.8496C7.28853 20.8225 7.23829 20.7936 7.1875 20.7656C7.10376 20.7195 7.02073 20.6724 6.93848 20.624C6.87197 20.5849 6.80575 20.5455 6.74023 20.5049C6.67872 20.4667 6.61823 20.4271 6.55762 20.3877C6.48763 20.3422 6.4174 20.2972 6.34863 20.25C6.28106 20.2036 6.2148 20.1554 6.14844 20.1074C6.04003 20.029 5.93321 19.9488 5.82812 19.8662C5.77511 19.8245 5.72207 19.7829 5.66992 19.7402C5.60608 19.688 5.54298 19.6349 5.48047 19.5811C5.40707 19.5179 5.3352 19.453 5.26367 19.3877C5.22859 19.3557 5.19282 19.3245 5.1582 19.292C5.05146 19.1918 4.94699 19.0892 4.84473 18.9844C4.79565 18.9341 4.74821 18.8823 4.7002 18.8311C4.64493 18.772 4.58997 18.7127 4.53613 18.6523C4.50653 18.6192 4.47545 18.5873 4.44629 18.5537L2 21V15H8L5.86816 17.1328C7.07008 18.5681 8.76464 19.5755 10.6934 19.8926C10.9534 19.9353 11.2175 19.9654 11.4854 19.9824C11.6555 19.9932 11.8271 20 12 20C16.4183 20 20 16.4183 20 12H22Z" fill="#3C3C3C"/>
<path d="M12.3799 2.00879C12.4066 2.00979 12.4333 2.01051 12.46 2.01172C12.7155 2.02329 12.9685 2.04382 13.2188 2.07422C13.24 2.0768 13.2611 2.0803 13.2822 2.08301C13.4536 2.10494 13.6235 2.13162 13.792 2.16211C13.9023 2.18207 14.0121 2.20301 14.1211 2.22656C14.1757 2.23836 14.2299 2.25196 14.2842 2.26465C14.4025 2.29231 14.52 2.3217 14.6367 2.35352C14.6778 2.36472 14.7189 2.37598 14.7598 2.3877C14.9219 2.43416 15.0826 2.48375 15.2412 2.53809C15.2511 2.54146 15.2607 2.54543 15.2705 2.54883C15.4076 2.59626 15.5434 2.64607 15.6777 2.69922C15.7232 2.71723 15.7683 2.73623 15.8135 2.75488C15.9262 2.80143 16.0378 2.84989 16.1484 2.90039C16.1826 2.91601 16.217 2.93128 16.251 2.94727C16.3894 3.01239 16.5263 3.08017 16.6611 3.15137C16.7124 3.17845 16.7627 3.20741 16.8135 3.23535C16.8985 3.28215 16.9829 3.32973 17.0664 3.37891C17.1271 3.41466 17.1872 3.4513 17.2471 3.48828C17.324 3.53578 17.4001 3.58428 17.4756 3.63379C17.532 3.67079 17.5889 3.70701 17.6445 3.74512C17.7615 3.82524 17.8769 3.9073 17.9902 3.99219C18.0391 4.02878 18.0866 4.06703 18.1348 4.10449C18.2074 4.161 18.2796 4.21792 18.3506 4.27637C18.4025 4.31911 18.4538 4.36249 18.5049 4.40625C18.6003 4.48807 18.6939 4.57192 18.7861 4.65723C18.8029 4.67272 18.8203 4.68752 18.8369 4.70312C18.9501 4.80925 19.0608 4.91806 19.1689 5.0293C19.207 5.06843 19.2438 5.10869 19.2812 5.14844C19.3503 5.22176 19.4186 5.29572 19.4854 5.37109C19.5078 5.39644 19.5315 5.42071 19.5537 5.44629L22 3V9H16L18.1338 6.86719C18.1149 6.84469 18.0962 6.82209 18.0771 6.7998C18.0368 6.75267 17.9955 6.70634 17.9541 6.66016C17.8875 6.58589 17.8193 6.51312 17.75 6.44141C17.6147 6.30148 17.4742 6.16689 17.3291 6.03711C17.2815 5.99451 17.2342 5.95162 17.1855 5.91016C15.789 4.71974 13.9789 4 12 4C7.5817 4 4 7.5817 4 12H2C2 10.4468 2.35446 8.97649 2.98633 7.66504C3.12679 7.37352 3.28019 7.08942 3.44727 6.81445C5.20114 3.92791 8.37562 2 12 2C12.1272 2 12.2538 2.00408 12.3799 2.00879Z" fill="#3C3C3C"/>
</svg>
