<svg width="24" height="24" viewBox="0 0 24 24" fill="none" xmlns="http://www.w3.org/2000/svg">
<path fill-rule="evenodd" clip-rule="evenodd" d="M14 5.29102C15.0642 5.60779 16.0216 6.17084 16.8076 6.91406L18.7939 5.76758L20.7939 9.23242L18.8086 10.3779C18.9322 10.8987 19 11.4414 19 12C19 12.5582 18.9321 13.1006 18.8086 13.6211L20.7949 14.7686L18.7949 18.2324L16.8076 17.085C16.0216 17.8283 15.0643 18.3912 14 18.708V21H10V18.708C8.93545 18.3911 7.9775 17.8286 7.19141 17.085L5.20605 18.2324L3.20605 14.7676L5.19043 13.6211C5.067 13.1007 5 12.5582 5 12C5 11.4412 5.06672 10.8979 5.19043 10.377L3.20605 9.23145L5.20605 5.76758L7.19141 6.91406C7.97747 6.1706 8.93557 5.60786 10 5.29102V3H14V5.29102ZM12 9.375C10.5503 9.375 9.375 10.5503 9.375 12C9.375 13.4497 10.5503 14.625 12 14.625C13.4497 14.625 14.625 13.4497 14.625 12C14.625 10.5503 13.4497 9.375 12 9.375Z" fill="#3C3C3C"/>
</svg>
