<svg width="24" height="24" viewBox="0 0 24 24" fill="none" xmlns="http://www.w3.org/2000/svg">
<path d="M11.8184 9C13.4752 9 14.8184 10.3431 14.8184 12C14.8184 13.6569 13.4752 15 11.8184 15C10.1616 14.9998 8.81836 13.6568 8.81836 12C8.81836 10.3432 10.1616 9.00016 11.8184 9Z" fill="#3C3C3C"/>
<path fill-rule="evenodd" clip-rule="evenodd" d="M11.8184 3C17.2105 3 21.6972 6.87976 22.6377 12C21.6972 17.1202 17.2105 21 11.8184 21C6.42631 20.9999 1.94049 17.1201 1 12C1.94049 6.87986 6.42631 3.00014 11.8184 3ZM11.8184 7C9.05704 7.00016 6.81836 9.23868 6.81836 12C6.81836 14.7613 9.05704 16.9998 11.8184 17C14.5798 17 16.8184 14.7614 16.8184 12C16.8184 9.23858 14.5798 7 11.8184 7Z" fill="#3C3C3C"/>
</svg>
