<svg width="24" height="24" viewBox="0 0 24 24" fill="none" xmlns="http://www.w3.org/2000/svg">
<path fill-rule="evenodd" clip-rule="evenodd" d="M12.8594 2C14.873 2.00004 15.953 2.27888 16.9307 2.80176C17.9083 3.32463 18.6754 4.09178 19.1982 5.06934C19.7211 6.04704 20 7.12704 20 9.14062V14.8594C20 16.873 19.7211 17.953 19.1982 18.9307C18.6754 19.9082 17.9082 20.6754 16.9307 21.1982C15.953 21.7211 14.873 22 12.8594 22H11.1406C9.12704 22 8.04704 21.7211 7.06934 21.1982C6.09178 20.6754 5.32463 19.9083 4.80176 18.9307C4.27888 17.953 4.00004 16.873 4 14.8594V9.14062C4.00004 7.12704 4.27888 6.04704 4.80176 5.06934C5.32463 4.09176 6.09176 3.32463 7.06934 2.80176C8.04704 2.27888 9.12704 2.00004 11.1406 2H12.8594ZM12.001 15.1719L9.17188 12.3438L7.75781 13.7578L12.001 18.001L16.2432 13.7578L14.8291 12.3438L12.001 15.1719ZM11 6V11H13V6H11Z" fill="#3C3C3C"/>
</svg>
