<svg width="24" height="24" viewBox="0 0 24 24" fill="none" xmlns="http://www.w3.org/2000/svg">
<path d="M9.38304 4.7251C11.3799 2.72855 14.2818 2.19241 16.7639 3.10987C17.0833 3.22807 17.3208 3.50086 17.3938 3.8335C17.4666 4.16625 17.3651 4.51347 17.1243 4.7544L14.7678 7.11084C14.1827 7.69659 14.1825 8.64632 14.7678 9.23194C15.3534 9.81753 16.3031 9.81719 16.8889 9.23194L19.2493 6.87256C19.49 6.63188 19.8365 6.52962 20.1692 6.60205C20.5017 6.67456 20.775 6.91202 20.8938 7.23096C21.818 9.71592 21.2825 12.6242 19.2825 14.6245C17.3073 16.5998 14.4472 17.1462 11.9817 16.269L7.96898 20.2817C6.79749 21.4532 4.89838 21.4531 3.72679 20.2817C2.55522 19.1101 2.55522 17.2102 3.72679 16.0386L7.73949 12.0269C6.86231 9.56132 7.40775 6.70038 9.38304 4.7251Z" fill="#3C3C3C"/>
</svg>
