<svg width="24" height="24" viewBox="0 0 24 24" fill="none" xmlns="http://www.w3.org/2000/svg">
<path fill-rule="evenodd" clip-rule="evenodd" d="M21 7V21.0078C21 21.5555 20.5552 21.9999 20.0068 22H3.99316C3.44463 21.9999 3 21.5442 3 21.0078V2.99219C3 2.44452 3.44482 2.00013 3.99316 2H16L21 7ZM11 17H13V15H11V17ZM12 6.5C10.302 6.5 8.88644 7.70921 8.56738 9.31348L10.5283 9.70605C10.6651 9.01851 11.2723 8.5 12 8.5C12.8284 8.5 13.5 9.17157 13.5 10C13.5 10.8284 12.8284 11.5 12 11.5C11.4477 11.5 11 11.9477 11 12.5V14H13V13.3555C14.4457 12.9252 15.5 11.5855 15.5 10C15.5 8.067 13.933 6.5 12 6.5Z" fill="#3C3C3C"/>
</svg>
