<svg width="24" height="24" viewBox="0 0 24 24" fill="none" xmlns="http://www.w3.org/2000/svg">
<path fill-rule="evenodd" clip-rule="evenodd" d="M21 7V21.0078C21 21.5555 20.5552 21.9999 20.0068 22H3.99316C3.44463 21.9999 3 21.5442 3 21.0078V2.99219C3 2.44452 3.44482 2.00013 3.99316 2H16L21 7ZM7.25 14.3643V16.4854H16.25V15.4854H10.3711L14.3213 11.5352L12.2002 9.41406L7.25 14.3643ZM14.6748 7.64648C14.4796 7.45126 14.1631 7.45134 13.9678 7.64648L12.9072 8.70703L15.0283 10.8281L16.0889 9.76758C16.284 9.57231 16.2841 9.25577 16.0889 9.06055L14.6748 7.64648Z" fill="#3C3C3C"/>
</svg>
