<svg width="24" height="24" viewBox="0 0 24 24" fill="none" xmlns="http://www.w3.org/2000/svg">
<path fill-rule="evenodd" clip-rule="evenodd" d="M21 7V21.0078C21 21.5555 20.5552 21.9999 20.0068 22H3.99316C3.44463 21.9999 3 21.5442 3 21.0078V2.99219C3 2.44452 3.44482 2.00013 3.99316 2H16L21 7ZM9.90039 8.34766C9.67952 8.34766 9.50005 8.5262 9.5 8.74707V15.252C9.5 15.331 9.52358 15.4089 9.56738 15.4746C9.68995 15.6582 9.93837 15.7075 10.1221 15.585L15.001 12.333C15.0448 12.3037 15.082 12.2655 15.1113 12.2217C15.2339 12.0379 15.1847 11.7895 15.001 11.667L10.1221 8.41406C10.0565 8.37033 9.97925 8.34773 9.90039 8.34766Z" fill="#3C3C3C"/>
</svg>
