<svg width="24" height="24" viewBox="0 0 24 24" fill="none" xmlns="http://www.w3.org/2000/svg">
<path fill-rule="evenodd" clip-rule="evenodd" d="M21 7V21.0078C21 21.5555 20.5552 21.9999 20.0068 22H3.99316C3.44463 21.9999 3 21.5442 3 21.0078V2.99219C3 2.44452 3.44482 2.00013 3.99316 2H16L21 7ZM12 13C9.68372 13 7.77607 14.75 7.52734 17H16.4727C16.224 14.75 14.3163 13 12 13ZM12 6.5C10.6193 6.5 9.5 7.61929 9.5 9C9.5 10.3807 10.6193 11.5 12 11.5C13.3807 11.5 14.5 10.3807 14.5 9C14.5 7.61929 13.3807 6.5 12 6.5Z" fill="#3C3C3C"/>
</svg>
