<svg width="24" height="24" viewBox="0 0 24 24" fill="none" xmlns="http://www.w3.org/2000/svg">
<path d="M14 13.6006C13.9999 13.7582 13.9101 13.9176 13.7402 14.0254L12 15.1309L10.2598 14.0254C10.0899 13.9176 10.0001 13.7582 10 13.6006V10H14V13.6006Z" fill="#3C3C3C"/>
<path fill-rule="evenodd" clip-rule="evenodd" d="M21 7V20.9922C21 21.5507 20.5553 21.9999 20.0068 22H3.99316C3.44482 21.9999 3 21.5555 3 21.0078V2.99219C3 2.45577 3.44682 2.00012 3.99805 2H15.9971L21 7ZM8 13.6006C8.00014 14.4498 8.44574 15.2428 9.1875 15.7139L12 17.5L14.8125 15.7139C15.5543 15.2428 15.9999 14.4498 16 13.6006V8H8V13.6006Z" fill="#3C3C3C"/>
</svg>
