<svg width="24" height="24" viewBox="0 0 24 24" fill="none" xmlns="http://www.w3.org/2000/svg">
<path d="M12.25 9.5C12.9058 9.5 13.496 9.7808 13.9072 10.2285L13.0566 10.7949C12.839 10.6109 12.5574 10.5 12.25 10.5C11.6453 10.5 11.1412 10.9295 11.0254 11.5H13.5V12.5H11.0254C11.1412 13.0705 11.6453 13.5 12.25 13.5C12.5574 13.5 12.8389 13.3892 13.0566 13.2051L13.9072 13.7715C13.496 14.2192 12.9058 14.5 12.25 14.5C11.0919 14.5 10.138 13.625 10.0137 12.5H9.5V11.5H10.0137C10.138 10.375 11.0919 9.50001 12.25 9.5Z" fill="#3C3C3C"/>
<path fill-rule="evenodd" clip-rule="evenodd" d="M21 7V21.0078C21 21.5555 20.5552 21.9999 20.0068 22H3.99316C3.44463 21.9999 3 21.5442 3 21.0078V2.99219C3 2.44452 3.44482 2.00013 3.99316 2H16L21 7ZM12 7C9.23857 7.00001 7 9.2386 7 12C7.00001 14.7614 9.23858 17 12 17C14.7614 17 17 14.7614 17 12C17 9.2386 14.7614 7 12 7Z" fill="#3C3C3C"/>
</svg>
