<svg width="24" height="24" viewBox="0 0 24 24" fill="none" xmlns="http://www.w3.org/2000/svg">
<path d="M10.083 9.58594C10.8641 8.80502 12.1302 8.80493 12.9111 9.58594C13.692 10.3669 13.6921 11.6331 12.9111 12.4141C12.1302 13.1951 10.8641 13.195 10.083 12.4141C9.30197 11.6331 9.30197 10.3669 10.083 9.58594Z" fill="#3C3C3C"/>
<path fill-rule="evenodd" clip-rule="evenodd" d="M21 7V21.0078C21 21.5555 20.5552 21.9999 20.0068 22H3.99316C3.44463 21.9999 3 21.5442 3 21.0078V2.99219C3 2.44452 3.44482 2.00013 3.99316 2H16L21 7ZM14.3252 8.17188C12.7631 6.60978 10.2301 6.60978 8.66797 8.17188C7.10636 9.73389 7.10635 12.2661 8.66797 13.8281C9.98591 15.1461 11.9954 15.3523 13.5293 14.4463L15.7393 16.6572L17.1533 15.2422L14.9434 13.0322C15.8493 11.4984 15.643 9.4898 14.3252 8.17188Z" fill="#3C3C3C"/>
</svg>
