<svg width="24" height="24" viewBox="0 0 24 24" fill="none" xmlns="http://www.w3.org/2000/svg">
<path fill-rule="evenodd" clip-rule="evenodd" d="M21 7V21.0078C21 21.5555 20.5552 21.9999 20.0068 22H3.99316C3.44463 21.9999 3 21.5442 3 21.0078V2.99219C3 2.44452 3.44482 2.00013 3.99316 2H16L21 7ZM7 10.9512C6.72386 10.9512 6.5 11.1777 6.5 11.4561V16.4961C6.50007 16.7744 6.7239 17 7 17H8.5V10.9512H7ZM13.1738 7.05078C13.0743 6.97553 12.9346 6.98553 12.8467 7.07422L9.64648 10.2998C9.55273 10.3943 9.50001 10.5226 9.5 10.6562V16.4961C9.50007 16.7744 9.7239 17 10 17H15.415C15.6176 17 15.8008 16.8764 15.8779 16.6875L17.4248 12.9004C17.4745 12.7788 17.5 12.6482 17.5 12.5166V11.4561C17.5 10.8993 17.0523 10.4473 16.5 10.4473H13.2998L13.877 8.16406C13.9516 7.86819 13.8419 7.55626 13.5996 7.37305L13.1738 7.05078Z" fill="#3C3C3C"/>
</svg>
