<svg width="24" height="24" viewBox="0 0 24 24" fill="none" xmlns="http://www.w3.org/2000/svg">
<path d="M10.5 12H9.5V11H10.5V12Z" fill="#3C3C3C"/>
<path d="M12.5 12H11.5V11H12.5V12Z" fill="#3C3C3C"/>
<path d="M14.5 12H13.5V11H14.5V12Z" fill="#3C3C3C"/>
<path fill-rule="evenodd" clip-rule="evenodd" d="M21 7V21.0078C21 21.5555 20.5552 21.9999 20.0068 22H3.99316C3.44463 21.9999 3 21.5442 3 21.0078V2.99219C3 2.44452 3.44482 2.00013 3.99316 2H16L21 7ZM7.5 7.5C7.22386 7.5 7 7.72386 7 8V17.25L9.22754 15.5H16.5C16.7761 15.5 17 15.2761 17 15V8C17 7.72386 16.7761 7.5 16.5 7.5H7.5Z" fill="#3C3C3C"/>
</svg>
