<svg width="24" height="24" viewBox="0 0 24 24" fill="none" xmlns="http://www.w3.org/2000/svg">
<path d="M12 10.5C12.8284 10.5 13.5 11.1716 13.5 12C13.5 12.8284 12.8284 13.5 12 13.5C11.1716 13.5 10.5 12.8284 10.5 12C10.5 11.1716 11.1716 10.5 12 10.5Z" fill="#3C3C3C"/>
<path fill-rule="evenodd" clip-rule="evenodd" d="M21 7V21.0078C21 21.5555 20.5552 21.9999 20.0068 22H3.99316C3.44463 21.9999 3 21.5442 3 21.0078V2.99219C3 2.44452 3.44482 2.00013 3.99316 2H16L21 7ZM11 8.64453C10.4677 8.80294 9.98877 9.08527 9.5957 9.45703L8.60254 8.88379L7.60254 10.6162L8.59473 11.1885C8.53291 11.4489 8.5 11.7207 8.5 12C8.5 12.2794 8.5329 12.5511 8.59473 12.8115L7.60254 13.3838L8.60254 15.1162L9.5957 14.543C9.9888 14.9148 10.4677 15.1971 11 15.3555V16.5H13V15.3555C13.5324 15.1971 14.0122 14.9149 14.4053 14.543L15.3975 15.1162L16.3975 13.3838L15.4053 12.8115C15.4671 12.5511 15.5 12.2793 15.5 12C15.5 11.7207 15.4672 11.449 15.4053 11.1885L16.3975 10.6162L15.3975 8.88379L14.4043 9.45703C14.0112 9.08526 13.5323 8.80294 13 8.64453V7.5H11V8.64453Z" fill="#3C3C3C"/>
</svg>
