<svg width="24" height="24" viewBox="0 0 24 24" fill="none" xmlns="http://www.w3.org/2000/svg">
<path d="M14.1045 3.04887C13.9055 3.62474 13.7959 4.2441 13.7959 4.88969C13.7959 7.94022 16.2131 10.4131 19.1943 10.4131C19.8252 10.4131 20.4304 10.3012 20.9932 10.0977V16.8575C20.9932 17.3659 20.5906 17.7784 20.0938 17.7784H7.00684L3 21V3.96976C3.00002 3.46145 3.40267 3.04901 3.89941 3.04887H14.1045Z" fill="#3C3C3C"/>
<path d="M18.7705 1.50199C18.9293 1.11002 19.4594 1.11001 19.6182 1.50199L19.8457 2.06449C20.2343 3.0243 20.9588 3.79125 21.8701 4.20609L22.5156 4.50004C22.8847 4.66835 22.8847 5.21744 22.5156 5.38578L21.833 5.6973C20.9445 6.10169 20.2323 6.84121 19.8369 7.76957L19.6143 8.29008C19.4519 8.67119 18.9368 8.67113 18.7744 8.29008L18.5518 7.76957C18.1563 6.84118 17.4443 6.10169 16.5557 5.6973L15.8721 5.38578C15.5034 5.21733 15.5034 4.66842 15.8721 4.50004L16.5176 4.20609C17.4289 3.79125 18.1544 3.02438 18.543 2.06449L18.7705 1.50199Z" fill="#3C3C3C"/>
</svg>
