<svg width="24" height="24" viewBox="0 0 24 24" fill="none" xmlns="http://www.w3.org/2000/svg">
<path fill-rule="evenodd" clip-rule="evenodd" d="M20.0996 4C20.5966 4 20.9999 4.41316 21 4.92285V17.8457C21 18.3555 20.5967 18.7695 20.0996 18.7695H7.00879L3 22V4.92285C3.00012 4.41316 3.40341 4 3.90039 4H20.0996ZM11.0996 16H12.9004V14.1543H11.0996V16ZM12 6.76953C10.4718 6.76953 9.19731 7.88535 8.91016 9.36621L10.6758 9.72852C10.7989 9.09386 11.3451 8.61523 12 8.61523C12.7456 8.61523 13.3496 9.2353 13.3496 10C13.3496 10.7647 12.7456 11.3848 12 11.3848H11.0996V13.2305H12C13.7397 13.2305 15.1504 11.7843 15.1504 10C15.1504 8.21569 13.7397 6.76953 12 6.76953Z" fill="#3C3C3C"/>
</svg>
