<svg width="24" height="24" viewBox="0 0 24 24" fill="none" xmlns="http://www.w3.org/2000/svg">
<path fill-rule="evenodd" clip-rule="evenodd" d="M20.0996 4C20.5945 4 20.9999 4.41526 21 4.92285V17.8457C21 18.3534 20.5946 18.7695 20.0996 18.7695H7.00488L3 22V4.92285C3.00012 4.41526 3.40546 4 3.90039 4H20.0996ZM7.9502 10.4248C7.69833 10.4248 7.50021 10.6275 7.5 10.8857V15.5381C7.5 15.7873 7.6982 16 7.9502 16H9.2998V10.4248H7.9502ZM13.5029 6.81543C13.4129 6.7416 13.287 6.75091 13.2061 6.83398L10.3262 9.81543C10.2362 9.90768 10.1915 10.0275 10.1914 10.1475V15.5381C10.1914 15.7872 10.3888 15.9998 10.6406 16H15.5186C15.6985 16 15.8606 15.8892 15.9326 15.7139L17.3281 12.2158C17.3731 12.1051 17.4004 11.9843 17.4004 11.8643V10.877C17.4004 10.36 16.995 9.94434 16.5 9.94434H13.6201L14.1416 7.83984C14.2046 7.57217 14.1056 7.27649 13.8896 7.11035L13.5029 6.81543Z" fill="#3C3C3C"/>
</svg>
