<svg width="24" height="24" viewBox="0 0 24 24" fill="none" xmlns="http://www.w3.org/2000/svg">
<path fill-rule="evenodd" clip-rule="evenodd" d="M20.0996 4C20.5945 4 20.9999 4.41526 21 4.92285V17.8457C21 18.3534 20.5946 18.7695 20.0996 18.7695H7.00488L3 22V4.92285C3.00012 4.41526 3.40546 4 3.90039 4H20.0996ZM10.6406 6.76953C10.3889 6.76973 10.1916 6.97228 10.1914 7.23047V12.6123C10.1914 12.7415 10.2452 12.8613 10.3262 12.9443L13.2061 15.9258C13.2871 16.0089 13.4129 16.0182 13.5029 15.9443L13.8896 15.6494C14.1146 15.4833 14.2046 15.1968 14.1416 14.9199L13.6201 12.8154H16.5C16.995 12.8154 17.4004 12.3997 17.4004 11.8828V10.9043C17.4003 10.7844 17.3731 10.6644 17.3281 10.5537L15.9326 7.05566C15.8696 6.88028 15.6986 6.76953 15.5186 6.76953H10.6406ZM7.9502 6.76953C7.69829 6.76953 7.50015 6.97215 7.5 7.23047V11.8926C7.50014 12.1417 7.69829 12.3535 7.9502 12.3535H9.2998V6.76953H7.9502Z" fill="#3C3C3C"/>
</svg>
