<svg width="24" height="24" viewBox="0 0 24 24" fill="none" xmlns="http://www.w3.org/2000/svg">
<path d="M12.4004 10H14V10.7998H11.5996V8H12.4004V10Z" fill="#3C3C3C"/>
<path fill-rule="evenodd" clip-rule="evenodd" d="M20.0996 3C20.5966 3 20.9999 3.41316 21 3.92285V16.8457C21 17.3555 20.5967 17.7695 20.0996 17.7695H7.00879L3 21V3.92285C3.00012 3.41316 3.40341 3 3.90039 3H20.0996ZM12 6C9.79086 6 8 7.79086 8 10C8 12.2091 9.79086 14 12 14C14.2091 14 16 12.2091 16 10C16 7.79086 14.2091 6 12 6Z" fill="#3C3C3C"/>
</svg>
