<svg width="24" height="24" viewBox="0 0 24 24" fill="none" xmlns="http://www.w3.org/2000/svg">
<path fill-rule="evenodd" clip-rule="evenodd" d="M20.0996 4C20.5966 4 20.9999 4.41316 21 4.92285V17.8457C21 18.3555 20.5967 18.7695 20.0996 18.7695H7.00879L3 22V4.92285C3.00012 4.41316 3.40341 4 3.90039 4H20.0996ZM15.0391 8.76172C14.2483 7.95079 12.9656 7.95078 12.1748 8.76172L12.0156 8.92578L11.8564 8.76172C11.0657 7.95117 9.78385 7.95104 8.99316 8.76172C8.20237 9.57279 8.20241 10.8881 8.99316 11.6992L12.0156 14.7998L15.0391 11.6992C15.8297 10.8881 15.8298 9.57274 15.0391 8.76172Z" fill="#3C3C3C"/>
</svg>
