<svg width="24" height="24" viewBox="0 0 24 24" fill="none" xmlns="http://www.w3.org/2000/svg">
<path fill-rule="evenodd" clip-rule="evenodd" d="M20.0996 4C20.5966 4 20.9999 4.41316 21 4.92285V17.8457C21 18.3555 20.5967 18.7695 20.0996 18.7695H7.00977L3 22V4.92285C3.00012 4.41316 3.40341 4 3.90039 4H20.0996ZM10.6641 8.07227C9.05584 8.78782 7.95036 10.2356 7.9502 11.8506C7.9502 12.7689 8.1985 13.3361 8.66211 13.8408C8.95395 14.1586 9.41654 14.3848 9.89941 14.3848C10.769 14.3845 11.4735 13.6614 11.4736 12.7695C11.4736 11.92 10.8342 11.2365 10.0225 11.1592C9.8773 11.1453 9.73041 11.1472 9.59082 11.167V11.083C9.59558 10.6762 9.68006 9.47684 11.0654 8.70801L10.6641 8.07227ZM15.1641 8.07227C13.5559 8.78782 12.4504 10.2356 12.4502 11.8506C12.4502 12.7689 12.6985 13.3361 13.1621 13.8408C13.454 14.1586 13.9166 14.3848 14.3994 14.3848C15.269 14.3846 15.9735 13.6614 15.9736 12.7695C15.9736 11.92 15.3342 11.2365 14.5225 11.1592C14.3773 11.1453 14.2304 11.1472 14.0908 11.167V11.083C14.0956 10.6762 14.1801 9.47684 15.5654 8.70801L15.1641 8.07227Z" fill="#3C3C3C"/>
</svg>
