<svg width="24" height="24" viewBox="0 0 24 24" fill="none" xmlns="http://www.w3.org/2000/svg">
<path fill-rule="evenodd" clip-rule="evenodd" d="M18.2979 13.1475C20.2855 13.1477 21.8964 14.7993 21.8965 16.8369C21.8965 17.5212 21.7151 18.1626 21.3984 18.7119L22.752 20.0986L21.4785 21.4033L20.126 20.0156C19.5902 20.3402 18.9652 20.5273 18.2979 20.5273C16.31 20.5273 14.6982 18.8747 14.6982 16.8369C14.6983 14.7991 16.31 13.1475 18.2979 13.1475ZM18.2979 14.9922C17.3039 14.9922 16.4981 15.818 16.498 16.8369C16.498 17.8559 17.3039 18.6816 18.2979 18.6816C19.2917 18.6814 20.0977 17.8557 20.0977 16.8369C20.0976 15.8181 19.2916 14.9924 18.2979 14.9922Z" fill="#3C3C3C"/>
<path d="M20.0977 3C20.5944 3.00027 20.9971 3.41356 20.9971 3.92285V12.043C20.2031 11.5721 19.2812 11.3018 18.2979 11.3018C15.316 11.3018 12.8985 13.7802 12.8984 16.8369C12.8984 17.1512 12.9235 17.4598 12.9727 17.7598H7.00879L3 20.9883V3.92285C3 3.41354 3.40265 3.00024 3.89941 3H20.0977Z" fill="#3C3C3C"/>
</svg>
