<svg width="24" height="24" viewBox="0 0 24 24" fill="none" xmlns="http://www.w3.org/2000/svg">
<path d="M12 9.53809C12.9941 9.53809 13.7998 10.3652 13.7998 11.3848C13.7997 12.4043 12.9941 13.2305 12 13.2305C11.0059 13.2305 10.2003 12.4043 10.2002 11.3848C10.2002 10.3652 11.0059 9.53809 12 9.53809Z" fill="#3C3C3C"/>
<path fill-rule="evenodd" clip-rule="evenodd" d="M20.0996 4C20.5966 4 20.9999 4.41316 21 4.92285V17.8457C21 18.3555 20.5967 18.7695 20.0996 18.7695H7.00879L3 22V4.92285C3.00012 4.41316 3.40341 4 3.90039 4H20.0996ZM11.0996 7.80859C10.4564 7.97847 9.88295 8.32652 9.43164 8.79785L8.55273 8.27734L7.65332 9.87598L8.53027 10.3965C8.44532 10.711 8.40039 11.0425 8.40039 11.3848C8.4004 11.7271 8.44528 12.0585 8.53027 12.373L7.65332 12.8926L8.55273 14.4912L9.43164 13.9717C9.88294 14.443 10.4564 14.7911 11.0996 14.9609V16H12.9004V14.9609C13.5436 14.7911 14.117 14.443 14.5684 13.9717L15.4473 14.4912L16.3467 12.8926L15.4697 12.373C15.5547 12.0585 15.5996 11.7271 15.5996 11.3848C15.5996 11.0425 15.5547 10.711 15.4697 10.3965L16.3467 9.87598L15.4473 8.27734L14.5684 8.79785C14.117 8.32652 13.5436 7.97847 12.9004 7.80859V6.76953H11.0996V7.80859Z" fill="#3C3C3C"/>
</svg>
