<svg width="24" height="24" viewBox="0 0 24 24" fill="none" xmlns="http://www.w3.org/2000/svg">
<path d="M15.2578 4C15.0919 4.46932 15 4.97384 15 5.5C15 7.98528 17.0147 10 19.5 10C20.0262 10 20.5307 9.90814 21 9.74219V17.8457C21 18.3555 20.5967 18.7695 20.0996 18.7695H7.00879L3 22V4.92285C3.00012 4.41316 3.40341 4 3.90039 4H15.2578Z" fill="#3C3C3C"/>
<path d="M19.5 3C20.8807 3 22 4.11929 22 5.5C22 6.88071 20.8807 8 19.5 8C18.1193 8 17 6.88071 17 5.5C17 4.11929 18.1193 3 19.5 3Z" fill="#3C3C3C"/>
</svg>
