<svg width="24" height="24" viewBox="0 0 24 24" fill="none" xmlns="http://www.w3.org/2000/svg">
<path d="M21 21C21 21.5523 20.5523 22 20 22H4C3.44772 22 3 21.5523 3 21V14H21V21Z" fill="#3C3C3C"/>
<path fill-rule="evenodd" clip-rule="evenodd" d="M12 2C14.125 2 16.0785 2.73614 17.6182 3.96777L19.0713 2.51465L20.4854 3.92871L19.0322 5.38184C20.2638 6.92152 21 8.87499 21 11V12H3V11C3 8.87499 3.73614 6.92152 4.96777 5.38184L3.51465 3.92871L4.92871 2.51465L6.38184 3.96777C7.92152 2.73614 9.87499 2 12 2ZM9 7C8.44772 7 8 7.44772 8 8C8 8.55228 8.44772 9 9 9C9.55228 9 10 8.55228 10 8C10 7.44772 9.55228 7 9 7ZM15 7C14.4477 7 14 7.44772 14 8C14 8.55228 14.4477 9 15 9C15.5523 9 16 8.55228 16 8C16 7.44772 15.5523 7 15 7Z" fill="#3C3C3C"/>
</svg>
