<svg width="24" height="24" viewBox="0 0 24 24" fill="none" xmlns="http://www.w3.org/2000/svg">
<path d="M15.9339 6.21387C16.6422 6.26192 18.6698 6.4785 19.9895 8.41016C19.8815 8.47016 17.5652 9.81408 17.5891 12.6221C17.6251 15.9821 20.5297 17.0984 20.5657 17.1104C20.5412 17.196 20.0969 18.7075 19.0296 20.2666C18.1056 21.6225 17.145 22.9662 15.6331 22.9902C14.1455 23.0261 13.6654 22.1144 11.9739 22.1143C10.2699 22.1143 9.74118 22.9664 8.33718 23.0264C6.87331 23.0742 5.76922 21.5617 4.83327 20.2178C2.92539 17.4577 1.4731 12.4418 3.42898 9.0459C4.40089 7.35404 6.12914 6.28589 8.01296 6.26172C9.44078 6.22572 10.7971 7.22142 11.6731 7.22168C12.5371 7.22168 14.0859 6.06987 15.9339 6.21387Z" fill="#3C3C3C"/>
<path d="M15.9456 0.849609C16.0896 2.14554 15.5732 3.45366 14.7932 4.38965C14.0132 5.32565 12.7411 6.05791 11.5051 5.96191C11.3373 4.68998 11.9619 3.35822 12.6819 2.53027C13.4859 1.59434 14.8296 0.897607 15.9456 0.849609Z" fill="#3C3C3C"/>
</svg>
