<svg width="24" height="24" viewBox="0 0 24 24" fill="none" xmlns="http://www.w3.org/2000/svg">
<path fill-rule="evenodd" clip-rule="evenodd" d="M12 2C17.5228 2 22 6.47715 22 12C22 17.5228 17.5228 22 12 22C6.47715 22 2 17.5228 2 12C2 6.47715 6.47715 2 12 2ZM8.82227 15.3428C8.42774 14.8665 7.93699 14.6957 7.34375 14.834L7.19336 14.875L6.60449 15.8906C6.37873 16.2857 6.51224 16.7898 6.90723 17.0156C7.26946 17.2226 7.72367 17.1282 7.9707 16.8066L8.03223 16.7139L8.82227 15.3428ZM13.21 8.66113C12.7221 9.06431 12.2297 10.2579 12.9189 11.4473L15.96 16.7139C16.1898 17.1089 16.6898 17.2414 17.085 17.0156C17.4467 16.8049 17.589 16.3678 17.4365 15.9922L17.3867 15.8906L16.585 14.5H17.7744C18.2298 14.4999 18.5965 14.1332 18.5967 13.6777C18.5967 13.2573 18.2843 12.9121 17.8779 12.8613L17.7744 12.8545H15.6328L13.4404 9.05762L13.21 8.66113ZM13.4883 5.61719C13.1261 5.4102 12.6719 5.5046 12.4248 5.82617L12.3633 5.91895L11.9961 6.55273L11.6367 5.91895C11.4068 5.52415 10.9068 5.39147 10.5117 5.61719C10.1498 5.82796 10.0075 6.26588 10.1602 6.6416L10.21 6.74219L11.0488 8.19727L8.36328 12.8506H6.2666C5.81095 12.8506 5.44336 13.2181 5.44336 13.6738C5.44357 14.0942 5.75674 14.4387 6.16309 14.4893L6.2666 14.4961H13.7461C14.087 13.8563 13.6852 12.9467 12.9355 12.8574L12.8145 12.8506H10.2617L13.79 6.74219C14.0158 6.34715 13.8832 5.8431 13.4883 5.61719Z" fill="#3C3C3C"/>
</svg>
