<svg width="24" height="24" viewBox="0 0 24 24" fill="none" xmlns="http://www.w3.org/2000/svg">
<path d="M15.333 2C17.1739 2.00001 18.6658 3.49221 18.666 5.33301C18.666 7.17395 17.174 8.66699 15.333 8.66699H12V18.667C11.9998 20.5078 10.5069 22 8.66602 22C6.82531 21.9998 5.33317 20.5077 5.33301 18.667C5.33301 16.8261 6.82521 15.3332 8.66602 15.333C6.82521 15.3328 5.33301 13.8409 5.33301 12C5.33301 10.1592 6.82521 8.66717 8.66602 8.66699C6.82521 8.66682 5.33301 7.17385 5.33301 5.33301C5.33318 3.49237 6.8254 2.00026 8.66602 2H15.333Z" fill="#3C3C3C"/>
<path d="M15.333 8.66699C17.174 8.667 18.666 10.1591 18.666 12C18.666 13.841 17.174 15.333 15.333 15.333C13.4921 15.333 12 13.841 12 12C12 10.1591 13.4921 8.66699 15.333 8.66699Z" fill="#3C3C3C"/>
</svg>
