<svg width="24" height="24" viewBox="0 0 24 24" fill="none" xmlns="http://www.w3.org/2000/svg">
<path d="M12 9C13.6569 9 15 10.3427 15 12C14.9999 13.6568 13.6572 15 12 15C10.3433 14.9998 9.00013 13.6572 9 12C9 10.3432 10.3427 9.00016 12 9Z" fill="#3C3C3C"/>
<path fill-rule="evenodd" clip-rule="evenodd" d="M13.0283 2C14.1536 2.00186 14.724 2.00877 15.2168 2.02344L15.4111 2.0293C15.6352 2.03726 15.8565 2.04708 16.123 2.05957C17.187 2.10875 17.9133 2.27693 18.5508 2.52441C19.2097 2.77857 19.7666 3.12198 20.3223 3.67773C20.8773 4.23356 21.2206 4.7927 21.4756 5.4502C21.7221 6.08669 21.8904 6.81322 21.9404 7.87695C21.9523 8.14362 21.9618 8.3656 21.9697 8.58984L21.9756 8.7832C21.9902 9.27589 21.9969 9.84649 21.999 10.9717L22 11.7178V13.0273C21.9981 14.1526 21.9922 14.7232 21.9775 15.2158L21.9707 15.4102C21.9628 15.6344 21.9529 15.8556 21.9404 16.1221C21.8912 17.1862 21.7222 17.9123 21.4756 18.5498C21.2214 19.2089 20.8771 19.7656 20.3223 20.3213C19.7666 20.8762 19.2072 21.2196 18.5508 21.4746C17.9133 21.7213 17.187 21.8894 16.123 21.9395C15.8565 21.9513 15.6352 21.961 15.4111 21.9688L15.2168 21.9756C14.724 21.9903 14.1536 21.9968 13.0283 21.999L12.2822 22H11.7178L10.9727 21.999C9.84742 21.9972 9.27688 21.9913 8.78418 21.9766L8.58984 21.9707C8.36564 21.9627 8.14452 21.9519 7.87793 21.9395C6.81376 21.8904 6.08853 21.7213 5.4502 21.4746C4.79191 21.2205 4.23451 20.8763 3.67871 20.3213C3.12292 19.7655 2.78038 19.2065 2.52539 18.5498C2.27789 17.9123 2.11055 17.1863 2.06055 16.1221C2.04867 15.8556 2.0391 15.6344 2.03125 15.4102L2.02441 15.2158C2.00979 14.7232 2.00314 14.1526 2.00098 13.0273V10.9717C2.00284 9.84649 2.00877 9.27589 2.02344 8.7832L2.03027 8.58984C2.03824 8.3656 2.04805 8.14362 2.06055 7.87695C2.10972 6.81232 2.27798 6.08755 2.52539 5.4502C2.77955 4.79187 3.12288 4.23356 3.67871 3.67773C4.23446 3.12204 4.79279 2.77938 5.4502 2.52441C6.08768 2.27693 6.81296 2.10957 7.87793 2.05957C8.1445 2.0477 8.36565 2.03812 8.58984 2.03027L8.78418 2.02441C9.27688 2.00978 9.84741 2.00314 10.9727 2.00098L13.0283 2ZM12 7C9.23722 7.00016 7 9.23966 7 12C7.00013 14.7627 9.23973 16.9998 12 17C14.7628 17 16.9999 14.7604 17 12C17 9.23713 14.7604 7 12 7ZM17.25 5.5C16.5608 5.50016 16 6.05988 16 6.74902C16 7.43814 16.5601 7.99886 17.25 7.99902C17.9392 7.99902 18.5 7.4391 18.5 6.74902C18.5 6.05978 17.9383 5.49914 17.25 5.5Z" fill="#3C3C3C"/>
</svg>
