<svg width="24" height="24" viewBox="0 0 24 24" fill="none" xmlns="http://www.w3.org/2000/svg">
<path fill-rule="evenodd" clip-rule="evenodd" d="M19.668 3C20.4013 3.00025 21.001 3.58078 21.001 4.29688V19.7031C21.001 20.4199 20.4013 20.9998 19.668 21H4.3291C3.59491 20.9999 3.00098 20.42 3.00098 19.7031V4.29688C3.00098 3.58067 3.59491 3.00007 4.3291 3H19.668ZM5.66699 9.75V18.3389H8.33984V9.75H5.66699ZM15.1367 9.5332C13.837 9.5332 12.9672 10.2459 12.6094 10.9209H12.5742V9.75H10.0146V18.3389H12.6797V14.0889C12.6797 12.9686 12.892 11.885 14.2812 11.8848C15.65 11.8848 15.6709 13.1661 15.6709 14.1621V18.3389H18.3359L18.3369 13.624C18.3368 11.3106 17.8373 9.53321 15.1367 9.5332ZM7.00391 5.47852C6.14666 5.47852 5.45605 6.17287 5.45605 7.02637C5.45625 7.88045 6.14603 8.5752 7.00391 8.5752C7.85795 8.5751 8.55156 7.88039 8.55176 7.02637C8.55176 6.17293 7.85882 5.47861 7.00391 5.47852Z" fill="#3C3C3C"/>
</svg>
