<svg width="24" height="24" viewBox="0 0 24 24" fill="none" xmlns="http://www.w3.org/2000/svg">
<path d="M13.793 12L3.61035 22.1865C3.41744 22.1049 3.24878 21.9618 3.13574 21.7666C3.0476 21.6143 3.00098 21.4416 3.00098 21.2656V2.73438C3.00104 2.32105 3.25164 1.96577 3.60938 1.81348L13.793 12Z" fill="#3C3C3C"/>
<path d="M16.8018 15.0088L5.86523 21.3418L14.5 12.707L16.8018 15.0088Z" fill="#3C3C3C"/>
<path d="M20.5059 11.1348C20.9839 11.4115 21.1469 12.0231 20.8701 12.501C20.7826 12.6521 20.6571 12.7777 20.5059 12.8652L17.6982 14.4912L15.207 12L17.6992 9.50879L20.5059 11.1348Z" fill="#3C3C3C"/>
<path d="M16.8027 8.99023L14.5 11.293L5.86523 2.6582L16.8027 8.99023Z" fill="#3C3C3C"/>
</svg>
