<svg width="24" height="24" viewBox="0 0 24 24" fill="none" xmlns="http://www.w3.org/2000/svg">
<path d="M13.6689 4.00781C13.7793 4.00264 13.8903 4 14.002 4C14.0473 4 14.0926 4.00011 14.1377 4.00098C14.0487 4.3713 14.002 4.76204 14.002 5.16699C14.0021 7.48547 16.0172 9.5 18.6689 9.5C19.3932 9.49993 20.0875 9.30293 20.7002 8.96191C20.8961 9.60671 21.002 10.2912 21.002 11C21.002 13.9742 19.1472 16.5153 16.5312 17.5293L20.002 21H3.00195V4H13.6689V4.00781Z" fill="#3C3C3C"/>
<path d="M18.502 2.5C19.8827 2.5 21.002 3.61929 21.002 5C21.002 6.38071 19.8827 7.5 18.502 7.5C17.1213 7.49999 16.002 6.3807 16.002 5C16.002 3.6193 17.1213 2.50001 18.502 2.5Z" fill="#3C3C3C"/>
</svg>
