<svg width="24" height="24" viewBox="0 0 24 24" fill="none" xmlns="http://www.w3.org/2000/svg">
<path d="M12.2054 3C13.0213 3.00001 15.7763 3.22753 17.0736 6.13867C17.5105 7.11056 17.404 8.80928 17.3148 10.1689L17.305 10.2354C17.2961 10.4181 17.2837 10.5922 17.2748 10.7705C17.3197 10.8065 17.4799 10.9398 17.8089 10.9443C18.0942 10.9354 18.4066 10.8421 18.763 10.6816C18.8745 10.6326 18.9908 10.6143 19.0755 10.6143C19.2003 10.6143 19.325 10.6461 19.432 10.6816H19.4408C19.7394 10.7931 19.9358 11.0023 19.9359 11.2207C19.9449 11.4258 19.7842 11.7383 19.0218 12.0459C18.9417 12.0771 18.848 12.1129 18.7367 12.1396C18.3132 12.2689 17.6804 12.4739 17.4798 12.9287C17.3684 13.1693 17.4122 13.4766 17.5814 13.8242C17.5814 13.8331 17.5912 13.833 17.5912 13.833C17.6403 13.9578 18.9287 16.8824 21.7953 17.3594C21.9199 17.3818 22.0003 17.4847 22.0003 17.6094C22.0003 17.6538 21.9912 17.6983 21.9691 17.7383C21.7952 18.1485 20.9122 18.483 19.4144 18.7148C19.2762 18.7371 19.2095 18.9649 19.1292 19.335C19.0981 19.4864 19.0624 19.6335 19.0179 19.7939C18.9734 19.941 18.8794 20.0214 18.7191 20.0215H18.6966C18.594 20.0215 18.4556 20.0083 18.2728 19.9727C17.9519 19.9058 17.5999 19.8565 17.1585 19.8564C16.8955 19.8564 16.6233 19.8784 16.3558 19.9229C15.8032 20.012 15.3263 20.3554 14.8226 20.7119C14.1049 21.2023 13.3066 21.7646 12.1253 21.7646C12.1253 21.7646 11.9085 21.7646 11.8714 21.7646C10.6811 21.7646 9.88693 21.2028 9.17808 20.708C8.6744 20.3514 8.20202 20.0126 7.64487 19.9189C7.37292 19.8698 7.09626 19.8516 6.84214 19.8516C6.36974 19.8516 5.99535 19.9231 5.72788 19.9766C5.55847 20.0078 5.4155 20.0352 5.30405 20.0352C5.18819 20.0352 5.04076 20.0036 4.98276 19.8076C4.93372 19.6471 4.90264 19.4949 4.87144 19.3477C4.79123 18.9779 4.72443 18.7507 4.58628 18.7285C3.09727 18.5011 2.20546 18.1577 2.03159 17.752C2.01822 17.7074 2.00034 17.6625 2.00034 17.627C1.99163 17.5024 2.08086 17.4003 2.20542 17.3779C3.38682 17.1818 4.44801 16.5528 5.34409 15.5186C6.03957 14.7161 6.37831 13.9402 6.40952 13.8555C6.40966 13.8477 6.41831 13.8467 6.41831 13.8467C6.58767 13.4947 6.62324 13.1963 6.52085 12.9512C6.32915 12.492 5.69645 12.2948 5.26401 12.1611C5.15275 12.1299 5.05902 12.0951 4.97886 12.0684C4.60896 11.9213 3.99385 11.6089 4.07359 11.1768C4.13155 10.8647 4.54629 10.6416 4.88511 10.6416C4.97854 10.6416 5.05856 10.6549 5.12534 10.6904C5.50417 10.8642 5.84777 10.9531 6.14194 10.9531C6.50721 10.9531 6.68117 10.8152 6.72593 10.7705C6.71701 10.5744 6.70415 10.3694 6.69077 10.1777C6.60162 8.81355 6.49861 7.11937 6.93101 6.14746C8.22834 3.24073 10.9842 3.00879 11.8001 3.00879C11.8262 3.00868 12.1566 3 12.1566 3H12.2054Z" fill="#3C3C3C"/>
</svg>
