<svg width="24" height="24" viewBox="0 0 24 24" fill="none" xmlns="http://www.w3.org/2000/svg">
<path fill-rule="evenodd" clip-rule="evenodd" d="M12.002 2C17.5248 2 22.002 6.47715 22.002 12C22.002 17.5228 17.5248 22 12.002 22C10.1681 22 8.44932 21.5062 6.97168 20.6445L2.00586 22L3.3584 17.0312C2.49624 15.5534 2.00195 13.8345 2.00195 12C2.00195 6.47716 6.47909 2.00001 12.002 2ZM8.39355 7.30859C8.26416 7.31768 8.13698 7.34911 8.02148 7.4082C7.93493 7.4525 7.85469 7.51661 7.72852 7.63574C7.60931 7.74829 7.53958 7.84662 7.4668 7.94141C7.0971 8.42275 6.89865 9.01416 6.90234 9.62109C6.90437 10.1115 7.03129 10.5882 7.23242 11.0332C7.64055 11.936 8.31406 12.8913 9.20312 13.7764C9.41657 13.9889 9.62607 14.2038 9.85156 14.4023C10.9549 15.3737 12.2697 16.0743 13.6914 16.4482C13.6914 16.4482 14.249 16.5343 14.2598 16.5352C14.4453 16.5452 14.6307 16.531 14.8164 16.5215C15.1076 16.5065 15.3921 16.4281 15.6494 16.291C15.8149 16.2029 15.8933 16.1589 16.0322 16.0713C16.0351 16.0693 16.0779 16.0405 16.1572 15.9814C16.2921 15.881 16.3751 15.8098 16.4873 15.6934C16.57 15.6074 16.6413 15.506 16.6963 15.3916C16.7745 15.2285 16.8534 14.9168 16.8848 14.6582C16.9087 14.4606 16.901 14.3521 16.8984 14.2852C16.894 14.1776 16.8053 14.0675 16.708 14.0205L16.127 13.7588C16.127 13.7588 15.2574 13.3803 14.7256 13.1377C14.6703 13.1124 14.6096 13.1004 14.5488 13.0967C14.4155 13.0885 14.266 13.1236 14.1709 13.2236C14.1659 13.2216 14.0993 13.279 13.376 14.1553C13.3361 14.2029 13.2426 14.3064 13.0811 14.2969C13.0568 14.2952 13.0323 14.2923 13.0088 14.2861C12.9433 14.2688 12.8788 14.2461 12.8164 14.2197C12.6929 14.1673 12.6498 14.1467 12.5654 14.1104C11.9881 13.8582 11.4576 13.5213 10.9893 13.1084C10.8637 12.9978 10.7473 12.8784 10.627 12.7617C10.2068 12.3545 9.86236 11.9214 9.60645 11.4941C9.59249 11.4709 9.57101 11.4371 9.54785 11.3994C9.50598 11.3313 9.45979 11.2499 9.44531 11.1943C9.40822 11.0473 9.50684 10.9287 9.50684 10.9287C9.51333 10.9216 9.75166 10.6613 9.86328 10.5186C9.97208 10.3793 10.0662 10.2426 10.126 10.1455C10.2437 9.95618 10.2806 9.76033 10.2188 9.60938C9.93827 8.9256 9.64882 8.24556 9.35059 7.56934C9.29176 7.43598 9.11714 7.33884 8.95801 7.32031C8.90417 7.31409 8.84995 7.30727 8.7959 7.30371C8.66192 7.29717 8.52735 7.2992 8.39355 7.30859Z" fill="#3C3C3C"/>
</svg>
