<svg width="24" height="24" viewBox="0 0 24 24" fill="none" xmlns="http://www.w3.org/2000/svg">
<path fill-rule="evenodd" clip-rule="evenodd" d="M12.2441 4C12.7784 4.00294 14.1146 4.0154 15.5342 4.07227L16.0371 4.09473C17.4665 4.1624 18.8951 4.27809 19.6035 4.47559C20.5483 4.74101 21.2909 5.5154 21.542 6.49707C21.9417 8.05616 21.9918 11.0995 21.998 11.8359L21.999 11.9883V12.0098L21.998 12.1621C21.9918 12.8985 21.9417 15.9419 21.542 17.501C21.2875 18.4864 20.5449 19.2607 19.6035 19.5225C18.8951 19.7199 17.4666 19.8356 16.0371 19.9033L15.5342 19.9258C14.1146 19.9827 12.7784 19.995 12.2441 19.998L12.0098 19.999H11.9883L11.7549 19.998C10.6245 19.9918 5.89774 19.9407 4.39453 19.5225C3.44966 19.2569 2.7071 18.4827 2.45605 17.501C2.05638 15.9419 2.00624 12.8985 2 12.1621V11.8359C2.00624 11.0995 2.05638 8.05616 2.45605 6.49707C2.71065 5.51174 3.45319 4.73738 4.39453 4.47559C5.89774 4.05732 10.6245 4.00622 11.7549 4H12.2441ZM9.99902 15.499L15.999 11.999L9.99902 8.49902V15.499Z" fill="#3C3C3C"/>
</svg>
